SplineFontDB: 3.2
FontName: IREntezar
FullName: IREntezar
FamilyName: IREntezar
Weight: Book
Copyright: Copyright (c) 2022, Information Technology Organization of Iran (ito.gov.ir)
Version: 1.001
ItalicAngle: 0
UnderlinePosition: -100
UnderlineWidth: 60
Ascent: 1638
Descent: 410
InvalidEm: 0
sfntRevision: 0x00010042
LayerCount: 2
Layer: 0 1 "Back" 1
Layer: 1 1 "Fore" 0
XUID: [1021 420 722297922 5292601]
StyleMap: 0x0040
FSType: 0
OS2Version: 3
OS2_WeightWidthSlopeOnly: 0
OS2_UseTypoMetrics: 0
CreationTime: 1356329054
ModificationTime: 1662614937
PfmFamily: 17
TTFWeight: 400
TTFWidth: 5
LineGap: 100
VLineGap: 0
Panose: 2 0 5 3 0 0 0 2 0 2
OS2TypoAscent: 1885
OS2TypoAOffset: 0
OS2TypoDescent: -1131
OS2TypoDOffset: 0
OS2TypoLinegap: 1500
OS2WinAscent: 1885
OS2WinAOffset: 0
OS2WinDescent: 1131
OS2WinDOffset: 0
HheadAscent: 1885
HheadAOffset: 0
HheadDescent: -1131
HheadDOffset: 0
OS2SubXSize: 1434
OS2SubYSize: 1331
OS2SubXOff: 0
OS2SubYOff: 293
OS2SupXSize: 1434
OS2SupYSize: 1331
OS2SupXOff: 0
OS2SupYOff: 930
OS2StrikeYSize: 50
OS2StrikeYPos: 250
OS2CapHeight: 1885
OS2XHeight: 594
OS2FamilyClass: 2048
OS2Vendor: 'PARS'
OS2CodePages: 20000041.00000000
OS2UnicodeRanges: 00002003.00000000.00000000.00000000
Lookup: 1 1 0 "'isol' Isolated Forms in Arabic lookup 0" { "'isol' Isolated Forms in Arabic lookup 0 subtable"  } ['isol' ('arab' <'dflt' > ) ]
Lookup: 1 1 0 "'init' Initial Forms in Arabic lookup 1" { "'init' Initial Forms in Arabic lookup 1 subtable"  } ['init' ('arab' <'dflt' > ) ]
Lookup: 1 1 0 "'fina' Terminal Forms in Arabic lookup 2" { "'fina' Terminal Forms in Arabic lookup 2 subtable"  } ['fina' ('arab' <'dflt' > ) ]
Lookup: 1 1 0 "'medi' Medial Forms in Arabic lookup 3" { "'medi' Medial Forms in Arabic lookup 3 subtable"  } ['medi' ('arab' <'dflt' > ) ]
Lookup: 4 1 0 "'ccmp' Glyph Composition/Decomposition in Arabic lookup 4" { "'ccmp' Glyph Composition/Decomposition in Arabic lookup 4 subtable"  } ['ccmp' ('arab' <'dflt' > ) ]

StartChar: quotedbl
Encoding: 34 34 4
Width: 478
Flags: W
LayerCount: 2
Fore
SplineSet
70 1192 m 1,0,-1
 185 1192 l 1,1,-1
 160 831 l 1,2,-1
 84 831 l 1,3,-1
 70 1192 l 1,0,-1
310 1192 m 1,4,-1
 424 1192 l 1,5,-1
 399 831 l 1,6,-1
 324 831 l 1,7,-1
 310 1192 l 1,4,-1
EndSplineSet
EndChar

StartChar: quotesingle
Encoding: 39 39 5
Width: 303
Flags: W
LayerCount: 2
Fore
SplineSet
102 1192 m 1,0,-1
 216 1192 l 1,1,-1
 191 831 l 1,2,-1
 116 831 l 1,3,-1
 102 1192 l 1,0,-1
EndSplineSet
EndChar

StartChar: asterisk
Encoding: 42 42 6
Width: 1126
Flags: W
LayerCount: 2
Fore
SplineSet
568 347 m 1,0,-1
 574 687 l 1,1,-1
 355 467 l 1,2,-1
 250 467 l 1,3,-1
 527 746 l 1,4,-1
 203 746 l 1,5,-1
 223 839 l 1,6,-1
 547 839 l 1,7,-1
 277 1104 l 1,8,-1
 370 1104 l 1,9,-1
 579 899 l 1,10,-1
 585 1199 l 1,11,-1
 704 1239 l 1,12,-1
 699 912 l 1,13,-1
 905 1104 l 1,14,-1
 1013 1104 l 1,15,-1
 730 839 l 1,16,-1
 1065 839 l 1,17,-1
 1043 746 l 1,18,-1
 729 746 l 1,19,-1
 1002 467 l 1,20,-1
 910 467 l 1,21,-1
 696 687 l 1,22,-1
 688 386 l 1,23,-1
 568 347 l 1,0,-1
EndSplineSet
EndChar

StartChar: plus
Encoding: 43 43 7
Width: 1253
GlyphClass: 2
Flags: W
LayerCount: 2
Fore
SplineSet
1149 578 m 1,0,-1
 707 578 l 1,1,-1
 707 141 l 1,2,-1
 547 141 l 1,3,-1
 547 578 l 1,4,-1
 109 578 l 1,5,-1
 109 745 l 1,6,-1
 547 745 l 1,7,-1
 547 1186 l 1,8,-1
 707 1186 l 1,9,-1
 707 745 l 1,10,-1
 1149 745 l 1,11,-1
 1149 578 l 1,0,-1
EndSplineSet
EndChar

StartChar: hyphen
Encoding: 45 45 8
Width: 1268
Flags: W
LayerCount: 2
Fore
SplineSet
182 721 m 1,0,-1
 1077 721 l 1,1,-1
 1077 553 l 1,2,-1
 182 553 l 1,3,-1
 182 721 l 1,0,-1
EndSplineSet
EndChar

StartChar: period
Encoding: 46 46 9
Width: 502
GlyphClass: 2
Flags: W
LayerCount: 2
Fore
SplineSet
443 143 m 0,0,1
 443 82 443 82 402 40.5 c 128,-1,2
 361 -1 361 -1 301 -1 c 0,3,4
 240 -1 240 -1 199 40.5 c 128,-1,5
 158 82 158 82 158 143 c 0,6,7
 158 202 158 202 199.5 244 c 128,-1,8
 241 286 241 286 301 286 c 0,9,10
 360 286 360 286 401.5 244 c 128,-1,11
 443 202 443 202 443 143 c 0,0,1
EndSplineSet
EndChar

StartChar: slash
Encoding: 47 47 10
Width: 751
Flags: W
LayerCount: 2
Fore
SplineSet
656 1192 m 1,0,-1
 271 -107 l 1,1,-1
 134 -107 l 1,2,-1
 518 1192 l 1,3,-1
 656 1192 l 1,0,-1
EndSplineSet
EndChar

StartChar: less
Encoding: 60 60 11
Width: 992
Flags: W
LayerCount: 2
Fore
SplineSet
54 367 m 1,0,-1
 54 513 l 1,1,-1
 938 902 l 1,2,-1
 938 734 l 1,3,-1
 268 440 l 1,4,-1
 938 146 l 1,5,-1
 938 -21 l 1,6,-1
 54 367 l 1,0,-1
EndSplineSet
EndChar

StartChar: equal
Encoding: 61 61 12
Width: 969
Flags: W
LayerCount: 2
Fore
SplineSet
840 321 m 1,0,-1
 118 321 l 1,1,-1
 118 443 l 1,2,-1
 840 443 l 1,3,-1
 840 321 l 1,0,-1
840 579 m 1,4,-1
 118 579 l 1,5,-1
 118 701 l 1,6,-1
 840 701 l 1,7,-1
 840 579 l 1,4,-1
EndSplineSet
EndChar

StartChar: greater
Encoding: 62 62 13
Width: 992
Flags: W
LayerCount: 2
Fore
SplineSet
54 146 m 1,0,-1
 724 440 l 1,1,-1
 54 734 l 1,2,-1
 54 902 l 1,3,-1
 938 513 l 1,4,-1
 938 367 l 1,5,-1
 54 -21 l 1,6,-1
 54 146 l 1,0,-1
EndSplineSet
EndChar

StartChar: bracketleft
Encoding: 91 91 14
Width: 568
GlyphClass: 2
Flags: W
LayerCount: 2
Fore
SplineSet
514 -254 m 1,0,-1
 114 -254 l 1,1,-1
 114 1157 l 1,2,-1
 514 1157 l 1,3,-1
 514 1101 l 1,4,-1
 406 1101 l 2,5,6
 370 1101 370 1101 347.5 1096 c 128,-1,7
 325 1091 325 1091 312.5 1077.5 c 128,-1,8
 300 1064 300 1064 295.5 1041 c 128,-1,9
 291 1018 291 1018 291 981 c 2,10,-1
 291 -108 l 2,11,12
 291 -135 291 -135 295 -152.5 c 128,-1,13
 299 -170 299 -170 308.5 -180 c 128,-1,14
 318 -190 318 -190 334.5 -194 c 128,-1,15
 351 -198 351 -198 377 -198 c 2,16,-1
 514 -198 l 1,17,-1
 514 -254 l 1,0,-1
EndSplineSet
EndChar

StartChar: bracketright
Encoding: 93 93 15
Width: 568
GlyphClass: 2
Flags: W
LayerCount: 2
Fore
SplineSet
55 -198 m 1,0,-1
 191 -198 l 2,1,2
 218 -198 218 -198 234.5 -194.5 c 128,-1,3
 251 -191 251 -191 260 -181 c 128,-1,4
 269 -171 269 -171 272.5 -153.5 c 128,-1,5
 276 -136 276 -136 276 -108 c 2,6,-1
 276 981 l 2,7,8
 276 1018 276 1018 272 1041 c 128,-1,9
 268 1064 268 1064 255.5 1077.5 c 128,-1,10
 243 1091 243 1091 220.5 1096 c 128,-1,11
 198 1101 198 1101 163 1101 c 2,12,-1
 55 1101 l 1,13,-1
 55 1157 l 1,14,-1
 454 1157 l 1,15,-1
 454 -254 l 1,16,-1
 55 -254 l 1,17,-1
 55 -198 l 1,0,-1
EndSplineSet
EndChar

StartChar: grave
Encoding: 96 96 16
Width: 568
Flags: W
LayerCount: 2
Fore
SplineSet
345 864 m 1,0,-1
 81 1030 l 2,1,2
 59 1047 59 1047 45.5 1065 c 128,-1,3
 32 1083 32 1083 32 1103 c 0,4,5
 32 1128 32 1128 48 1142.5 c 128,-1,6
 64 1157 64 1157 91 1157 c 0,7,8
 109 1157 109 1157 124 1148.5 c 128,-1,9
 139 1140 139 1140 163 1117 c 2,10,-1
 414 864 l 1,11,-1
 345 864 l 1,0,-1
EndSplineSet
EndChar

StartChar: braceleft
Encoding: 123 123 17
Width: 672
GlyphClass: 2
Flags: W
LayerCount: 2
Fore
SplineSet
220 247 m 2,0,1
 220 292 220 292 211.5 324 c 128,-1,2
 203 356 203 356 182.5 378.5 c 128,-1,3
 162 401 162 401 126.5 416.5 c 128,-1,4
 91 432 91 432 37 446 c 1,5,6
 91 459 91 459 126.5 474.5 c 128,-1,7
 162 490 162 490 182.5 512.5 c 128,-1,8
 203 535 203 535 211.5 566.5 c 128,-1,9
 220 598 220 598 220 643 c 2,10,-1
 220 949 l 2,11,12
 220 1089 220 1089 306 1141 c 0,13,14
 326 1154 326 1154 350 1163.5 c 128,-1,15
 374 1173 374 1173 406 1179 c 128,-1,16
 438 1185 438 1185 480.5 1187.5 c 128,-1,17
 523 1190 523 1190 580 1191 c 1,18,-1
 580 1170 l 1,19,20
 528 1159 528 1159 494 1143 c 128,-1,21
 460 1127 460 1127 438 1102 c 128,-1,22
 416 1077 416 1077 407.5 1042 c 128,-1,23
 399 1007 399 1007 399 958 c 2,24,-1
 399 667 l 2,25,26
 399 613 399 613 390 576.5 c 128,-1,27
 381 540 381 540 358 515 c 128,-1,28
 335 490 335 490 296.5 474.5 c 128,-1,29
 258 459 258 459 198 446 c 1,30,31
 258 433 258 433 296.5 417 c 128,-1,32
 335 401 335 401 358 376 c 128,-1,33
 381 351 381 351 390 314 c 128,-1,34
 399 277 399 277 399 223 c 2,35,-1
 399 -69 l 2,36,37
 399 -118 399 -118 408 -152.5 c 128,-1,38
 417 -187 417 -187 439 -211.5 c 128,-1,39
 461 -236 461 -236 495.5 -252.5 c 128,-1,40
 530 -269 530 -269 580 -278 c 1,41,-1
 580 -298 l 1,42,43
 517 -298 517 -298 470.5 -294.5 c 128,-1,44
 424 -291 424 -291 390 -283.5 c 128,-1,45
 356 -276 356 -276 331 -264.5 c 128,-1,46
 306 -253 306 -253 286 -236 c 0,47,48
 252 -208 252 -208 236 -165 c 128,-1,49
 220 -122 220 -122 220 -59 c 2,50,-1
 220 247 l 2,0,1
EndSplineSet
EndChar

StartChar: bar
Encoding: 124 124 18
Width: 375
Flags: W
LayerCount: 2
Fore
SplineSet
113 1179 m 1,0,-1
 263 1179 l 1,1,-1
 263 -32 l 1,2,-1
 113 -32 l 1,3,-1
 113 1179 l 1,0,-1
EndSplineSet
EndChar

StartChar: asciitilde
Encoding: 126 126 19
Width: 887
Flags: W
LayerCount: 2
Fore
SplineSet
838 443 m 1,0,1
 808 403 808 403 783.5 375.5 c 128,-1,2
 759 348 759 348 734 331 c 128,-1,3
 709 314 709 314 683.5 306 c 128,-1,4
 658 298 658 298 628 298 c 0,5,6
 607 298 607 298 587 301 c 128,-1,7
 567 304 567 304 546 311 c 128,-1,8
 525 318 525 318 501.5 328.5 c 128,-1,9
 478 339 478 339 449 355 c 0,10,11
 389 386 389 386 346 400.5 c 128,-1,12
 303 415 303 415 258 415 c 0,13,14
 220 415 220 415 195 399 c 128,-1,15
 170 383 170 383 140 343 c 1,16,-1
 49 421 l 1,17,18
 93 498 93 498 142.5 531 c 128,-1,19
 192 564 192 564 261 564 c 0,20,21
 282 564 282 564 302 561.5 c 128,-1,22
 322 559 322 559 348 551 c 128,-1,23
 374 543 374 543 408 528.5 c 128,-1,24
 442 514 442 514 490 493 c 0,25,26
 519 480 519 480 540.5 472 c 128,-1,27
 562 464 562 464 577.5 458.5 c 128,-1,28
 593 453 593 453 605 451 c 128,-1,29
 617 449 617 449 628 449 c 0,30,31
 658 449 658 449 685 466.5 c 128,-1,32
 712 484 712 484 744 525 c 1,33,-1
 838 443 l 1,0,1
EndSplineSet
EndChar

StartChar: agrave
Encoding: 224 224 20
Width: 1075
Flags: W
LayerCount: 2
Fore
SplineSet
741 331 m 1,0,1
 720 266 720 266 690.5 213 c 128,-1,2
 661 160 661 160 626 114 c 0,3,4
 519 -19 519 -19 400 -19 c 0,5,6
 208 -19 208 -19 159 214 c 0,7,8
 133 334 133 334 157 451 c 128,-1,9
 181 568 181 568 252 683 c 0,10,11
 325 801 325 801 433 860 c 128,-1,12
 541 919 541 919 684 919 c 0,13,14
 712 919 712 919 746 918.5 c 128,-1,15
 780 918 780 918 815.5 916 c 128,-1,16
 851 914 851 914 886 912 c 128,-1,17
 921 910 921 910 952 908 c 1,18,-1
 946 646 l 1,19,-1
 946 647 l 1,20,-1
 950 254 l 2,21,22
 952 209 952 209 954.5 179.5 c 128,-1,23
 957 150 957 150 958 139 c 0,24,25
 961 114 961 114 985 114 c 0,26,27
 1053 114 1053 114 1214 346 c 1,28,-1
 1218 179 l 1,29,30
 1073 -19 1073 -19 925 -19 c 0,31,32
 785 -19 785 -19 753 126 c 0,33,34
 749 146 749 146 747 182 c 128,-1,35
 745 218 745 218 745 264 c 2,36,-1
 741 331 l 1,0,1
737 758 m 1,37,38
 688 775 688 775 647 783.5 c 128,-1,39
 606 792 606 792 561 792 c 0,40,41
 497 792 497 792 453.5 749.5 c 128,-1,42
 410 707 410 707 387 625 c 0,43,44
 362 522 362 522 357 425 c 128,-1,45
 352 328 352 328 368 248 c 0,46,47
 388 146 388 146 437 146 c 0,48,49
 493 146 493 146 589 280 c 0,50,51
 637 352 637 352 674 430 c 128,-1,52
 711 508 711 508 739 599 c 1,53,-1
 737 758 l 1,37,38
634 519 m 1,54,-1
 370 685 l 2,55,56
 348 702 348 702 334.5 720 c 128,-1,57
 321 738 321 738 321 758 c 0,58,59
 321 783 321 783 337 797.5 c 128,-1,60
 353 812 353 812 380 812 c 0,61,62
 398 812 398 812 413 803.5 c 128,-1,63
 428 795 428 795 452 772 c 2,64,-1
 703 519 l 1,65,-1
 634 519 l 1,54,-1
EndSplineSet
EndChar

StartChar: ocircumflex.001
Encoding: 65539 -1 26
Width: 1112
Flags: W
LayerCount: 2
Fore
SplineSet
416 -19 m 0,0,1
 301 -19 301 -19 205 70 c 0,2,3
 110 160 110 160 85 288 c 0,4,5
 32 528 32 528 170 726 c 0,6,7
 307 928 307 928 522 928 c 0,8,9
 643 928 643 928 742 842 c 1,10,11
 837 753 837 753 864 626 c 0,12,13
 890 499 890 499 869 388.5 c 128,-1,14
 848 278 848 278 781 179 c 0,15,16
 711 79 711 79 619.5 30 c 128,-1,17
 528 -19 528 -19 416 -19 c 0,0,1
483 98 m 0,18,19
 536 98 536 98 573.5 133 c 128,-1,20
 611 168 611 168 637 236 c 0,21,22
 665 310 665 310 668.5 393.5 c 128,-1,23
 672 477 672 477 652 574 c 0,24,25
 602 813 602 813 466 813 c 0,26,27
 365 813 365 813 313 670 c 0,28,29
 284 595 284 595 281 510.5 c 128,-1,30
 278 426 278 426 298 332 c 0,31,32
 324 213 324 213 370 155.5 c 128,-1,33
 416 98 416 98 483 98 c 0,18,19
EndSplineSet
EndChar

StartChar: dagger
Encoding: 8224 8224 30
Width: 932
Flags: W
LayerCount: 2
Fore
SplineSet
347 -231 m 1,0,-1
 567 622 l 1,1,-1
 248 592 l 1,2,-1
 297 700 l 1,3,-1
 576 668 l 1,4,-1
 607 1066 l 1,5,-1
 755 1093 l 1,6,-1
 621 668 l 1,7,-1
 941 700 l 1,8,-1
 895 592 l 1,9,-1
 612 622 l 1,10,-1
 496 -213 l 1,11,-1
 347 -231 l 1,0,-1
EndSplineSet
EndChar

StartChar: degree
Encoding: 176 176 31
Width: 409
Flags: W
LayerCount: 2
Fore
SplineSet
395 844 m 0,0,1
 344 844 344 844 307.5 880 c 128,-1,2
 271 916 271 916 271 968 c 0,3,4
 271 1021 271 1021 307.5 1057 c 128,-1,5
 344 1093 344 1093 395 1093 c 0,6,7
 447 1093 447 1093 483 1057 c 128,-1,8
 519 1021 519 1021 519 968 c 0,9,10
 519 916 519 916 483 880 c 128,-1,11
 447 844 447 844 395 844 c 0,0,1
395 888 m 256,12,13
 427 888 427 888 450.5 912 c 128,-1,14
 474 936 474 936 474 968 c 256,15,16
 474 1000 474 1000 450.5 1024 c 128,-1,17
 427 1048 427 1048 395 1048 c 256,18,19
 363 1048 363 1048 339 1024 c 128,-1,20
 315 1000 315 1000 315 968 c 256,21,22
 315 936 315 936 339 912 c 128,-1,23
 363 888 363 888 395 888 c 256,12,13
EndSplineSet
EndChar

StartChar: bullet
Encoding: 8226 8226 32
Width: 931
Flags: W
LayerCount: 2
Fore
SplineSet
817 662 m 256,0,1
 817 517 817 517 713.5 414 c 128,-1,2
 610 311 610 311 465 311 c 256,3,4
 320 311 320 311 217 414 c 128,-1,5
 114 517 114 517 114 662 c 256,6,7
 114 807 114 807 217 910 c 128,-1,8
 320 1013 320 1013 465 1013 c 256,9,10
 610 1013 610 1013 713.5 910 c 128,-1,11
 817 807 817 807 817 662 c 256,0,1
EndSplineSet
EndChar

StartChar: registered
Encoding: 174 174 33
Width: 897
Flags: W
LayerCount: 2
Fore
SplineSet
580 445 m 0,0,1
 448 445 448 445 354.5 538.5 c 128,-1,2
 261 632 261 632 261 764 c 256,3,4
 261 896 261 896 354.5 990 c 128,-1,5
 448 1084 448 1084 580 1084 c 0,6,7
 714 1084 714 1084 807 990 c 128,-1,8
 900 896 900 896 900 764 c 256,9,10
 900 632 900 632 806.5 538.5 c 128,-1,11
 713 445 713 445 580 445 c 0,0,1
580 484 m 0,12,13
 695 484 695 484 777.5 567 c 128,-1,14
 860 650 860 650 860 764 c 256,15,16
 860 878 860 878 777.5 961 c 128,-1,17
 695 1044 695 1044 580 1044 c 0,18,19
 466 1044 466 1044 383.5 961 c 128,-1,20
 301 878 301 878 301 764 c 256,21,22
 301 650 301 650 383.5 567 c 128,-1,23
 466 484 466 484 580 484 c 0,12,13
529 737 m 1,24,-1
 501 596 l 1,25,-1
 394 596 l 1,26,-1
 403 639 l 1,27,-1
 456 639 l 1,28,-1
 511 915 l 1,29,-1
 458 915 l 1,30,-1
 466 959 l 1,31,-1
 598 959 l 2,32,33
 751 959 751 959 751 875 c 0,34,35
 751 800 751 800 650 750 c 1,36,-1
 685 639 l 1,37,-1
 747 639 l 1,38,-1
 738 596 l 1,39,-1
 641 596 l 1,40,-1
 591 737 l 1,41,-1
 529 737 l 1,24,-1
538 782 m 1,42,-1
 574 782 l 2,43,44
 697 782 697 782 697 866 c 0,45,46
 697 915 697 915 607 915 c 2,47,-1
 564 915 l 1,48,-1
 538 782 l 1,42,-1
EndSplineSet
EndChar

StartChar: copyright
Encoding: 169 169 34
Width: 1244
Flags: W
LayerCount: 2
Fore
SplineSet
725 -27 m 0,0,1
 495 -27 495 -27 330.5 137 c 128,-1,2
 166 301 166 301 166 533 c 256,3,4
 166 765 166 765 330.5 929 c 128,-1,5
 495 1093 495 1093 725 1093 c 0,6,7
 958 1093 958 1093 1122 929 c 128,-1,8
 1286 765 1286 765 1286 533 c 256,9,10
 1286 301 1286 301 1122 137 c 128,-1,11
 958 -27 958 -27 725 -27 c 0,0,1
725 18 m 0,12,13
 939 18 939 18 1090 169 c 128,-1,14
 1241 320 1241 320 1241 533 c 256,15,16
 1241 746 1241 746 1090 897 c 128,-1,17
 939 1048 939 1048 725 1048 c 0,18,19
 513 1048 513 1048 362 897 c 128,-1,20
 211 746 211 746 211 533 c 256,21,22
 211 320 211 320 362 169 c 128,-1,23
 513 18 513 18 725 18 c 0,12,13
890 246 m 1,24,25
 785 213 785 213 704 213 c 0,26,27
 580 213 580 213 508 279.5 c 128,-1,28
 436 346 436 346 436 462 c 0,29,30
 436 625 436 625 541 734.5 c 128,-1,31
 646 844 646 844 805 844 c 0,32,33
 896 844 896 844 1003 814 c 1,34,-1
 967 675 l 1,35,-1
 915 684 l 1,36,-1
 923 766 l 1,37,38
 854 798 854 798 792 798 c 0,39,40
 688 798 688 798 616 700 c 128,-1,41
 544 602 544 602 544 462 c 0,42,43
 544 271 544 271 722 271 c 0,44,45
 823 271 823 271 902 307 c 1,46,-1
 890 246 l 1,24,25
EndSplineSet
EndChar

StartChar: trademark
Encoding: 8482 8482 35
Width: 1333
Flags: W
LayerCount: 2
Fore
SplineSet
440 1021 m 1,0,-1
 307 1021 l 1,1,-1
 288 923 l 1,2,-1
 225 923 l 1,3,-1
 254 1066 l 1,4,-1
 751 1066 l 1,5,-1
 723 923 l 1,6,-1
 661 923 l 1,7,-1
 679 1021 l 1,8,-1
 546 1021 l 1,9,-1
 456 569 l 1,10,-1
 554 569 l 1,11,-1
 545 524 l 1,12,-1
 243 524 l 1,13,-1
 253 569 l 1,14,-1
 350 569 l 1,15,-1
 440 1021 l 1,0,-1
1011 569 m 1,16,-1
 942 956 l 1,17,-1
 857 524 l 1,18,-1
 688 524 l 1,19,-1
 697 569 l 1,20,-1
 794 569 l 1,21,-1
 884 1021 l 1,22,-1
 787 1021 l 1,23,-1
 796 1066 l 1,24,-1
 1036 1066 l 1,25,-1
 1092 747 l 1,26,-1
 1265 1066 l 1,27,-1
 1481 1066 l 1,28,-1
 1473 1021 l 1,29,-1
 1375 1021 l 1,30,-1
 1285 569 l 1,31,-1
 1383 569 l 1,32,-1
 1373 524 l 1,33,-1
 1178 524 l 1,34,-1
 1270 985 l 1,35,-1
 1041 569 l 1,36,-1
 1011 569 l 1,16,-1
EndSplineSet
EndChar

StartChar: logicalnot
Encoding: 172 172 39
Width: 932
Flags: W
LayerCount: 2
Fore
SplineSet
177 510 m 1,0,-1
 193 590 l 1,1,-1
 975 590 l 1,2,-1
 906 248 l 1,3,-1
 814 248 l 1,4,-1
 866 510 l 1,5,-1
 177 510 l 1,0,-1
EndSplineSet
EndChar

StartChar: florin
Encoding: 402 402 40
Width: 679
Flags: W
LayerCount: 2
Fore
SplineSet
158 -231 m 1,0,-1
 210 -18 l 1,1,-1
 286 364 l 1,2,-1
 108 364 l 1,3,-1
 117 409 l 1,4,-1
 294 409 l 1,5,-1
 298 427 l 2,6,7
 330 586 330 586 463 692.5 c 128,-1,8
 596 799 596 799 761 799 c 0,9,10
 818 799 818 799 860 784 c 1,11,-1
 764 678 l 1,12,13
 712 729 712 729 643 729 c 0,14,15
 500 729 500 729 457 512 c 2,16,-1
 436 409 l 1,17,-1
 623 409 l 1,18,-1
 614 364 l 1,19,-1
 427 364 l 1,20,-1
 313 -213 l 1,21,-1
 158 -231 l 1,0,-1
EndSplineSet
EndChar

StartChar: ellipsis
Encoding: 8230 8230 41
Width: 1827
Flags: W
LayerCount: 2
Fore
SplineSet
758 113 m 0,0,1
 758 144 758 144 809.5 245.5 c 128,-1,2
 861 347 861 347 876 355 c 0,3,4
 907 369 907 369 964.5 307.5 c 128,-1,5
 1022 246 1022 246 1026 211 c 1,6,7
 1026 166 1026 166 977.5 79.5 c 128,-1,8
 929 -7 929 -7 908 -7 c 0,9,10
 899 -7 899 -7 851 26.5 c 128,-1,11
 803 60 803 60 778 79 c 0,12,13
 758 96 758 96 758 113 c 0,0,1
1308 113 m 0,14,15
 1308 144 1308 144 1359 245.5 c 128,-1,16
 1410 347 1410 347 1426 355 c 0,17,18
 1457 369 1457 369 1514.5 307.5 c 128,-1,19
 1572 246 1572 246 1575 211 c 0,20,21
 1575 166 1575 166 1527 79.5 c 128,-1,22
 1479 -7 1479 -7 1458 -7 c 0,23,24
 1449 -7 1449 -7 1401 26.5 c 128,-1,25
 1353 60 1353 60 1328 79 c 0,26,27
 1308 96 1308 96 1308 113 c 0,14,15
211 113 m 0,28,29
 211 144 211 144 262 245.5 c 128,-1,30
 313 347 313 347 329 355 c 0,31,32
 360 369 360 369 417.5 307.5 c 128,-1,33
 475 246 475 246 478 211 c 0,34,35
 478 166 478 166 430 79.5 c 128,-1,36
 382 -7 382 -7 361 -7 c 0,37,38
 352 -7 352 -7 304 26.5 c 128,-1,39
 256 60 256 60 231 79 c 0,40,41
 211 96 211 96 211 113 c 0,28,29
EndSplineSet
EndChar

StartChar: endash
Encoding: 8211 8211 42
Width: 434
Flags: W
LayerCount: 2
Fore
SplineSet
434 154 m 1,0,-1
 0 154 l 1,1,-1
 0 234 l 1,2,-1
 434 234 l 1,3,-1
 434 154 l 1,0,-1
EndSplineSet
EndChar

StartChar: emdash
Encoding: 8212 8212 43
Width: 1862
Flags: W
LayerCount: 2
Fore
SplineSet
1866 572 m 1,0,-1
 -4 572 l 1,1,-1
 -4 732 l 1,2,-1
 1866 732 l 1,3,-1
 1866 572 l 1,0,-1
EndSplineSet
EndChar

StartChar: quotedblleft
Encoding: 8220 8220 44
Width: 613
Flags: W
LayerCount: 2
Fore
SplineSet
340 993 m 0,0,1
 341 1058 341 1058 385 1121.5 c 128,-1,2
 429 1185 429 1185 483 1211 c 1,3,-1
 514 1153 l 1,4,5
 498 1144 498 1144 476 1120 c 128,-1,6
 454 1096 454 1096 444 1058 c 1,7,8
 510 1030 510 1030 507 975 c 0,9,10
 507 959 507 959 500.5 944.5 c 128,-1,11
 494 930 494 930 483.5 919 c 128,-1,12
 473 908 473 908 458 901.5 c 128,-1,13
 443 895 443 895 427 895 c 0,14,15
 406 895 406 895 390 903.5 c 128,-1,16
 374 912 374 912 363 925.5 c 128,-1,17
 352 939 352 939 346 957 c 128,-1,18
 340 975 340 975 340 993 c 0,0,1
121 993 m 0,19,20
 122 1058 122 1058 166 1121.5 c 128,-1,21
 210 1185 210 1185 265 1211 c 1,22,-1
 296 1153 l 1,23,24
 280 1144 280 1144 258 1120 c 128,-1,25
 236 1096 236 1096 226 1058 c 1,26,27
 292 1030 292 1030 289 975 c 0,28,29
 289 959 289 959 282.5 944.5 c 128,-1,30
 276 930 276 930 265 919 c 128,-1,31
 254 908 254 908 239 901.5 c 128,-1,32
 224 895 224 895 208 895 c 0,33,34
 188 895 188 895 171.5 903.5 c 128,-1,35
 155 912 155 912 144 925.5 c 128,-1,36
 133 939 133 939 127 957 c 128,-1,37
 121 975 121 975 121 993 c 0,19,20
EndSplineSet
EndChar

StartChar: quotedblright
Encoding: 8221 8221 45
Width: 597
Flags: W
LayerCount: 2
Fore
SplineSet
295 1113 m 0,0,1
 294 1048 294 1048 250 984.5 c 128,-1,2
 206 921 206 921 152 895 c 1,3,-1
 121 953 l 1,4,5
 137 962 137 962 159 986 c 128,-1,6
 181 1010 181 1010 191 1048 c 1,7,8
 125 1076 125 1076 128 1131 c 0,9,10
 128 1147 128 1147 134.5 1161.5 c 128,-1,11
 141 1176 141 1176 151.5 1187 c 128,-1,12
 162 1198 162 1198 176.5 1204.5 c 128,-1,13
 191 1211 191 1211 208 1211 c 0,14,15
 229 1211 229 1211 245 1202.5 c 128,-1,16
 261 1194 261 1194 272 1180.5 c 128,-1,17
 283 1167 283 1167 289 1149 c 128,-1,18
 295 1131 295 1131 295 1113 c 0,0,1
514 1113 m 0,19,20
 513 1048 513 1048 469 984.5 c 128,-1,21
 425 921 425 921 370 895 c 1,22,-1
 339 953 l 1,23,24
 355 962 355 962 377 986 c 128,-1,25
 399 1010 399 1010 409 1048 c 1,26,27
 343 1076 343 1076 346 1131 c 0,28,29
 346 1147 346 1147 352.5 1161.5 c 128,-1,30
 359 1176 359 1176 370 1187 c 128,-1,31
 381 1198 381 1198 395.5 1204.5 c 128,-1,32
 410 1211 410 1211 427 1211 c 0,33,34
 447 1211 447 1211 463 1202.5 c 128,-1,35
 479 1194 479 1194 490.5 1180.5 c 128,-1,36
 502 1167 502 1167 508 1149 c 128,-1,37
 514 1131 514 1131 514 1113 c 0,19,20
EndSplineSet
EndChar

StartChar: divide
Encoding: 247 247 46
Width: 1103
Flags: W
LayerCount: 2
Fore
SplineSet
624 772 m 1,0,-1
 466 772 l 1,1,-1
 466 953 l 1,2,-1
 624 953 l 1,3,-1
 624 772 l 1,0,-1
933 481 m 1,4,-1
 157 481 l 1,5,-1
 157 587 l 1,6,-1
 933 587 l 1,7,-1
 933 481 l 1,4,-1
624 115 m 1,8,-1
 466 115 l 1,9,-1
 466 296 l 1,10,-1
 624 296 l 1,11,-1
 624 115 l 1,8,-1
EndSplineSet
EndChar

StartChar: lozenge
Encoding: 9674 9674 47
Width: 1118
Flags: W
LayerCount: 2
Fore
SplineSet
1003 699 m 1,0,-1
 560 197 l 1,1,-1
 117 699 l 1,2,-1
 560 1202 l 1,3,-1
 1003 699 l 1,0,-1
848 699 m 1,4,-1
 560 1036 l 1,5,-1
 271 699 l 1,6,-1
 560 364 l 1,7,-1
 848 699 l 1,4,-1
EndSplineSet
EndChar

StartChar: fraction
Encoding: 8260 8260 48
Width: 742
Flags: W
LayerCount: 2
Fore
SplineSet
740 1101 m 1,0,-1
 101 -82 l 1,1,-1
 -9 -82 l 1,2,-1
 629 1101 l 1,3,-1
 740 1101 l 1,0,-1
EndSplineSet
EndChar

StartChar: guilsinglleft
Encoding: 8249 8249 49
Width: 1117
Flags: W
LayerCount: 2
Fore
SplineSet
955 58 m 1,0,-1
 150 444 l 1,1,-1
 150 534 l 1,2,-1
 955 918 l 1,3,-1
 955 784 l 1,4,-1
 331 489 l 1,5,-1
 955 192 l 1,6,-1
 955 58 l 1,0,-1
EndSplineSet
EndChar

StartChar: daggerdbl
Encoding: 8225 8225 52
Width: 932
Flags: W
LayerCount: 2
Fore
SplineSet
349 -231 m 1,0,-1
 481 185 l 1,1,-1
 161 154 l 1,2,-1
 211 261 l 1,3,-1
 490 229 l 1,4,-1
 567 616 l 1,5,-1
 247 586 l 1,6,-1
 297 693 l 1,7,-1
 575 661 l 1,8,-1
 608 1066 l 1,9,-1
 758 1093 l 1,10,-1
 620 661 l 1,11,-1
 940 693 l 1,12,-1
 889 586 l 1,13,-1
 611 616 l 1,14,-1
 535 229 l 1,15,-1
 855 261 l 1,16,-1
 804 154 l 1,17,-1
 525 185 l 1,18,-1
 499 -213 l 1,19,-1
 349 -231 l 1,0,-1
EndSplineSet
EndChar

StartChar: middot.001
Encoding: 8729 8729 53
Width: 620
Flags: W
LayerCount: 2
Fore
SplineSet
429 516 m 1,0,-1
 190 516 l 1,1,-1
 190 789 l 1,2,-1
 429 789 l 1,3,-1
 429 516 l 1,0,-1
EndSplineSet
EndChar

StartChar: quotesinglbase
Encoding: 8218 8218 54
Width: 418
Flags: W
LayerCount: 2
Fore
SplineSet
103 128 m 1,0,-1
 247 231 l 1,1,-1
 353 90 l 1,2,3
 345 -56 345 -56 262.5 -134.5 c 128,-1,4
 180 -213 180 -213 36 -213 c 1,5,-1
 76 -168 l 1,6,7
 189 -158 189 -158 211 -18 c 1,8,-1
 103 128 l 1,0,-1
EndSplineSet
EndChar

StartChar: quotedblbase
Encoding: 8222 8222 55
Width: 684
Flags: W
LayerCount: 2
Fore
SplineSet
91 92 m 1,0,-1
 204 178 l 1,1,-1
 292 64 l 1,2,3
 270 -213 270 -213 31 -213 c 1,4,-1
 60 -168 l 1,5,6
 166 -148 166 -148 179 -16 c 1,7,-1
 91 92 l 1,0,-1
401 92 m 1,8,-1
 516 178 l 1,9,-1
 602 64 l 1,10,11
 581 -213 581 -213 341 -213 c 1,12,-1
 372 -168 l 1,13,14
 476 -148 476 -148 490 -16 c 1,15,-1
 401 92 l 1,8,-1
EndSplineSet
EndChar

StartChar: perthousand
Encoding: 8240 8240 56
Width: 1571
Flags: W
LayerCount: 2
Fore
SplineSet
385 533 m 0,0,1
 304 533 304 533 254.5 584.5 c 128,-1,2
 205 636 205 636 205 722 c 0,3,4
 205 865 205 865 286.5 965.5 c 128,-1,5
 368 1066 368 1066 483 1066 c 0,6,7
 567 1066 567 1066 617.5 1014.5 c 128,-1,8
 668 963 668 963 668 877 c 0,9,10
 668 733 668 733 585.5 633 c 128,-1,11
 503 533 503 533 385 533 c 0,0,1
311 715 m 0,12,13
 311 578 311 578 398 578 c 0,14,15
 463 578 463 578 517 671.5 c 128,-1,16
 571 765 571 765 571 881 c 0,17,18
 571 1022 571 1022 483 1022 c 0,19,20
 416 1022 416 1022 363.5 928 c 128,-1,21
 311 834 311 834 311 715 c 0,12,13
850 0 m 0,22,23
 769 0 769 0 719.5 51.5 c 128,-1,24
 670 103 670 103 670 189 c 0,25,26
 670 331 670 331 751 432 c 128,-1,27
 832 533 832 533 947 533 c 0,28,29
 1031 533 1031 533 1081.5 481.5 c 128,-1,30
 1132 430 1132 430 1132 344 c 0,31,32
 1132 200 1132 200 1049.5 100 c 128,-1,33
 967 0 967 0 850 0 c 0,22,23
776 182 m 0,34,35
 776 44 776 44 862 44 c 0,36,37
 929 44 929 44 982 138 c 128,-1,38
 1035 232 1035 232 1035 348 c 0,39,40
 1035 490 1035 490 948 490 c 0,41,42
 880 490 880 490 828 395.5 c 128,-1,43
 776 301 776 301 776 182 c 0,34,35
131 -27 m 1,44,-1
 1111 1093 l 1,45,-1
 1206 1093 l 1,46,-1
 225 -27 l 1,47,-1
 131 -27 l 1,44,-1
1376 0 m 0,48,49
 1294 0 1294 0 1244.5 51.5 c 128,-1,50
 1195 103 1195 103 1195 189 c 0,51,52
 1195 331 1195 331 1276.5 432 c 128,-1,53
 1358 533 1358 533 1473 533 c 0,54,55
 1557 533 1557 533 1607.5 481.5 c 128,-1,56
 1658 430 1658 430 1658 344 c 0,57,58
 1658 200 1658 200 1575.5 100 c 128,-1,59
 1493 0 1493 0 1376 0 c 0,48,49
1301 183 m 0,60,61
 1301 44 1301 44 1389 44 c 0,62,63
 1453 44 1453 44 1507 138 c 128,-1,64
 1561 232 1561 232 1561 347 c 0,65,66
 1561 490 1561 490 1473 490 c 0,67,68
 1406 490 1406 490 1353.5 395.5 c 128,-1,69
 1301 301 1301 301 1301 183 c 0,60,61
EndSplineSet
EndChar

StartChar: multiply
Encoding: 215 215 60
Width: 780
Flags: W
LayerCount: 2
Fore
SplineSet
387 295 m 1,0,-1
 203 113 l 2,1,2
 188 98 188 98 172 98 c 128,-1,3
 156 98 156 98 145 106 c 2,4,-1
 106 150 l 2,5,6
 96 156 96 156 96 174.5 c 128,-1,7
 96 193 96 193 109 205 c 2,8,-1
 293 389 l 1,9,-1
 106 573 l 2,10,11
 94 590 94 590 93 607.5 c 128,-1,12
 92 625 92 625 102 631 c 2,13,-1
 141 674 l 2,14,15
 152 684 152 684 168 682 c 128,-1,16
 184 680 184 680 199 670 c 2,17,-1
 387 479 l 1,18,-1
 580 674 l 2,19,20
 592 686 592 686 608.5 686 c 128,-1,21
 625 686 625 686 635 676 c 2,22,-1
 674 637 l 2,23,24
 684 627 684 627 685 610.5 c 128,-1,25
 686 594 686 594 672 580 c 2,26,-1
 477 387 l 1,27,-1
 668 201 l 2,28,29
 678 188 678 188 679 171 c 128,-1,30
 680 154 680 154 672 143 c 2,31,-1
 631 102 l 2,32,33
 623 92 623 92 605.5 93 c 128,-1,34
 588 94 588 94 571 106 c 2,35,-1
 387 295 l 1,0,-1
EndSplineSet
EndChar

StartChar: macron
Encoding: 175 175 61
Width: 1118
Flags: W
LayerCount: 2
Fore
SplineSet
1134 1259 m 1,0,-1
 -16 1259 l 1,1,-1
 -16 1389 l 1,2,-1
 1134 1389 l 1,3,-1
 1134 1259 l 1,0,-1
EndSplineSet
EndChar

StartChar: periodcentered
Encoding: 183 183 62
Width: 724
Flags: W
LayerCount: 2
Fore
SplineSet
482 832 m 1,0,-1
 243 832 l 1,1,-1
 243 1117 l 1,2,-1
 482 1117 l 1,3,-1
 482 832 l 1,0,-1
EndSplineSet
EndChar

StartChar: H22073
Encoding: 9633 9633 63
Width: 1237
Flags: W
LayerCount: 2
Fore
SplineSet
146 944 m 1,0,-1
 1090 944 l 1,1,-1
 1090 0 l 1,2,-1
 146 0 l 1,3,-1
 146 944 l 1,0,-1
222 868 m 1,4,-1
 222 76 l 1,5,-1
 1014 76 l 1,6,-1
 1014 868 l 1,7,-1
 222 868 l 1,4,-1
EndSplineSet
EndChar

StartChar: H18543
Encoding: 9642 9642 64
Width: 1089
Flags: W
LayerCount: 2
Fore
SplineSet
886 894 m 1,0,-1
 886 200 l 1,1,-1
 192 200 l 1,2,-1
 192 894 l 1,3,-1
 886 894 l 1,0,-1
EndSplineSet
EndChar

StartChar: H18551
Encoding: 9643 9643 65
Width: 1089
Flags: W
LayerCount: 2
Fore
SplineSet
888 930 m 1,0,-1
 888 235 l 1,1,-1
 193 235 l 1,2,-1
 193 930 l 1,3,-1
 888 930 l 1,0,-1
774 816 m 1,4,-1
 307 816 l 1,5,-1
 307 349 l 1,6,-1
 774 349 l 1,7,-1
 774 816 l 1,4,-1
EndSplineSet
EndChar

StartChar: H18533
Encoding: 9679 9679 66
Width: 1339
Flags: W
LayerCount: 2
Fore
SplineSet
204 775 m 0,0,1
 204 976 204 976 345 1117 c 128,-1,2
 486 1258 486 1258 685 1258 c 0,3,4
 885 1258 885 1258 1026 1117 c 128,-1,5
 1167 976 1167 976 1167 775 c 0,6,7
 1167 577 1167 577 1026 436 c 128,-1,8
 885 295 885 295 685 295 c 0,9,10
 486 295 486 295 345 436 c 128,-1,11
 204 577 204 577 204 775 c 0,0,1
EndSplineSet
EndChar

StartChar: openbullet
Encoding: 9702 9702 67
Width: 1089
Flags: W
LayerCount: 2
Fore
SplineSet
544 1392 m 0,0,1
 700 1392 700 1392 810.5 1281.5 c 128,-1,2
 921 1171 921 1171 921 1015 c 256,3,4
 921 859 921 859 810.5 749 c 128,-1,5
 700 639 700 639 544 639 c 256,6,7
 388 639 388 639 278 749 c 128,-1,8
 168 859 168 859 168 1015 c 256,9,10
 168 1171 168 1171 277.5 1281.5 c 128,-1,11
 387 1392 387 1392 544 1392 c 0,0,1
544 1278 m 0,12,13
 435 1278 435 1278 358.5 1200.5 c 128,-1,14
 282 1123 282 1123 282 1015 c 0,15,16
 282 906 282 906 359 829.5 c 128,-1,17
 436 753 436 753 544 753 c 256,18,19
 652 753 652 753 729.5 829.5 c 128,-1,20
 807 906 807 906 807 1015 c 0,21,22
 807 1123 807 1123 730.5 1200.5 c 128,-1,23
 654 1278 654 1278 544 1278 c 0,12,13
EndSplineSet
EndChar

StartChar: uniFFFC
Encoding: 65532 65532 68
Width: 2048
Flags: W
LayerCount: 2
Fore
SplineSet
2048 1150 m 1,0,-1
 1948 1150 l 1,1,-1
 1948 1373 l 1,2,-1
 1725 1373 l 1,3,-1
 1725 1473 l 1,4,-1
 2048 1473 l 1,5,-1
 2048 1150 l 1,0,-1
1473 1373 m 1,6,-1
 1150 1373 l 1,7,-1
 1150 1473 l 1,8,-1
 1473 1473 l 1,9,-1
 1473 1373 l 1,6,-1
2048 575 m 1,10,-1
 1948 575 l 1,11,-1
 1948 898 l 1,12,-1
 2048 898 l 1,13,-1
 2048 575 l 1,10,-1
1782 611 m 2,14,15
 1782 370 1782 370 1571 370 c 0,16,17
 1485 370 1485 370 1433 415 c 1,18,-1
 1506 494 l 1,19,20
 1531 468 1531 468 1571 468 c 0,21,22
 1666 468 1666 468 1666 606 c 2,23,-1
 1666 1090 l 1,24,-1
 1782 1090 l 1,25,-1
 1782 611 l 2,14,15
898 1373 m 1,26,-1
 575 1373 l 1,27,-1
 575 1473 l 1,28,-1
 898 1473 l 1,29,-1
 898 1373 l 1,26,-1
2048 0 m 1,30,-1
 1725 0 l 1,31,-1
 1725 100 l 1,32,-1
 1948 100 l 1,33,-1
 1948 323 l 1,34,-1
 2048 323 l 1,35,-1
 2048 0 l 1,30,-1
1423 591 m 0,36,37
 1423 382 1423 382 1149 382 c 2,38,-1
 909 382 l 1,39,-1
 909 1090 l 1,40,-1
 1144 1090 l 2,41,42
 1393 1090 1393 1090 1393 904 c 0,43,44
 1393 813 1393 813 1304 759 c 1,45,46
 1423 713 1423 713 1423 591 c 0,36,37
323 1373 m 1,47,-1
 100 1373 l 1,48,-1
 100 1150 l 1,49,-1
 0 1150 l 1,50,-1
 0 1473 l 1,51,-1
 323 1473 l 1,52,-1
 323 1373 l 1,47,-1
1473 0 m 1,53,-1
 1150 0 l 1,54,-1
 1150 100 l 1,55,-1
 1473 100 l 1,56,-1
 1473 0 l 1,53,-1
854 735 m 0,57,58
 854 562 854 562 772 466 c 128,-1,59
 690 370 690 370 537 370 c 256,60,61
 384 370 384 370 303.5 466 c 128,-1,62
 223 562 223 562 223 735 c 0,63,64
 223 910 223 910 303.5 1006 c 128,-1,65
 384 1102 384 1102 537 1102 c 256,66,67
 690 1102 690 1102 772 1006 c 128,-1,68
 854 910 854 910 854 735 c 0,57,58
100 575 m 1,69,-1
 0 575 l 1,70,-1
 0 898 l 1,71,-1
 100 898 l 1,72,-1
 100 575 l 1,69,-1
898 0 m 1,73,-1
 575 0 l 1,74,-1
 575 100 l 1,75,-1
 898 100 l 1,76,-1
 898 0 l 1,73,-1
323 0 m 1,77,-1
 0 0 l 1,78,-1
 0 323 l 1,79,-1
 100 323 l 1,80,-1
 100 100 l 1,81,-1
 323 100 l 1,82,-1
 323 0 l 1,77,-1
1277 893 m 0,83,84
 1277 992 1277 992 1114 992 c 2,85,-1
 1025 992 l 1,86,-1
 1025 798 l 1,87,-1
 1126 798 l 2,88,89
 1277 798 1277 798 1277 893 c 0,83,84
1307 591 m 0,90,91
 1307 700 1307 700 1136 700 c 2,92,-1
 1025 700 l 1,93,-1
 1025 480 l 1,94,-1
 1149 480 l 2,95,96
 1307 480 1307 480 1307 591 c 0,90,91
738 735 m 0,97,98
 738 1004 738 1004 537 1004 c 0,99,100
 339 1004 339 1004 339 735 c 0,101,102
 339 468 339 468 537 468 c 0,103,104
 738 468 738 468 738 735 c 0,97,98
EndSplineSet
EndChar

StartChar: zerowidthnonjoiner
Encoding: 8204 8204 88
Width: 0
GlyphClass: 2
Flags: W
LayerCount: 2
Fore
SplineSet
36 1289 m 1,0,-1
 36 -275 l 1,1,-1
 -36 -275 l 1,2,-1
 -36 1289 l 1,3,-1
 36 1289 l 1,0,-1
EndSplineSet
EndChar

StartChar: zerowidthjoiner
Encoding: 8205 8205 89
Width: 0
GlyphClass: 2
Flags: W
LayerCount: 2
Fore
SplineSet
36 -275 m 1,0,-1
 -36 -275 l 1,1,-1
 -36 1114 l 1,2,-1
 -170 978 l 1,3,-1
 -219 1027 l 1,4,-1
 -48 1196 l 1,5,-1
 -219 1364 l 1,6,-1
 -170 1413 l 1,7,-1
 0 1242 l 1,8,-1
 170 1413 l 1,9,-1
 219 1364 l 1,10,-1
 48 1196 l 1,11,-1
 219 1027 l 1,12,-1
 170 978 l 1,13,-1
 36 1114 l 1,14,-1
 36 -275 l 1,0,-1
EndSplineSet
EndChar

StartChar: lefttorightmark
Encoding: 8206 8206 90
Width: 0
GlyphClass: 2
Flags: W
LayerCount: 2
Fore
SplineSet
430 1198 m 1,0,-1
 213 984 l 1,1,-1
 164 1033 l 1,2,-1
 301 1163 l 1,3,-1
 35 1163 l 1,4,-1
 35 -275 l 1,5,-1
 -36 -275 l 1,6,-1
 -36 1234 l 1,7,-1
 301 1234 l 1,8,-1
 164 1364 l 1,9,-1
 213 1413 l 1,10,-1
 430 1198 l 1,0,-1
EndSplineSet
EndChar

StartChar: righttoleftmark
Encoding: 8207 8207 91
Width: 0
GlyphClass: 2
Flags: W
LayerCount: 2
Fore
SplineSet
35 -275 m 1,0,-1
 -36 -275 l 1,1,-1
 -36 1163 l 1,2,-1
 -302 1163 l 1,3,-1
 -165 1033 l 1,4,-1
 -214 984 l 1,5,-1
 -431 1198 l 1,6,-1
 -214 1413 l 1,7,-1
 -165 1364 l 1,8,-1
 -302 1234 l 1,9,-1
 35 1234 l 1,10,-1
 35 -275 l 1,0,-1
EndSplineSet
EndChar

StartChar: afii57388.001
Encoding: 1644 1644 92
Width: 353
GlyphClass: 2
Flags: W
LayerCount: 2
Fore
SplineSet
210 654 m 0,0,1
 200 627 200 627 185 603 c 0,2,3
 180 597 180 597 173.5 593.5 c 128,-1,4
 167 590 167 590 162 590 c 128,-1,5
 157 590 157 590 154.5 593 c 128,-1,6
 152 596 152 596 155 603 c 0,7,8
 187 660 187 660 202.5 713.5 c 128,-1,9
 218 767 218 767 218 800 c 1,10,11
 194 806 194 806 179 816 c 128,-1,12
 164 826 164 826 155 837.5 c 128,-1,13
 146 849 146 849 143 859 c 128,-1,14
 140 869 140 869 140 874 c 0,15,16
 140 890 140 890 145.5 907 c 128,-1,17
 151 924 151 924 160.5 937.5 c 128,-1,18
 170 951 170 951 183.5 959.5 c 128,-1,19
 197 968 197 968 213 968 c 0,20,21
 272 968 272 968 272 874 c 0,22,23
 272 859 272 859 268 835 c 128,-1,24
 264 811 264 811 256 781.5 c 128,-1,25
 248 752 248 752 236.5 719.5 c 128,-1,26
 225 687 225 687 210 654 c 0,0,1
EndSplineSet
EndChar

StartChar: afii57409
Encoding: 1569 1569 93
Width: 751
GlyphClass: 2
Flags: W
AnchorPoint: "Anchor-3" 375 -315 basechar 0
AnchorPoint: "Anchor-2" 465 795 basechar 0
LayerCount: 2
Fore
SplineSet
694 312 m 1,0,-1
 657 164 l 1,1,2
 573 149 573 149 422 94 c 0,3,4
 258 35 258 35 174 -15 c 1,5,-1
 174 78 l 1,6,7
 219 125 219 125 308 180 c 1,8,9
 184 235 184 235 184 314 c 0,10,11
 184 399 184 399 286.5 498 c 128,-1,12
 389 597 389 597 475 597 c 0,13,14
 525 597 525 597 569 575 c 0,15,16
 623 548 623 548 623 502 c 0,17,18
 623 439 623 439 575 439 c 0,19,20
 552 439 552 439 507.5 452 c 128,-1,21
 463 465 463 465 438 465 c 0,22,23
 406 465 406 465 365 435 c 128,-1,24
 324 405 324 405 324 375 c 0,25,26
 324 348 324 348 370 310 c 0,27,28
 425 264 425 264 493 264 c 0,29,30
 541 264 541 264 694 312 c 1,0,-1
EndSplineSet
EndChar

StartChar: afii57440
Encoding: 1600 1600 94
Width: 778
GlyphClass: 2
Flags: W
LayerCount: 2
Fore
SplineSet
788 0 m 1,0,-1
 -28 0 l 1,1,-1
 -28 305 l 1,2,-1
 788 305 l 1,3,-1
 788 0 l 1,0,-1
EndSplineSet
EndChar

StartChar: afii57453
Encoding: 1613 1613 95
Width: 0
GlyphClass: 4
Flags: W
AnchorPoint: "Anchor-3" 0 0 mark 0
AnchorPoint: "Anchor-1" 0 0 mark 0
LayerCount: 2
Fore
SplineSet
171 11 m 1,0,-1
 -197 -160 l 1,1,-1
 -174 -61 l 1,2,-1
 194 109 l 1,3,-1
 171 11 l 1,0,-1
181 172 m 1,4,-1
 -187 1 l 1,5,-1
 -164 100 l 1,6,-1
 204 270 l 1,7,-1
 181 172 l 1,4,-1
EndSplineSet
EndChar

StartChar: afii57381
Encoding: 1642 1642 96
Width: 1031
GlyphClass: 2
Flags: W
LayerCount: 2
Fore
SplineSet
329 1041 m 0,0,1
 329 997 329 997 299.5 968 c 128,-1,2
 270 939 270 939 226 939 c 0,3,4
 183 939 183 939 153 968.5 c 128,-1,5
 123 998 123 998 123 1041 c 0,6,7
 123 1083 123 1083 153.5 1113 c 128,-1,8
 184 1143 184 1143 226 1143 c 0,9,10
 269 1143 269 1143 299 1113.5 c 128,-1,11
 329 1084 329 1084 329 1041 c 0,0,1
821 1259 m 1,12,-1
 343 -101 l 1,13,-1
 245 -100 l 1,14,-1
 726 1261 l 1,15,-1
 821 1259 l 1,12,-1
918 88 m 0,16,17
 918 45 918 45 888.5 15 c 128,-1,18
 859 -15 859 -15 816 -15 c 0,19,20
 771 -15 771 -15 742 14 c 128,-1,21
 713 43 713 43 713 88 c 0,22,23
 713 131 713 131 743 160.5 c 128,-1,24
 773 190 773 190 816 190 c 0,25,26
 858 190 858 190 888 160 c 128,-1,27
 918 130 918 130 918 88 c 0,16,17
EndSplineSet
EndChar

StartChar: afii57461
Encoding: 1643 1643 97
Width: 536
GlyphClass: 2
Flags: W
LayerCount: 2
Fore
SplineSet
518 521 m 1,0,-1
 115 -382 l 1,1,-1
 19 -352 l 1,2,-1
 425 551 l 1,3,-1
 518 521 l 1,0,-1
EndSplineSet
EndChar

StartChar: afii63167
Encoding: 1645 1645 98
Width: 1118
GlyphClass: 2
Flags: W
LayerCount: 2
Fore
SplineSet
694 729 m 1,0,-1
 1057 733 l 1,1,-1
 1057 610 l 1,2,-1
 702 612 l 1,3,-1
 971 352 l 1,4,-1
 883 264 l 1,5,-1
 616 539 l 1,6,-1
 623 168 l 1,7,-1
 498 168 l 1,8,-1
 502 539 l 1,9,-1
 236 264 l 1,10,-1
 147 352 l 1,11,-1
 422 614 l 1,12,-1
 63 610 l 1,13,-1
 63 733 l 1,14,-1
 420 729 l 1,15,-1
 170 975 l 1,16,-1
 258 1065 l 1,17,-1
 502 817 l 1,18,-1
 498 1176 l 1,19,-1
 623 1176 l 1,20,-1
 616 813 l 1,21,-1
 860 1065 l 1,22,-1
 948 975 l 1,23,-1
 694 729 l 1,0,-1
EndSplineSet
EndChar

StartChar: afii57459
Encoding: 65543 -1 99
Width: 624
GlyphClass: 2
Flags: W
LayerCount: 2
Fore
SplineSet
622 530 m 0,0,1
 622 277 622 277 495 140 c 0,2,3
 363 0 363 0 112 0 c 2,4,-1
 -28 0 l 1,5,-1
 -28 305 l 1,6,-1
 204 305 l 2,7,8
 284 305 284 305 373 327 c 0,9,10
 497 358 497 358 497 415 c 1,11,12
 349 399 349 399 288 399 c 0,13,14
 43 399 43 399 43 564 c 0,15,16
 43 688 43 688 103 826 c 0,17,18
 180 1003 180 1003 304 1003 c 0,19,20
 431 1003 431 1003 520 890 c 0,21,22
 622 761 622 761 622 530 c 0,0,1
EndSplineSet
EndChar

StartChar: afii57543
Encoding: 65544 -1 100
Width: 556
Flags: W
LayerCount: 2
Fore
SplineSet
584 0 m 1,0,-1
 509 0 l 2,1,2
 339 0 339 0 276 193 c 1,3,4
 219 0 219 0 58 0 c 2,5,-1
 -28 0 l 1,6,-1
 -28 305 l 1,7,-1
 27 305 l 2,8,9
 187 305 187 305 231 515 c 0,10,11
 245 582 245 582 281 582 c 256,12,13
 317 582 317 582 325 515 c 0,14,15
 349 305 349 305 509 305 c 2,16,-1
 584 305 l 1,17,-1
 584 0 l 1,0,-1
EndSplineSet
EndChar

StartChar: afii57534
Encoding: 1749 1749 101
Width: 727
GlyphClass: 2
Flags: W
LayerCount: 2
Fore
SplineSet
724 436 m 0,0,1
 724 259 724 259 612 129 c 0,2,3
 494 -7 494 -7 320 -7 c 0,4,5
 7 -7 7 -7 7 276 c 0,6,7
 7 453 7 453 99 656 c 0,8,9
 185 846 185 846 241 846 c 0,10,11
 345 846 345 846 522 722 c 0,12,13
 724 580 724 580 724 436 c 0,0,1
EndSplineSet
EndChar

StartChar: afii64240
Encoding: 65546 -1 103
Width: 374
Flags: W
LayerCount: 2
Fore
SplineSet
334 155 m 2,0,1
 347 143 347 143 333 129 c 2,2,-1
 208 5 l 2,3,4
 195 -8 195 -8 181 5 c 2,5,-1
 55 127 l 2,6,7
 40 142 40 142 58 160 c 2,8,-1
 174 278 l 2,9,10
 190 294 190 294 206 278 c 2,11,-1
 334 155 l 2,0,1
EndSplineSet
EndChar

StartChar: afii64241
Encoding: 65547 -1 104
Width: 600
Flags: W
LayerCount: 2
Fore
SplineSet
536 171 m 2,0,1
 548 159 548 159 535 146 c 2,2,-1
 419 30 l 2,3,4
 407 18 407 18 394 30 c 2,5,-1
 281 143 l 1,6,-1
 169 30 l 2,7,8
 157 18 157 18 144 30 c 2,9,-1
 26 145 l 2,10,11
 12 158 12 158 29 175 c 2,12,-1
 137 285 l 2,13,14
 151 300 151 300 166 285 c 2,15,-1
 276 175 l 1,16,-1
 386 285 l 2,17,18
 401 300 401 300 416 285 c 2,19,-1
 536 171 l 2,0,1
EndSplineSet
EndChar

StartChar: afii63954
Encoding: 65548 -1 105
Width: 611
Flags: W
LayerCount: 2
Fore
SplineSet
437 369 m 2,0,1
 449 358 449 358 436 345 c 2,2,-1
 322 230 l 2,3,4
 309 217 309 217 296 230 c 2,5,-1
 180 343 l 2,6,7
 166 356 166 356 183 373 c 2,8,-1
 290 482 l 2,9,10
 304 496 304 496 319 482 c 2,11,-1
 437 369 l 2,0,1
559 139 m 2,12,13
 571 128 571 128 558 115 c 2,14,-1
 442 -1 l 2,15,16
 430 -13 430 -13 417 -1 c 2,17,-1
 304 111 l 1,18,-1
 192 -1 l 2,19,20
 180 -13 180 -13 167 -1 c 2,21,-1
 49 113 l 2,22,23
 35 127 35 127 52 144 c 2,24,-1
 160 254 l 2,25,26
 174 269 174 269 189 254 c 2,27,-1
 299 144 l 1,28,-1
 409 254 l 2,29,30
 424 269 424 269 439 254 c 2,31,-1
 559 139 l 2,12,13
EndSplineSet
EndChar

StartChar: afii57382
Encoding: 65549 -1 106
Width: 616
Flags: W
LayerCount: 2
Fore
SplineSet
319 -499 m 2,0,1
 304 -513 304 -513 290 -499 c 2,2,-1
 183 -390 l 2,3,4
 166 -373 166 -373 180 -360 c 2,5,-1
 296 -247 l 2,6,7
 309 -234 309 -234 322 -247 c 2,8,-1
 436 -362 l 2,9,10
 449 -375 449 -375 437 -386 c 2,11,-1
 319 -499 l 2,0,1
439 -271 m 2,12,13
 424 -286 424 -286 409 -271 c 2,14,-1
 299 -161 l 1,15,-1
 189 -271 l 2,16,17
 174 -286 174 -286 160 -271 c 2,18,-1
 52 -161 l 2,19,20
 35 -144 35 -144 49 -130 c 2,21,-1
 167 -16 l 2,22,23
 180 -4 180 -4 192 -16 c 2,24,-1
 304 -128 l 1,25,-1
 417 -16 l 2,26,27
 430 -4 430 -4 442 -16 c 2,28,-1
 558 -132 l 2,29,30
 571 -145 571 -145 559 -156 c 2,31,-1
 439 -271 l 2,12,13
EndSplineSet
EndChar

StartChar: afii64242
Encoding: 65550 -1 107
Width: 417
Flags: W
LayerCount: 2
Fore
SplineSet
377 434 m 0,0,1
 377 279 377 279 305 156 c 0,2,3
 214 0 214 0 46 0 c 2,4,-1
 -28 0 l 1,5,-1
 -28 305 l 1,6,-1
 34 305 l 2,7,8
 232 305 232 305 232 363 c 0,9,10
 232 414 232 414 54 578 c 1,11,-1
 197 798 l 2,12,13
 209 816 209 816 225 803 c 0,14,15
 307 736 307 736 348 606 c 0,16,17
 377 514 377 514 377 434 c 0,0,1
EndSplineSet
EndChar

StartChar: afii57373
Encoding: 65551 -1 112
Width: 454
Flags: W
LayerCount: 2
Fore
SplineSet
388 1334 m 1,0,1
 389 1330 389 1330 389.5 1325.5 c 128,-1,2
 390 1321 390 1321 390 1314 c 0,3,4
 390 1289 390 1289 385 1265 c 128,-1,5
 380 1241 380 1241 376 1236 c 0,6,7
 236 1200 236 1200 25 1107 c 1,8,-1
 24 1181 l 1,9,10
 41 1190 41 1190 64.5 1202 c 128,-1,11
 88 1214 88 1214 118 1230 c 1,12,13
 106 1235 106 1235 92 1247 c 128,-1,14
 78 1259 78 1259 66.5 1274.5 c 128,-1,15
 55 1290 55 1290 47.5 1306.5 c 128,-1,16
 40 1323 40 1323 40 1336 c 0,17,18
 40 1393 40 1393 109 1459 c 0,19,20
 177 1524 177 1524 236 1524 c 0,21,22
 251 1524 251 1524 270 1517 c 128,-1,23
 289 1510 289 1510 305.5 1498.5 c 128,-1,24
 322 1487 322 1487 333.5 1474 c 128,-1,25
 345 1461 345 1461 345 1449 c 0,26,27
 345 1408 345 1408 314 1408 c 0,28,29
 309 1408 309 1408 296.5 1412 c 128,-1,30
 284 1416 284 1416 269 1421.5 c 128,-1,31
 254 1427 254 1427 239 1431 c 128,-1,32
 224 1435 224 1435 214 1435 c 0,33,34
 201 1435 201 1435 186 1431 c 128,-1,35
 171 1427 171 1427 158.5 1420 c 128,-1,36
 146 1413 146 1413 138 1404 c 128,-1,37
 130 1395 130 1395 130 1385 c 0,38,39
 130 1367 130 1367 140 1351 c 128,-1,40
 150 1335 150 1335 165.5 1322.5 c 128,-1,41
 181 1310 181 1310 200 1302.5 c 128,-1,42
 219 1295 219 1295 236 1295 c 0,43,44
 261 1295 261 1295 298.5 1306.5 c 128,-1,45
 336 1318 336 1318 388 1334 c 1,0,1
EndSplineSet
EndChar

StartChar: afii57374
Encoding: 65552 -1 113
Width: 803
GlyphClass: 2
Flags: W
LayerCount: 2
Fore
SplineSet
556 305 m 1,0,-1
 919 305 l 1,1,-1
 927 297 l 1,2,-1
 929 8 l 1,3,-1
 921 0 l 1,4,-1
 641 0 l 2,5,6
 449 0 449 0 353 102 c 1,7,8
 227 0 227 0 69 0 c 2,9,-1
 -28 0 l 1,10,-1
 -28 305 l 1,11,-1
 134 305 l 1,12,13
 57 365 57 365 57 435 c 0,14,15
 57 531 57 531 172 657 c 0,16,17
 295 792 295 792 417 792 c 0,18,19
 481 792 481 792 549 731 c 0,20,21
 635 653 635 653 635 530 c 0,22,23
 635 378 635 378 556 305 c 1,0,-1
EndSplineSet
EndChar

StartChar: afii57375
Encoding: 1619 1619 114
Width: 867
GlyphClass: 2
Flags: W
LayerCount: 2
Fore
SplineSet
835 1478 m 0,0,1
 767 1408 767 1408 623 1358 c 0,2,3
 488 1312 488 1312 381 1312 c 0,4,5
 342 1312 342 1312 265.5 1325 c 128,-1,6
 189 1338 189 1338 150 1338 c 0,7,8
 129 1338 129 1338 100 1315.5 c 128,-1,9
 71 1293 71 1293 55 1293 c 0,10,11
 34 1293 34 1293 34 1319 c 0,12,13
 34 1356 34 1356 74 1429 c 0,14,15
 123 1518 123 1518 219 1518 c 0,16,17
 257 1518 257 1518 339 1499.5 c 128,-1,18
 421 1481 421 1481 463 1481 c 0,19,20
 661 1481 661 1481 818 1516 c 0,21,22
 850 1523 850 1523 850 1505 c 0,23,24
 850 1493 850 1493 835 1478 c 0,0,1
EndSplineSet
EndChar

StartChar: afii57391
Encoding: 59450 59450 115
Width: 1024
GlyphClass: 2
Flags: W
LayerCount: 2
Fore
SplineSet
1024 0 m 1,0,-1
 -70 0 l 1,1,-1
 -70 188 l 1,2,-1
 1024 188 l 1,3,-1
 1024 0 l 1,0,-1
EndSplineSet
EndChar

StartChar: afii57471
Encoding: 65553 -1 116
Width: 1746
Flags: W
LayerCount: 2
Fore
SplineSet
1588 501 m 1,0,1
 1620 490 1620 490 1620 457 c 1,2,-1
 1600 369 l 1,3,4
 1600 305 1600 305 1768 305 c 1,5,-1
 1772 301 l 1,6,-1
 1772 9 l 1,7,-1
 1764 1 l 1,8,-1
 1732 1 l 2,9,10
 1570 1 1570 1 1504 181 c 1,11,-1
 1500 181 l 1,12,13
 1404 68 1404 68 1176 17 c 1,14,15
 1036 -7 1036 -7 844 -15 c 1,16,-1
 844 -11 l 1,17,-1
 840 -15 l 1,18,-1
 836 -15 l 1,19,-1
 112 -11 l 1,20,-1
 112 -7 l 1,21,-1
 112 293 l 1,22,-1
 112 298 l 1,23,-1
 160 297 l 1,24,-1
 576 293 l 1,25,-1
 792 293 l 2,26,27
 1179 293 1179 293 1404 365 c 0,28,29
 1430 374 1430 374 1544 481 c 1,30,31
 1574 501 1574 501 1588 501 c 1,0,1
EndSplineSet
EndChar

StartChar: afii52258
Encoding: 65554 -1 117
Width: 1939
GlyphClass: 2
Flags: W
LayerCount: 2
Fore
SplineSet
1989 1 m 1,0,-1
 1754 1 l 2,1,2
 1676 1 1676 1 1584 35 c 0,3,4
 1506 64 1506 64 1466 97 c 1,5,6
 1107 -160 1107 -160 612 -160 c 0,7,8
 311 -160 311 -160 179 -88 c 0,9,10
 -4 12 -4 12 -4 282 c 0,11,12
 -4 420 -4 420 59 531 c 0,13,14
 72 554 72 554 96 554 c 0,15,16
 128 554 128 554 128 506 c 0,17,18
 128 489 128 489 123 456.5 c 128,-1,19
 118 424 118 424 118 407 c 0,20,21
 118 318 118 318 171 259 c 0,22,23
 278 141 278 141 646 141 c 0,24,25
 997 141 997 141 1270 251 c 1,26,27
 1236 274 1236 274 1203 326 c 0,28,29
 1164 388 1164 388 1164 443 c 0,30,31
 1164 534 1164 534 1276 657 c 0,32,33
 1395 787 1395 787 1504 787 c 0,34,35
 1607 787 1607 787 1674.5 712.5 c 128,-1,36
 1742 638 1742 638 1742 534 c 0,37,38
 1742 390 1742 390 1658 306 c 1,39,-1
 1987 306 l 1,40,-1
 1995 298 l 1,41,-1
 1997 9 l 1,42,-1
 1989 1 l 1,0,-1
EndSplineSet
EndChar

StartChar: afii62889
Encoding: 65555 -1 123
Width: 1462
Flags: W
LayerCount: 2
Fore
SplineSet
1221 305 m 1,0,-1
 1616 305 l 1,1,-1
 1624 297 l 1,2,-1
 1626 8 l 1,3,-1
 1618 0 l 1,4,-1
 1224 0 l 1,5,6
 1224 -186 1224 -186 1134 -334 c 0,7,8
 971 -601 971 -601 569 -601 c 0,9,10
 -15 -601 -15 -601 -15 -138 c 0,11,12
 -15 -69 -15 -69 14 31.5 c 128,-1,13
 43 132 43 132 79 193 c 0,14,15
 104 235 104 235 131 235 c 0,16,17
 160 235 160 235 160 198 c 0,18,19
 160 185 160 185 153 167 c 0,20,21
 117 72 117 72 117 -18 c 0,22,23
 117 -297 117 -297 533 -297 c 0,24,25
 849 -297 849 -297 1004 -191 c 0,26,27
 1120 -112 1120 -112 1120 -3 c 1,28,29
 872 -3 872 -3 789 17 c 0,30,31
 623 57 623 57 623 199 c 0,32,33
 623 330 623 330 709 519 c 0,34,35
 806 733 806 733 913 733 c 0,36,37
 1066 733 1066 733 1152 555 c 0,38,39
 1204 447 1204 447 1221 305 c 1,0,-1
EndSplineSet
EndChar

StartChar: afii62887
Encoding: 65556 -1 124
Width: 1670
Flags: W
LayerCount: 2
Fore
SplineSet
1485 916 m 0,0,1
 1586 864 1586 864 1646 704 c 0,2,3
 1669 649 1669 649 1669 579 c 2,4,-1
 1669 571 l 2,5,6
 1669 206 1669 206 1405 86 c 1,7,8
 1235 1 1235 1 870 1 c 2,9,-1
 123 1 l 1,10,-1
 122 0 l 1,11,-1
 122 301 l 1,12,-1
 123 302 l 1,13,-1
 844 299 l 2,14,15
 1329 299 1329 299 1499 392 c 1,16,17
 1524 415 1524 415 1524 437 c 0,18,19
 1524 488 1524 488 1343 627 c 1,20,-1
 1340 630 l 1,21,-1
 1340 633 l 1,22,23
 1478 916 1478 916 1485 916 c 0,0,1
EndSplineSet
EndChar

StartChar: afii62888
Encoding: 1697 1697 125
Width: 1539
GlyphClass: 2
Flags: W
LayerCount: 2
Fore
SplineSet
1538 548 m 2,0,-1
 1538 477 l 2,1,2
 1538 276 1538 276 1417 170 c 0,3,4
 1225 1 1225 1 712 1 c 0,5,6
 255 1 255 1 98 127 c 0,7,8
 -4 209 -4 209 -4 398 c 0,9,10
 -4 563 -4 563 55 685 c 0,11,12
 79 734 79 734 108 734 c 0,13,14
 135 734 135 734 135 694 c 0,15,16
 135 682 135 682 134 676 c 0,17,18
 121 600 121 600 121 579 c 0,19,20
 121 427 121 427 241 369 c 0,21,22
 373 305 373 305 736 305 c 0,23,24
 1045 305 1045 305 1158 316 c 0,25,26
 1415 341 1415 341 1415 428 c 1,27,28
 1273 410 1273 410 1201 410 c 0,29,30
 959 410 959 410 959 574 c 0,31,32
 959 699 959 699 1019 836 c 0,33,34
 1097 1013 1097 1013 1221 1013 c 0,35,36
 1384 1013 1384 1013 1469 854 c 0,37,38
 1536 728 1536 728 1537 553 c 1,39,40
 1537 555 1537 555 1538 548 c 2,0,-1
EndSplineSet
Substitution2: "'medi' Medial Forms in Arabic lookup 3 subtable" afii57374
Substitution2: "'fina' Terminal Forms in Arabic lookup 2 subtable" afii52258
Substitution2: "'init' Initial Forms in Arabic lookup 1 subtable" afii57459
EndChar

StartChar: afii57567
Encoding: 1705 1705 132
Width: 1623
GlyphClass: 2
Flags: W
AnchorPoint: "Anchor-3" 645 -465 basechar 0
AnchorPoint: "Anchor-2" 555 945 basechar 0
LayerCount: 2
Fore
SplineSet
1019 1 m 2,0,-1
 109 1 l 1,1,-1
 109 305 l 1,2,-1
 995 305 l 2,3,4
 1274 305 1274 305 1274 365 c 0,5,6
 1274 406 1274 406 1019 778 c 0,7,8
 1017 782 1017 782 1017 787 c 0,9,10
 1017 816 1017 816 1048 908 c 0,11,12
 1080 1005 1080 1005 1097 1011 c 2,13,-1
 1623 1192 l 1,14,-1
 1623 968 l 1,15,-1
 1248 838 l 1,16,17
 1421 578 1421 578 1421 421 c 0,18,19
 1421 255 1421 255 1340 144 c 0,20,21
 1236 1 1236 1 1019 1 c 2,0,-1
EndSplineSet
Substitution2: "'medi' Medial Forms in Arabic lookup 3 subtable" afii52306
Substitution2: "'fina' Terminal Forms in Arabic lookup 2 subtable" afii62964
Substitution2: "'init' Initial Forms in Arabic lookup 1 subtable" afii52305
EndChar

StartChar: afii62964
Encoding: 64399 64399 133
Width: 1902
GlyphClass: 2
Flags: W
AnchorPoint: "Anchor-3" 540 -510 basechar 0
AnchorPoint: "Anchor-2" 570 885 basechar 0
LayerCount: 2
Fore
SplineSet
983 0 m 2,0,-1
 105 0 l 1,1,-1
 105 304 l 1,2,-1
 959 304 l 2,3,4
 1238 304 1238 304 1238 364 c 0,5,6
 1238 405 1238 405 1004 747 c 0,7,8
 1002 751 1002 751 1002 762 c 0,9,10
 1002 796 1002 796 1023 896 c 0,11,12
 1046 1005 1046 1005 1061 1010 c 2,13,-1
 1617 1192 l 1,14,-1
 1617 970 l 1,15,-1
 1212 837 l 1,16,17
 1436 478 1436 478 1463 444 c 0,18,19
 1574 305 1574 305 1713 305 c 2,20,-1
 1929 305 l 1,21,-1
 1929 0 l 1,22,-1
 1787 0 l 2,23,24
 1607 0 1607 0 1508 59 c 0,25,26
 1427 107 1427 107 1343 239 c 1,27,28
 1305 105 1305 105 1212 49 c 0,29,30
 1130 0 1130 0 983 0 c 2,0,-1
EndSplineSet
EndChar

StartChar: afii52305
Encoding: 64400 64400 134
Width: 655
GlyphClass: 2
Flags: W
AnchorPoint: "Anchor-3" 210 -465 basechar 0
AnchorPoint: "Anchor-2" 195 1170 basechar 0
LayerCount: 2
Fore
SplineSet
655 975 m 1,0,-1
 257 837 l 1,1,2
 286 791 286 791 357 669 c 0,3,4
 430 539 430 539 430 420 c 0,5,6
 430 249 430 249 341 133 c 0,7,8
 239 0 239 0 56 0 c 2,9,-1
 -28 0 l 1,10,-1
 -28 305 l 1,11,-1
 4 305 l 2,12,13
 283 305 283 305 283 364 c 0,14,15
 283 405 283 405 28 777 c 0,16,17
 26 781 26 781 26 786 c 0,18,19
 26 811 26 811 58.5 908 c 128,-1,20
 91 1005 91 1005 106 1010 c 2,21,-1
 655 1199 l 1,22,-1
 655 975 l 1,0,-1
655 1199 m 1,23,-1
 655 975 l 1,24,-1
 655 1199 l 1,23,-1
EndSplineSet
EndChar

StartChar: afii52306
Encoding: 64401 64401 135
Width: 994
GlyphClass: 2
Flags: W
AnchorPoint: "Anchor-3" 360 -540 basechar 0
AnchorPoint: "Anchor-2" 255 1200 basechar 0
LayerCount: 2
Fore
SplineSet
723 991 m 1,0,-1
 255 837 l 1,1,2
 479 478 479 478 506 444 c 0,3,4
 617 305 617 305 757 305 c 2,5,-1
 1062 305 l 1,6,-1
 1067 297 l 1,7,-1
 1068 8 l 1,8,-1
 1063 0 l 1,9,-1
 830 0 l 2,10,11
 651 0 651 0 552 59 c 0,12,13
 470 107 470 107 386 239 c 1,14,15
 354 127 354 127 289 73 c 0,16,17
 201 0 201 0 26 0 c 2,18,-1
 -28 0 l 1,19,-1
 -28 305 l 1,20,-1
 2 305 l 2,21,22
 281 305 281 305 281 364 c 0,23,24
 281 405 281 405 47 747 c 0,25,26
 45 751 45 751 45 762 c 0,27,28
 45 796 45 796 66 896 c 0,29,30
 89 1005 89 1005 104 1010 c 2,31,-1
 723 1213 l 1,32,-1
 723 991 l 1,0,-1
EndSplineSet
EndChar

StartChar: afii57509
Encoding: 1711 1711 136
Width: 1686
GlyphClass: 2
Flags: W
AnchorPoint: "Anchor-3" 555 -495 basechar 0
AnchorPoint: "Anchor-2" 585 1050 basechar 0
LayerCount: 2
Fore
SplineSet
1024 305 m 2,0,1
 1303 305 1303 305 1303 357 c 0,2,3
 1303 398 1303 398 1048 685 c 0,4,5
 1046 689 1046 689 1046 701 c 0,6,7
 1046 732 1046 732 1065 815 c 0,8,9
 1086 906 1086 906 1102 910 c 2,10,-1
 1686 1063 l 1,11,-1
 1686 848 l 1,12,-1
 1277 745 l 1,13,14
 1304 711 1304 711 1371 619 c 0,15,16
 1443 515 1443 515 1443 399 c 0,17,18
 1443 1 1443 1 1058 1 c 2,19,-1
 546 1 l 1,20,-1
 518 1 l 1,21,-1
 100 1 l 1,22,-1
 100 305 l 1,23,-1
 1024 305 l 2,0,1
1686 1142 m 1,24,-1
 1108 984 l 2,25,26
 1103 983 1103 983 1103 992 c 0,27,28
 1103 1010 1103 1010 1118 1054 c 0,29,30
 1135 1102 1135 1102 1147 1105 c 2,31,-1
 1686 1251 l 1,32,-1
 1686 1142 l 1,24,-1
EndSplineSet
Substitution2: "'medi' Medial Forms in Arabic lookup 3 subtable" afii62966
Substitution2: "'fina' Terminal Forms in Arabic lookup 2 subtable" afii62967
Substitution2: "'init' Initial Forms in Arabic lookup 1 subtable" afii62965
EndChar

StartChar: afii62967
Encoding: 64403 64403 137
Width: 1946
GlyphClass: 2
Flags: W
AnchorPoint: "Anchor-3" 660 -525 basechar 0
AnchorPoint: "Anchor-2" 570 945 basechar 0
LayerCount: 2
Fore
SplineSet
1036 0 m 2,0,-1
 524 0 l 1,1,-1
 494 0 l 1,2,-1
 120 0 l 1,3,-1
 120 304 l 1,4,-1
 476 304 l 1,5,-1
 476 305 l 1,6,-1
 491 305 l 2,7,8
 502 304 502 304 512 304 c 2,9,-1
 1002 304 l 2,10,11
 1281 304 1281 304 1281 356 c 0,12,13
 1281 397 1281 397 1026 684 c 0,14,15
 1024 688 1024 688 1024 700 c 0,16,17
 1024 731 1024 731 1043 814 c 0,18,19
 1064 905 1064 905 1080 909 c 2,20,-1
 1657 1058 l 1,21,-1
 1657 848 l 1,22,-1
 1255 744 l 1,23,-1
 1525 413 l 1,24,25
 1632 305 1632 305 1757 305 c 2,26,-1
 1974 305 l 1,27,-1
 1974 0 l 1,28,-1
 1784 0 l 2,29,30
 1526 0 1526 0 1384 247 c 1,31,32
 1337 125 1337 125 1283 76 c 0,33,34
 1200 0 1200 0 1036 0 c 2,0,-1
1657 1135 m 1,35,-1
 1086 974 l 2,36,37
 1081 972 1081 972 1081 982 c 0,38,39
 1081 999 1081 999 1097.5 1045.5 c 128,-1,40
 1114 1092 1114 1092 1125 1095 c 2,41,-1
 1657 1244 l 1,42,-1
 1657 1135 l 1,35,-1
EndSplineSet
EndChar

StartChar: afii62965
Encoding: 64404 64404 138
Width: 597
GlyphClass: 2
Flags: W
AnchorPoint: "Anchor-3" 150 -450 basechar 0
AnchorPoint: "Anchor-2" 210 1245 basechar 0
LayerCount: 2
Fore
SplineSet
603 1124 m 1,0,-1
 93 985 l 2,1,2
 88 984 88 984 88 993 c 0,3,4
 88 1011 88 1011 103 1055 c 0,5,6
 120 1103 120 1103 132 1106 c 2,7,-1
 603 1233 l 1,8,-1
 603 1124 l 1,0,-1
603 1233 m 1,9,-1
 603 1124 l 1,10,-1
 603 1233 l 1,9,-1
603 831 m 1,11,-1
 263 746 l 1,12,13
 428 554 428 554 428 400 c 0,14,15
 428 0 428 0 43 0 c 2,16,-1
 -27 0 l 1,17,-1
 -27 305 l 1,18,-1
 9 305 l 2,19,20
 289 305 289 305 289 358 c 0,21,22
 289 398 289 398 34 686 c 0,23,24
 31 689 31 689 31 702 c 0,25,26
 31 734 31 734 50 816 c 0,27,28
 71 907 71 907 88 911 c 2,29,-1
 603 1046 l 1,30,-1
 603 831 l 1,11,-1
603 1046 m 1,31,-1
 603 831 l 1,32,-1
 603 1046 l 1,31,-1
EndSplineSet
EndChar

StartChar: afii62966
Encoding: 64405 64405 139
Width: 1105
GlyphClass: 2
Flags: W
AnchorPoint: "Anchor-3" 345 -540 basechar 0
AnchorPoint: "Anchor-2" 240 1305 basechar 0
LayerCount: 2
Fore
SplineSet
828 892 m 1,0,-1
 255 744 l 1,1,2
 502 436 502 436 525 413 c 0,3,4
 632 305 632 305 757 305 c 2,5,-1
 1149 305 l 1,6,-1
 1157 297 l 1,7,-1
 1159 8 l 1,8,-1
 1151 0 l 1,9,-1
 784 0 l 2,10,11
 525 0 525 0 384 247 c 1,12,13
 332 0 332 0 35 0 c 2,14,-1
 -28 0 l 1,15,-1
 -28 305 l 1,16,-1
 2 305 l 2,17,18
 281 305 281 305 281 356 c 0,19,20
 281 396 281 396 26 684 c 0,21,22
 23 687 23 687 23 700 c 0,23,24
 23 729 23 729 43 814 c 0,25,26
 64 905 64 905 80 909 c 2,27,-1
 828 1103 l 1,28,-1
 828 892 l 1,0,-1
828 1183 m 1,29,-1
 86 974 l 2,30,31
 81 972 81 972 81 982 c 0,32,33
 81 999 81 999 97.5 1045.5 c 128,-1,34
 114 1092 114 1092 125 1095 c 2,35,-1
 828 1292 l 1,36,-1
 828 1183 l 1,29,-1
EndSplineSet
EndChar

StartChar: afii57555
Encoding: 1740 1740 140
Width: 1436
GlyphClass: 2
Flags: W
AnchorPoint: "Anchor-3" 555 -870 basechar 0
AnchorPoint: "Anchor-2" 525 900 basechar 0
LayerCount: 2
Fore
SplineSet
1494 644 m 1,0,-1
 1483 609 l 2,1,2
 1483 617 1483 617 1385 642 c 0,3,4
 1239 678 1239 678 1179 678 c 0,5,6
 1011 678 1011 678 915 583 c 0,7,8
 848 517 848 517 848 462 c 0,9,10
 848 423 848 423 995 399 c 1,11,12
 1085 389 1085 389 1175 378 c 0,13,14
 1293 361 1293 361 1344 334 c 0,15,16
 1439 284 1439 284 1439 168 c 0,17,18
 1439 -41 1439 -41 1376 -134 c 0,19,20
 1190 -408 1190 -408 596 -408 c 0,21,22
 349 -408 349 -408 193 -318 c 0,23,24
 -1 -206 -1 -206 -1 23 c 0,25,26
 -1 118 -1 118 45 290 c 0,27,28
 101 500 101 500 169 500 c 0,29,30
 195 500 195 500 195 463 c 0,31,32
 195 445 195 445 187 422 c 0,33,34
 152 319 152 319 152 205 c 0,35,36
 152 10 152 10 365 -67 c 0,37,38
 520 -123 520 -123 812 -123 c 0,39,40
 1019 -123 1019 -123 1172 -89 c 0,41,42
 1353 -49 1353 -49 1353 25 c 0,43,44
 1353 63 1353 63 1231 80 c 0,45,46
 1160 89 1160 89 976 113 c 0,47,48
 819 134 819 134 768 166 c 0,49,50
 699 210 699 210 699 330 c 0,51,52
 699 396 699 396 761 531 c 0,53,54
 834 690 834 690 934 793 c 0,55,56
 1060 923 1060 923 1197 923 c 0,57,58
 1317 923 1317 923 1412 814 c 0,59,60
 1494 720 1494 720 1494 644 c 1,0,-1
EndSplineSet
Substitution2: "'medi' Medial Forms in Arabic lookup 3 subtable" afii62832
Substitution2: "'fina' Terminal Forms in Arabic lookup 2 subtable" afii52364
Substitution2: "'init' Initial Forms in Arabic lookup 1 subtable" uniFBFE
EndChar

StartChar: afii52364
Encoding: 64509 64509 141
Width: 1000
GlyphClass: 2
Flags: W
AnchorPoint: "Anchor-3" 420 -735 basechar 0
AnchorPoint: "Anchor-2" 570 615 basechar 0
LayerCount: 2
Fore
SplineSet
766 -264 m 1,0,-1
 243 -264 l 2,1,2
 1 -264 1 -264 1 -125 c 0,3,4
 1 5 1 5 177 148 c 0,5,6
 371 305 371 305 686 305 c 2,7,-1
 1025 305 l 1,8,-1
 1025 0 l 1,9,-1
 341 0 l 2,10,11
 135 0 135 0 135 -53 c 0,12,13
 135 -98 135 -98 341 -98 c 2,14,-1
 766 -98 l 1,15,-1
 766 -264 l 1,0,-1
EndSplineSet
EndChar

StartChar: afii62945
Encoding: 65557 -1 147
Width: 1640
GlyphClass: 3
Flags: W
LayerCount: 2
Fore
SplineSet
1634 349 m 0,0,1
 1634 136 1634 136 1514 47 c 0,2,3
 1436 -11 1436 -11 1319 -11 c 0,4,5
 1153 -11 1153 -11 1018 201 c 1,6,7
 956 0 956 0 730 0 c 0,8,9
 520 0 520 0 447 270 c 1,10,11
 409 231 409 231 346 182 c 1,12,13
 321 173 321 173 281 173 c 0,14,15
 185 173 185 173 101 216 c 0,16,17
 3 266 3 266 3 341 c 0,18,19
 3 434 3 434 103 509 c 0,20,21
 161 553 161 553 367 653 c 1,22,-1
 355 738 l 1,23,-1
 493 836 l 2,24,25
 525 859 525 859 536 859 c 0,26,27
 552 859 552 859 558 814 c 0,28,29
 567 746 567 746 590 570 c 0,30,31
 627 303 627 303 780 303 c 0,32,33
 919 303 919 303 919 438 c 0,34,35
 919 496 919 496 858 743 c 0,36,37
 848 784 848 784 993 880 c 0,38,39
 1026 902 1026 902 1032 872 c 0,40,41
 1088 598 1088 598 1158 428 c 0,42,43
 1211 298 1211 298 1323 298 c 0,44,45
 1453 298 1453 298 1453 430 c 0,46,47
 1453 514 1453 514 1352 857 c 1,48,-1
 1491 1005 l 2,49,50
 1501 1016 1501 1016 1509 1016 c 0,51,52
 1519 1016 1519 1016 1527 991 c 0,53,54
 1634 637 1634 637 1634 349 c 0,0,1
426 346 m 1,55,-1
 390 557 l 1,56,57
 301 529 301 529 233 482 c 0,58,59
 178 444 178 444 178 430 c 0,60,61
 178 404 178 404 239 378 c 0,62,63
 313 346 313 346 426 346 c 1,55,-1
EndSplineSet
EndChar

StartChar: afii64184
Encoding: 65010 65010 148
Width: 1681
GlyphClass: 3
Flags: W
AnchorPoint: "Anchor-1" 1455 -420 baselig 0
AnchorPoint: "Anchor-0" 1425 1110 baselig 0
AnchorPoint: "Anchor-1" 960 -390 baselig 1
AnchorPoint: "Anchor-0" 945 870 baselig 1
AnchorPoint: "Anchor-1" 330 -420 baselig 2
AnchorPoint: "Anchor-0" 195 915 baselig 2
LayerCount: 2
Fore
SplineSet
996 1326 m 0,0,1
 996 1290 996 1290 985 1245 c 0,2,3
 970 1184 970 1184 947 1184 c 0,4,5
 928 1184 928 1184 923 1223 c 0,6,7
 913 1296 913 1296 910 1307 c 0,8,9
 903 1331 903 1331 883 1375 c 0,10,11
 869 1406 869 1406 869 1428 c 0,12,13
 869 1451 869 1451 915 1466 c 0,14,15
 951 1478 951 1478 979 1478 c 1,16,17
 996 1423 996 1423 996 1326 c 0,0,1
1162 1054 m 0,18,19
 1162 998 1162 998 1126 953 c 0,20,21
 1088 905 1088 905 1033 905 c 256,22,23
 978 905 978 905 927 966 c 1,24,25
 879 897 879 897 813 897 c 0,26,27
 766 897 766 897 734 945 c 0,28,29
 704 988 704 988 704 1037 c 0,30,31
 704 1147 704 1147 759 1147 c 0,32,33
 766 1147 766 1147 787.5 1088.5 c 128,-1,34
 809 1030 809 1030 825 1030 c 0,35,36
 873 1030 873 1030 904.5 1085.5 c 128,-1,37
 936 1141 936 1141 944 1141 c 0,38,39
 957 1141 957 1141 973 1082.5 c 128,-1,40
 989 1024 989 1024 1031 1024 c 0,41,42
 1089 1024 1089 1024 1089 1091 c 0,43,44
 1089 1111 1089 1111 1083 1138 c 1,45,-1
 1143 1169 l 1,46,47
 1162 1133 1162 1133 1162 1054 c 0,18,19
1634 349 m 0,48,49
 1634 136 1634 136 1514 47 c 0,50,51
 1436 -11 1436 -11 1319 -11 c 0,52,53
 1153 -11 1153 -11 1018 201 c 1,54,55
 956 0 956 0 730 0 c 0,56,57
 520 0 520 0 447 270 c 1,58,59
 409 231 409 231 346 182 c 1,60,61
 321 173 321 173 281 173 c 0,62,63
 185 173 185 173 101 216 c 0,64,65
 3 266 3 266 3 341 c 0,66,67
 3 434 3 434 103 509 c 0,68,69
 161 553 161 553 367 653 c 1,70,-1
 355 738 l 1,71,-1
 493 836 l 2,72,73
 525 859 525 859 536 859 c 0,74,75
 552 859 552 859 558 814 c 0,76,77
 567 746 567 746 590 570 c 0,78,79
 627 303 627 303 780 303 c 0,80,81
 919 303 919 303 919 438 c 0,82,83
 919 496 919 496 858 743 c 0,84,85
 848 784 848 784 993 880 c 0,86,87
 1026 902 1026 902 1032 872 c 0,88,89
 1088 598 1088 598 1158 428 c 0,90,91
 1211 298 1211 298 1323 298 c 0,92,93
 1453 298 1453 298 1453 430 c 0,94,95
 1453 514 1453 514 1352 857 c 1,96,-1
 1491 1005 l 2,97,98
 1501 1016 1501 1016 1509 1016 c 0,99,100
 1519 1016 1519 1016 1527 991 c 0,101,102
 1634 637 1634 637 1634 349 c 0,48,49
426 346 m 1,103,-1
 390 557 l 1,104,105
 301 529 301 529 233 482 c 0,106,107
 178 444 178 444 178 430 c 0,108,109
 178 404 178 404 239 378 c 0,110,111
 313 346 313 346 426 346 c 1,103,-1
EndSplineSet
Ligature2: "'rlig' Required Ligatures in Arabic lookup 5 subtable" afii62817 afii62818 uniFC63 afii62828
Ligature2: "'rlig' Required Ligatures in Arabic lookup 5 subtable" afii62817 afii62818 afii57457 uni0670 afii62828
EndChar

StartChar: afii57415.001
Encoding: 1575 1575 162
Width: 192
GlyphClass: 2
Flags: W
AnchorPoint: "Anchor-3" 75 -435 basechar 0
AnchorPoint: "Anchor-2" 120 1365 basechar 0
LayerCount: 2
Fore
SplineSet
252 1243 m 2,0,-1
 156 80 l 2,1,2
 149 -6 149 -6 110 -6 c 0,3,4
 70 -6 70 -6 57 103 c 2,5,-1
 -57 1076 l 1,6,-1
 213 1272 l 2,7,8
 231 1285 231 1285 241 1285 c 0,9,10
 255 1285 255 1285 252 1243 c 2,0,-1
EndSplineSet
Substitution2: "'fina' Terminal Forms in Arabic lookup 2 subtable" afii62760
EndChar

StartChar: afii62760.001
Encoding: 65558 -1 163
Width: 462
GlyphClass: 2
Flags: W
LayerCount: 2
Fore
SplineSet
4 427 m 0,0,1
 4 767 4 767 -21 1144 c 1,2,-1
 161 1272 l 2,3,4
 195 1296 195 1296 206 1296 c 0,5,6
 220 1296 220 1296 220 1246 c 2,7,-1
 219 448 l 2,8,9
 219 305 219 305 339 305 c 2,10,-1
 480 305 l 1,11,-1
 486 297 l 1,12,-1
 487 8 l 1,13,-1
 482 0 l 1,14,-1
 269 0 l 2,15,16
 4 0 4 0 4 427 c 0,0,1
EndSplineSet
EndChar

StartChar: afii57421
Encoding: 1581 1581 182
Width: 1221
GlyphClass: 2
Flags: W
AnchorPoint: "Anchor-3" 600 -1095 basechar 0
AnchorPoint: "Anchor-2" 675 1065 basechar 0
LayerCount: 2
Fore
SplineSet
1271 622 m 0,0,1
 1253 590 1253 590 1215 527 c 0,2,3
 1167 450 1167 450 1141 451 c 0,4,5
 939 457 939 457 817 434 c 0,6,7
 598 392 598 392 457 267 c 0,8,9
 296 125 296 125 296 -84 c 0,10,11
 296 -285 296 -285 481 -382 c 0,12,13
 626 -458 626 -458 847 -458 c 0,14,15
 996 -458 996 -458 1130 -438 c 0,16,17
 1163 -433 1163 -433 1179 -433 c 0,18,19
 1232 -433 1232 -433 1232 -471 c 0,20,21
 1232 -515 1232 -515 1078 -557 c 0,22,23
 910 -603 910 -603 704 -603 c 0,24,25
 429 -603 429 -603 241 -507 c 0,26,27
 -1 -383 -1 -383 -1 -134 c 0,28,29
 -1 119 -1 119 223 295 c 0,30,31
 400 433 400 433 681 502 c 1,32,33
 418 538 418 538 298 538 c 0,34,35
 226 538 226 538 184 501 c 1,36,37
 106 412 106 412 79 412 c 0,38,39
 48 412 48 412 48 452 c 0,40,41
 48 464 48 464 51 475 c 0,42,43
 74 561 74 561 133 650 c 0,44,45
 230 796 230 796 353 796 c 0,46,47
 408 796 408 796 554 766 c 0,48,49
 713 733 713 733 787 727 c 0,50,51
 1108 700 1108 700 1240 700 c 0,52,53
 1295 700 1295 700 1295 678 c 0,54,55
 1295 663 1295 663 1271 622 c 0,0,1
EndSplineSet
Substitution2: "'medi' Medial Forms in Arabic lookup 3 subtable" afii62775
Substitution2: "'fina' Terminal Forms in Arabic lookup 2 subtable" afii62776
Substitution2: "'init' Initial Forms in Arabic lookup 1 subtable" afii62774
EndChar

StartChar: afii62776
Encoding: 65186 65186 183
Width: 1300
GlyphClass: 2
Flags: W
AnchorPoint: "Anchor-3" 555 -1095 basechar 0
AnchorPoint: "Anchor-2" 630 1095 basechar 0
LayerCount: 2
Fore
SplineSet
1327 0 m 1,0,-1
 1181 0 l 2,1,2
 968 0 968 0 884 113 c 0,3,4
 812 210 812 210 812 433 c 1,5,6
 593 395 593 395 451 268 c 0,7,8
 291 124 291 124 291 -85 c 0,9,10
 291 -286 291 -286 476 -383 c 0,11,12
 621 -459 621 -459 842 -459 c 0,13,14
 981 -459 981 -459 1125 -439 c 0,15,16
 1227 -425 1227 -425 1227 -472 c 0,17,18
 1227 -516 1227 -516 1073 -558 c 0,19,20
 905 -604 905 -604 699 -604 c 0,21,22
 424 -604 424 -604 236 -508 c 0,23,24
 -6 -384 -6 -384 -6 -135 c 0,25,26
 -6 118 -6 118 218 294 c 0,27,28
 395 432 395 432 676 501 c 1,29,30
 413 537 413 537 293 537 c 0,31,32
 221 537 221 537 179 500 c 1,33,34
 101 411 101 411 74 411 c 0,35,36
 43 411 43 411 43 451 c 0,37,38
 43 463 43 463 46 474 c 0,39,40
 69 560 69 560 128 649 c 0,41,42
 225 795 225 795 348 795 c 0,43,44
 403 795 403 795 549 765 c 0,45,46
 708 732 708 732 782 726 c 0,47,48
 1103 699 1103 699 1235 699 c 0,49,50
 1290 699 1290 699 1290 677 c 0,51,52
 1290 662 1290 662 1266 621 c 0,53,54
 1251 595 1251 595 1211 527 c 0,55,56
 1164 450 1164 450 1136 450 c 0,57,58
 977 452 977 452 909 444 c 1,59,60
 909 305 909 305 1103 305 c 2,61,-1
 1327 305 l 1,62,-1
 1327 0 l 1,0,-1
EndSplineSet
EndChar

StartChar: afii62774
Encoding: 65187 65187 184
Width: 1243
GlyphClass: 2
Flags: W
AnchorPoint: "Anchor-3" 525 -480 basechar 0
AnchorPoint: "Anchor-2" 750 1125 basechar 0
LayerCount: 2
Fore
SplineSet
1277 515 m 2,0,-1
 1192 358 l 2,1,2
 1175 327 1175 327 1150 324 c 1,3,4
 1155 325 1155 325 1052 325 c 0,5,6
 973 325 973 325 821 241 c 0,7,8
 584 110 584 110 524 84 c 0,9,10
 330 0 330 0 145 0 c 2,11,-1
 -28 0 l 1,12,-1
 -28 305 l 1,13,-1
 134 305 l 2,14,15
 316 305 316 305 446 335 c 0,16,17
 528 354 528 354 712 423 c 1,18,19
 649 441 649 441 468 512 c 0,20,21
 328 567 328 567 284 567 c 0,22,23
 224 567 224 567 192 540 c 0,24,25
 178 525 178 525 141 485 c 0,26,27
 120 462 120 462 93 462 c 0,28,29
 59 462 59 462 59 502 c 0,30,31
 59 515 59 515 64 530 c 0,32,33
 88 603 88 603 158 690 c 0,34,35
 256 812 256 812 358 812 c 0,36,37
 408 812 408 812 713 701 c 0,38,39
 1031 586 1031 586 1244 574 c 0,40,41
 1289 572 1289 572 1289 549 c 0,42,43
 1289 537 1289 537 1277 515 c 2,0,-1
EndSplineSet
EndChar

StartChar: afii62775
Encoding: 65188 65188 185
Width: 1336
GlyphClass: 2
Flags: W
AnchorPoint: "Anchor-3" 600 -525 basechar 0
AnchorPoint: "Anchor-2" 720 1110 basechar 0
LayerCount: 2
Fore
SplineSet
1364 0 m 1,0,-1
 1182 0 l 2,1,2
 967 0 967 0 899 119 c 0,3,4
 858 190 858 190 858 371 c 1,5,6
 681 213 681 213 578 147 c 0,7,8
 348 0 348 0 136 0 c 2,9,-1
 -28 0 l 1,10,-1
 -28 305 l 1,11,-1
 97 305 l 2,12,13
 277 305 277 305 455 366 c 0,14,15
 557 401 557 401 740 492 c 1,16,17
 341 602 341 602 258 602 c 0,18,19
 212 602 212 602 177 575 c 0,20,21
 169 569 169 569 129 524 c 0,22,23
 103 495 103 495 79 495 c 0,24,25
 47 495 47 495 47 535 c 0,26,27
 47 549 47 549 53 567 c 0,28,29
 78 642 78 642 144 729 c 0,30,31
 243 859 243 859 346 859 c 0,32,33
 417 859 417 859 544 821 c 0,34,35
 723 768 723 768 793 753 c 0,36,37
 1032 704 1032 704 1236 682 c 0,38,39
 1285 677 1285 677 1285 657 c 0,40,41
 1285 645 1285 645 1270 619 c 2,42,-1
 1164 435 l 1,43,44
 1078 442 1078 442 1037 442 c 0,45,46
 951 442 951 442 951 396 c 0,47,48
 951 305 951 305 1177 305 c 2,49,-1
 1364 305 l 1,50,-1
 1364 0 l 1,0,-1
EndSplineSet
EndChar

StartChar: afii57423
Encoding: 1583 1583 190
Width: 695
GlyphClass: 2
Flags: W
AnchorPoint: "Anchor-3" 270 -525 basechar 0
AnchorPoint: "Anchor-2" 315 1230 basechar 0
LayerCount: 2
Fore
SplineSet
221 1018 m 2,0,-1
 239 1018 l 1,1,2
 362 998 362 998 585 726 c 1,3,4
 696 578 696 578 696 458 c 0,5,6
 696 132 696 132 539 50 c 0,7,8
 449 -1 449 -1 338 -1 c 2,9,-1
 77 -1 l 2,10,11
 38 -1 38 -1 38 7 c 2,12,-1
 38 328 l 1,13,-1
 41 328 l 1,14,15
 109 305 109 305 200 305 c 2,16,-1
 293 305 l 2,17,18
 579 305 579 305 597 377 c 1,19,-1
 597 380 l 1,20,21
 591 459 591 459 260 668 c 1,22,23
 212 692 212 692 179 697 c 1,24,-1
 167 697 l 1,25,-1
 107 680 l 1,26,27
 79 680 79 680 74 717 c 1,28,29
 74 749 74 749 185 1000 c 1,30,31
 202 1018 202 1018 221 1018 c 2,0,-1
EndSplineSet
Substitution2: "'fina' Terminal Forms in Arabic lookup 2 subtable" afii62780
PairPos2: "'kern' Horizontal Kerning in Arabic lookup 0 subtable" afii57450 dx=0 dy=0 dh=0 dv=0 dx=0 dy=0 dh=100 dv=0
PairPos2: "'kern' Horizontal Kerning in Arabic lookup 0 subtable" afii57449 dx=0 dy=0 dh=0 dv=0 dx=0 dy=0 dh=100 dv=0
PairPos2: "'kern' Horizontal Kerning in Arabic lookup 0 subtable" afii57414 dx=0 dy=0 dh=0 dv=0 dx=0 dy=0 dh=100 dv=0
PairPos2: "'kern' Horizontal Kerning in Arabic lookup 0 subtable" afii57555 dx=0 dy=0 dh=0 dv=0 dx=0 dy=0 dh=100 dv=0
EndChar

StartChar: afii62780
Encoding: 65194 65194 191
Width: 925
GlyphClass: 2
Flags: W
AnchorPoint: "Anchor-3" 210 -570 basechar 0
AnchorPoint: "Anchor-2" 225 1185 basechar 0
LayerCount: 2
Fore
SplineSet
31 316 m 1,0,1
 78 288 78 288 172 288 c 0,2,3
 406 288 406 288 550 422 c 1,4,-1
 395 840 l 1,5,-1
 533 992 l 2,6,7
 548 1009 548 1009 556 1009 c 0,8,9
 566 1009 566 1009 573 987 c 2,10,-1
 737 491 l 2,11,12
 798 305 798 305 909 305 c 2,13,-1
 952 305 l 1,14,-1
 952 0 l 1,15,-1
 876 0 l 2,16,17
 755 0 755 0 680 116 c 0,18,19
 646 169 646 169 589 324 c 1,20,21
 515 186 515 186 443 119 c 0,22,23
 307 -7 307 -7 104 -7 c 0,24,25
 65 -7 65 -7 31 0 c 1,26,-1
 31 316 l 1,0,1
EndSplineSet
PairPos2: "'kern' Horizontal Kerning in Arabic lookup 0 subtable" afii57450 dx=0 dy=0 dh=0 dv=0 dx=0 dy=0 dh=100 dv=0
PairPos2: "'kern' Horizontal Kerning in Arabic lookup 0 subtable" afii57449 dx=0 dy=0 dh=0 dv=0 dx=0 dy=0 dh=100 dv=0
PairPos2: "'kern' Horizontal Kerning in Arabic lookup 0 subtable" afii57414 dx=0 dy=0 dh=0 dv=0 dx=0 dy=0 dh=100 dv=0
PairPos2: "'kern' Horizontal Kerning in Arabic lookup 0 subtable" afii57555 dx=0 dy=0 dh=0 dv=0 dx=0 dy=0 dh=100 dv=0
EndChar

StartChar: afii57425
Encoding: 1585 1585 194
Width: 447
GlyphClass: 2
Flags: W
AnchorPoint: "Anchor-3" 15 -795 basechar 0
AnchorPoint: "Anchor-2" 150 990 basechar 0
LayerCount: 2
Fore
SplineSet
443 292 m 0,0,1
 443 -56 443 -56 218 -299 c 0,2,3
 184 -336 184 -336 165 -346 c 128,-1,4
 146 -356 146 -356 100 -357 c 0,5,6
 5 -360 5 -360 -127 -345 c 0,7,8
 -316 -324 -316 -324 -316 -282 c 0,9,10
 -316 -247 -316 -247 -235 -215 c 0,11,12
 -73 -151 -73 -151 40 -86 c 0,13,14
 333 82 333 82 333 203 c 0,15,16
 333 305 333 305 62 501 c 1,17,-1
 207 721 l 2,18,19
 221 743 221 743 236 743 c 0,20,21
 250 743 250 743 275 721 c 0,22,23
 335 668 335 668 383 564 c 0,24,25
 443 433 443 433 443 292 c 0,0,1
EndSplineSet
Substitution2: "'fina' Terminal Forms in Arabic lookup 2 subtable" afii62782
PairPos2: "'kern' Horizontal Kerning in Arabic lookup 0 subtable" afii62831 dx=0 dy=0 dh=0 dv=0 dx=0 dy=0 dh=400 dv=0
PairPos2: "'kern' Horizontal Kerning in Arabic lookup 0 subtable" afii57450 dx=0 dy=0 dh=0 dv=0 dx=0 dy=0 dh=170 dv=0
PairPos2: "'kern' Horizontal Kerning in Arabic lookup 0 subtable" afii57449 dx=0 dy=0 dh=0 dv=0 dx=0 dy=0 dh=170 dv=0
PairPos2: "'kern' Horizontal Kerning in Arabic lookup 0 subtable" afii57448 dx=0 dy=0 dh=0 dv=0 dx=0 dy=0 dh=200 dv=0
PairPos2: "'kern' Horizontal Kerning in Arabic lookup 0 subtable" afii57446 dx=0 dy=0 dh=0 dv=0 dx=0 dy=0 dh=100 dv=0
PairPos2: "'kern' Horizontal Kerning in Arabic lookup 0 subtable" afii57444 dx=0 dy=0 dh=0 dv=0 dx=0 dy=0 dh=270 dv=0
PairPos2: "'kern' Horizontal Kerning in Arabic lookup 0 subtable" afii57442 dx=0 dy=0 dh=0 dv=0 dx=0 dy=0 dh=100 dv=0
PairPos2: "'kern' Horizontal Kerning in Arabic lookup 0 subtable" afii57426 dx=0 dy=0 dh=0 dv=0 dx=0 dy=0 dh=200 dv=0
PairPos2: "'kern' Horizontal Kerning in Arabic lookup 0 subtable" afii57425 dx=0 dy=0 dh=0 dv=0 dx=0 dy=0 dh=200 dv=0
PairPos2: "'kern' Horizontal Kerning in Arabic lookup 0 subtable" afii62761 dx=0 dy=0 dh=0 dv=0 dx=0 dy=0 dh=400 dv=0
PairPos2: "'kern' Horizontal Kerning in Arabic lookup 0 subtable" afii57414 dx=0 dy=0 dh=0 dv=0 dx=0 dy=0 dh=170 dv=0
PairPos2: "'kern' Horizontal Kerning in Arabic lookup 0 subtable" afii57413 dx=0 dy=0 dh=0 dv=0 dx=0 dy=0 dh=450 dv=0
PairPos2: "'kern' Horizontal Kerning in Arabic lookup 0 subtable" afii57555 dx=0 dy=0 dh=0 dv=0 dx=0 dy=0 dh=170 dv=0
PairPos2: "'kern' Horizontal Kerning in Arabic lookup 0 subtable" afii62956 dx=0 dy=0 dh=0 dv=0 dx=0 dy=0 dh=400 dv=0
EndChar

StartChar: afii62782
Encoding: 65198 65198 195
Width: 643
GlyphClass: 2
Flags: W
AnchorPoint: "Anchor-3" 0 -1080 basechar 0
AnchorPoint: "Anchor-2" 30 780 basechar 0
LayerCount: 2
Fore
SplineSet
477 305 m 2,0,-1
 665 305 l 1,1,-1
 671 297 l 1,2,-1
 673 8 l 1,3,-1
 667 0 l 1,4,-1
 449 0 l 2,5,6
 422 0 422 0 404 18 c 1,7,8
 408 -310 408 -310 193 -542 c 0,9,10
 159 -579 159 -579 142 -588 c 0,11,12
 121 -600 121 -600 75 -601 c 0,13,14
 -12 -604 -12 -604 -152 -588 c 0,15,16
 -341 -567 -341 -567 -341 -525 c 0,17,18
 -341 -490 -341 -490 -260 -458 c 0,19,20
 -98 -394 -98 -394 15 -329 c 0,21,22
 308 -161 308 -161 308 -40 c 0,23,24
 308 62 308 62 37 258 c 1,25,-1
 189 484 l 2,26,27
 205 508 205 508 214 508 c 256,28,29
 223 508 223 508 244 484 c 0,30,31
 397 305 397 305 477 305 c 2,0,-1
EndSplineSet
PairPos2: "'kern' Horizontal Kerning in Arabic lookup 0 subtable" afii62831 dx=0 dy=0 dh=0 dv=0 dx=0 dy=0 dh=300 dv=0
PairPos2: "'kern' Horizontal Kerning in Arabic lookup 0 subtable" afii57434 dx=0 dy=0 dh=0 dv=0 dx=0 dy=0 dh=350 dv=0
PairPos2: "'kern' Horizontal Kerning in Arabic lookup 0 subtable" afii57433 dx=0 dy=0 dh=0 dv=0 dx=0 dy=0 dh=350 dv=0
PairPos2: "'kern' Horizontal Kerning in Arabic lookup 0 subtable" afii57422 dx=0 dy=0 dh=0 dv=0 dx=0 dy=0 dh=400 dv=0
PairPos2: "'kern' Horizontal Kerning in Arabic lookup 0 subtable" afii57421 dx=0 dy=0 dh=0 dv=0 dx=0 dy=0 dh=400 dv=0
PairPos2: "'kern' Horizontal Kerning in Arabic lookup 0 subtable" afii57420 dx=0 dy=0 dh=0 dv=0 dx=0 dy=0 dh=400 dv=0
PairPos2: "'kern' Horizontal Kerning in Arabic lookup 0 subtable" afii62761 dx=0 dy=0 dh=0 dv=0 dx=0 dy=0 dh=300 dv=0
PairPos2: "'kern' Horizontal Kerning in Arabic lookup 0 subtable" afii57413 dx=0 dy=0 dh=0 dv=0 dx=0 dy=0 dh=300 dv=0
PairPos2: "'kern' Horizontal Kerning in Arabic lookup 0 subtable" afii57507 dx=0 dy=0 dh=0 dv=0 dx=0 dy=0 dh=400 dv=0
PairPos2: "'kern' Horizontal Kerning in Arabic lookup 0 subtable" afii62956 dx=0 dy=0 dh=0 dv=0 dx=0 dy=0 dh=300 dv=0
EndChar

StartChar: afii57427
Encoding: 1587 1587 198
Width: 1901
GlyphClass: 2
Flags: W
AnchorPoint: "Anchor-3" 1260 -855 basechar 0
AnchorPoint: "Anchor-2" 1350 1050 basechar 0
LayerCount: 2
Fore
SplineSet
1899 393 m 0,0,1
 1899 242 1899 242 1836 130 c 0,2,3
 1763 1 1763 1 1637 1 c 0,4,5
 1527 1 1527 1 1473 108 c 1,6,7
 1423 1 1423 1 1331 1 c 0,8,9
 1270 1 1270 1 1216 21 c 1,10,11
 1216 -283 1216 -283 1050 -442.5 c 128,-1,12
 884 -602 884 -602 579 -602 c 0,13,14
 339 -602 339 -602 186 -510 c 0,15,16
 -1 -397 -1 -397 -1 -174 c 0,17,18
 -1 46 -1 46 100 197 c 0,19,20
 126 236 126 236 155 236 c 0,21,22
 178 236 178 236 178 206 c 0,23,24
 178 189 178 189 171 168 c 0,25,26
 135 59 135 59 135 -26 c 0,27,28
 135 -299 135 -299 583 -299 c 0,29,30
 761 -299 761 -299 907 -258 c 0,31,32
 1124 -197 1124 -197 1124 -70 c 0,33,34
 1124 19 1124 19 875 285 c 1,35,-1
 1007 506 l 2,36,37
 1023 532 1023 532 1034 532 c 256,38,39
 1045 532 1045 532 1061 512 c 0,40,41
 1145 404 1145 404 1180 372 c 0,42,43
 1252 305 1252 305 1318 305 c 0,44,45
 1369 305 1369 305 1398 402 c 128,-1,46
 1427 499 1427 499 1446 499 c 0,47,48
 1476 499 1476 499 1486 449 c 0,49,50
 1499 382 1499 382 1523 356 c 0,51,52
 1569 305 1569 305 1683 305 c 0,53,54
 1778 305 1778 305 1778 381 c 0,55,56
 1778 440 1778 440 1683 549 c 1,57,-1
 1795 702 l 2,58,59
 1806 717 1806 717 1816 717 c 0,60,61
 1827 717 1827 717 1834 700 c 0,62,63
 1899 551 1899 551 1899 393 c 0,0,1
EndSplineSet
Substitution2: "'medi' Medial Forms in Arabic lookup 3 subtable" afii62785
Substitution2: "'fina' Terminal Forms in Arabic lookup 2 subtable" afii62786
Substitution2: "'init' Initial Forms in Arabic lookup 1 subtable" afii62784
EndChar

StartChar: afii62786
Encoding: 65202 65202 199
Width: 1953
GlyphClass: 2
Flags: W
AnchorPoint: "Anchor-3" 1125 -945 basechar 0
AnchorPoint: "Anchor-2" 1365 1110 basechar 0
LayerCount: 2
Fore
SplineSet
1980 0 m 1,0,-1
 1926 0 l 2,1,2
 1848 0 1848 0 1795 105 c 1,3,4
 1727 -3 1727 -3 1647 -3 c 0,5,6
 1547 -3 1547 -3 1482 103 c 1,7,8
 1417 0 1417 0 1331 0 c 0,9,10
 1270 0 1270 0 1216 20 c 1,11,12
 1216 -284 1216 -284 1050 -443.5 c 128,-1,13
 884 -603 884 -603 579 -603 c 0,14,15
 339 -603 339 -603 186 -511 c 0,16,17
 -1 -398 -1 -398 -1 -175 c 0,18,19
 -1 45 -1 45 100 196 c 0,20,21
 126 235 126 235 155 235 c 0,22,23
 178 235 178 235 178 205 c 0,24,25
 178 188 178 188 171 167 c 0,26,27
 135 58 135 58 135 -27 c 0,28,29
 135 -300 135 -300 583 -300 c 0,30,31
 761 -300 761 -300 907 -259 c 0,32,33
 1124 -198 1124 -198 1124 -71 c 0,34,35
 1124 18 1124 18 875 284 c 1,36,-1
 998 505 l 2,37,38
 1012 530 1012 530 1025 530 c 0,39,40
 1037 530 1037 530 1052 511 c 0,41,42
 1134 406 1134 406 1167 374 c 0,43,44
 1240 304 1240 304 1309 304 c 0,45,46
 1368 304 1368 304 1389 355 c 1,47,48
 1394 379 1394 379 1408 448 c 0,49,50
 1419 498 1419 498 1453 498 c 0,51,52
 1486 498 1486 498 1497 448 c 0,53,54
 1516 361 1516 361 1520 355 c 0,55,56
 1543 304 1543 304 1606 304 c 0,57,58
 1666 304 1666 304 1688 355 c 1,59,-1
 1710 448 l 2,60,61
 1722 498 1722 498 1757 498 c 0,62,63
 1788 498 1788 498 1798 448 c 0,64,65
 1814 367 1814 367 1820 355 c 0,66,67
 1844 305 1844 305 1908 305 c 2,68,-1
 1980 305 l 1,69,-1
 1980 0 l 1,0,-1
EndSplineSet
EndChar

StartChar: afii62784
Encoding: 65203 65203 200
Width: 1019
GlyphClass: 2
Flags: W
AnchorPoint: "Anchor-3" 360 -615 basechar 0
AnchorPoint: "Anchor-2" 480 975 basechar 0
LayerCount: 2
Fore
SplineSet
1017 392 m 0,0,1
 1017 242 1017 242 953 129 c 0,2,3
 880 0 880 0 755 0 c 0,4,5
 633 0 633 0 581 124 c 1,6,7
 559 71 559 71 507 35.5 c 128,-1,8
 455 0 455 0 398 0 c 0,9,10
 277 0 277 0 210 116 c 1,11,12
 192 71 192 71 143.5 35.5 c 128,-1,13
 95 0 95 0 47 0 c 2,14,-1
 -56 0 l 1,15,-1
 -56 305 l 1,16,-1
 48 305 l 2,17,18
 124 305 124 305 154 355 c 0,19,20
 166 375 166 375 182 447 c 0,21,22
 193 497 193 497 223 497 c 0,23,24
 252 497 252 497 261 447 c 0,25,26
 274 372 274 372 285 354 c 0,27,28
 315 304 315 304 397 304 c 0,29,30
 468 304 468 304 498 355 c 0,31,32
 509 373 509 373 525 448 c 0,33,34
 536 498 536 498 564 498 c 0,35,36
 597 498 597 498 605 448 c 0,37,38
 616 381 616 381 638 355 c 0,39,40
 682 304 682 304 801 304 c 0,41,42
 896 304 896 304 896 380 c 0,43,44
 896 439 896 439 801 548 c 1,45,-1
 912 701 l 2,46,47
 923 716 923 716 934 716 c 0,48,49
 944 716 944 716 951 699 c 0,50,51
 1017 548 1017 548 1017 392 c 0,0,1
EndSplineSet
EndChar

StartChar: afii62785
Encoding: 65204 65204 201
Width: 972
GlyphClass: 2
Flags: W
AnchorPoint: "Anchor-3" 390 -525 basechar 0
AnchorPoint: "Anchor-2" 480 870 basechar 0
LayerCount: 2
Fore
SplineSet
999 0 m 1,0,-1
 945 0 l 2,1,2
 869 0 869 0 814 105 c 1,3,4
 754 -3 754 -3 667 -3 c 0,5,6
 566 -3 566 -3 501 103 c 1,7,8
 437 0 437 0 351 0 c 0,9,10
 252 0 252 0 190 100 c 1,11,12
 173 71 173 71 128 39 c 0,13,14
 74 0 74 0 29 0 c 2,15,-1
 -28 0 l 1,16,-1
 -28 305 l 1,17,-1
 20 305 l 2,18,19
 82 305 82 305 105 355 c 0,20,21
 109 364 109 364 126 447 c 0,22,23
 136 497 136 497 168 497 c 0,24,25
 198 497 198 497 210 447 c 2,26,-1
 232 354 l 1,27,28
 252 304 252 304 305 304 c 0,29,30
 378 304 378 304 406 355 c 0,31,32
 416 373 416 373 431 448 c 0,33,34
 441 498 441 498 472 498 c 256,35,36
 503 498 503 498 514 448 c 0,37,38
 532 367 532 367 538 355 c 0,39,40
 563 304 563 304 628 304 c 0,41,42
 689 304 689 304 711 355 c 0,43,44
 715 372 715 372 732 448 c 0,45,46
 743 498 743 498 776 498 c 0,47,48
 804 498 804 498 815 448 c 0,49,50
 833 370 833 370 840 355 c 0,51,52
 865 305 865 305 927 305 c 2,53,-1
 999 305 l 1,54,-1
 999 0 l 1,0,-1
EndSplineSet
EndChar

StartChar: afii57429
Encoding: 1589 1589 206
Width: 2140
GlyphClass: 2
Flags: W
AnchorPoint: "Anchor-3" 1005 -975 basechar 0
AnchorPoint: "Anchor-2" 1245 945 basechar 0
LayerCount: 2
Fore
SplineSet
2136 570 m 0,0,1
 2136 330 2136 330 1910 159 c 0,2,3
 1701 1 1701 1 1454 1 c 0,4,5
 1367 1 1367 1 1306 17 c 0,6,7
 1289 21 1289 21 1227 39 c 1,8,9
 1227 -602 1227 -602 587 -602 c 0,10,11
 347 -602 347 -602 194 -510 c 0,12,13
 7 -397 7 -397 7 -174 c 0,14,15
 7 46 7 46 108 197 c 0,16,17
 134 236 134 236 163 236 c 0,18,19
 186 236 186 236 186 206 c 0,20,21
 186 189 186 189 179 168 c 0,22,23
 143 59 143 59 143 -26 c 0,24,25
 143 -299 143 -299 591 -299 c 0,26,27
 769 -299 769 -299 915 -258 c 0,28,29
 1132 -197 1132 -197 1132 -70 c 0,30,31
 1132 19 1132 19 883 285 c 1,32,-1
 1006 506 l 2,33,34
 1020 531 1020 531 1033 531 c 0,35,36
 1045 531 1045 531 1060 512 c 0,37,38
 1142 406 1142 406 1246 349 c 1,39,40
 1377 517 1377 517 1554 639 c 0,41,42
 1760 781 1760 781 1927 781 c 0,43,44
 2012 781 2012 781 2074 718 c 128,-1,45
 2136 655 2136 655 2136 570 c 0,0,1
EndSplineSet
Substitution2: "'medi' Medial Forms in Arabic lookup 3 subtable" afii62791
Substitution2: "'fina' Terminal Forms in Arabic lookup 2 subtable" afii62792
Substitution2: "'init' Initial Forms in Arabic lookup 1 subtable" afii62790
EndChar

StartChar: afii62792
Encoding: 65210 65210 207
Width: 2310
GlyphClass: 2
Flags: W
AnchorPoint: "Anchor-3" 1125 -960 basechar 0
AnchorPoint: "Anchor-2" 1110 900 basechar 0
LayerCount: 2
Fore
SplineSet
2136 305 m 2,0,-1
 2351 305 l 1,1,-1
 2357 297 l 1,2,-1
 2359 8 l 1,3,-1
 2352 0 l 1,4,-1
 2134 0 l 2,5,6
 2056 0 2056 0 1989 43 c 128,-1,7
 1922 86 1922 86 1894 157 c 1,8,9
 1689 0 1689 0 1452 0 c 0,10,11
 1365 0 1365 0 1304 16 c 0,12,13
 1287 20 1287 20 1225 38 c 1,14,15
 1225 -603 1225 -603 585 -603 c 0,16,17
 345 -603 345 -603 192 -511 c 0,18,19
 5 -398 5 -398 5 -175 c 0,20,21
 5 45 5 45 106 196 c 0,22,23
 132 235 132 235 161 235 c 0,24,25
 184 235 184 235 184 205 c 0,26,27
 184 188 184 188 177 167 c 0,28,29
 141 58 141 58 141 -27 c 0,30,31
 141 -300 141 -300 589 -300 c 0,32,33
 767 -300 767 -300 913 -259 c 0,34,35
 1130 -198 1130 -198 1130 -71 c 0,36,37
 1130 18 1130 18 881 284 c 1,38,-1
 1004 505 l 2,39,40
 1018 530 1018 530 1031 530 c 0,41,42
 1043 530 1043 530 1058 511 c 0,43,44
 1140 405 1140 405 1244 348 c 1,45,46
 1375 516 1375 516 1552 638 c 0,47,48
 1758 780 1758 780 1925 780 c 0,49,50
 2010 780 2010 780 2072 717 c 128,-1,51
 2134 654 2134 654 2134 569 c 0,52,53
 2134 456 2134 456 2057 338 c 1,54,55
 2084 305 2084 305 2136 305 c 2,0,-1
EndSplineSet
EndChar

StartChar: afii62790
Encoding: 65211 65211 208
Width: 1286
GlyphClass: 2
Flags: W
AnchorPoint: "Anchor-3" 420 -600 basechar 0
AnchorPoint: "Anchor-2" 375 1065 basechar 0
LayerCount: 2
Fore
SplineSet
1292 569 m 0,0,1
 1292 470 1292 470 1217 345 c 0,2,3
 1118 179 1118 179 953.5 89.5 c 128,-1,4
 789 0 789 0 592 0 c 0,5,6
 324 0 324 0 228 104 c 1,7,8
 166 0 166 0 58 0 c 2,9,-1
 -28 0 l 1,10,-1
 -28 305 l 1,11,-1
 28 305 l 2,12,13
 114 305 114 305 153 359 c 0,14,15
 173 387 173 387 191 458 c 0,16,17
 204 511 204 511 229 511 c 0,18,19
 246 511 246 511 282.5 415.5 c 128,-1,20
 319 320 319 320 369 320 c 1,21,22
 504 500 504 500 692 630 c 0,23,24
 908 780 908 780 1084 780 c 0,25,26
 1168 780 1168 780 1230 716.5 c 128,-1,27
 1292 653 1292 653 1292 569 c 0,0,1
EndSplineSet
EndChar

StartChar: afii62791
Encoding: 65212 65212 209
Width: 1451
GlyphClass: 2
Flags: W
AnchorPoint: "Anchor-3" 510 -600 basechar 0
AnchorPoint: "Anchor-2" 495 1035 basechar 0
LayerCount: 2
Fore
SplineSet
1294 305 m 2,0,-1
 1487 305 l 1,1,-1
 1493 297 l 1,2,-1
 1495 8 l 1,3,-1
 1488 0 l 1,4,-1
 1292 0 l 2,5,6
 1214 0 1214 0 1147 43 c 128,-1,7
 1080 86 1080 86 1052 157 c 1,8,9
 847 0 847 0 592 0 c 0,10,11
 324 0 324 0 228 104 c 1,12,13
 166 0 166 0 58 0 c 2,14,-1
 -28 0 l 1,15,-1
 -28 305 l 1,16,-1
 28 305 l 2,17,18
 114 305 114 305 153 359 c 0,19,20
 173 387 173 387 191 458 c 0,21,22
 204 511 204 511 229 511 c 0,23,24
 246 511 246 511 282.5 415.5 c 128,-1,25
 319 320 319 320 369 320 c 1,26,27
 504 496 504 496 691 627 c 0,28,29
 910 780 910 780 1084 780 c 0,30,31
 1169 780 1169 780 1230.5 717 c 128,-1,32
 1292 654 1292 654 1292 569 c 0,33,34
 1292 456 1292 456 1216 338 c 1,35,36
 1242 305 1242 305 1294 305 c 2,0,-1
EndSplineSet
EndChar

StartChar: afii57431
Encoding: 1591 1591 214
Width: 1454
GlyphClass: 2
Flags: W
AnchorPoint: "Anchor-3" 690 -585 basechar 0
AnchorPoint: "Anchor-2" 1140 1260 basechar 0
LayerCount: 2
Fore
SplineSet
1451 557 m 0,0,1
 1451 440 1451 440 1324 302 c 0,2,3
 1136 98 1136 98 868 32 c 0,4,5
 742 1 742 1 525 1 c 0,6,7
 386 1 386 1 43 270 c 0,8,9
 9 297 9 297 9 318 c 0,10,11
 9 349 9 349 67 343 c 2,12,-1
 428 308 l 1,13,14
 461 383 461 383 461 504 c 0,15,16
 461 768 461 768 353 1070 c 1,17,-1
 521 1265 l 2,18,19
 543 1290 543 1290 555 1290 c 0,20,21
 566 1290 566 1290 580 1260 c 2,22,-1
 701 995 l 2,23,24
 715 964 715 964 715 950 c 0,25,26
 715 930 715 930 690 930 c 0,27,28
 667 930 667 930 615 946 c 1,29,30
 616 761 616 761 587 600 c 2,31,-1
 551 411 l 1,32,33
 956 753 956 753 1228 753 c 0,34,35
 1320 753 1320 753 1383 702 c 0,36,37
 1451 647 1451 647 1451 557 c 0,0,1
EndSplineSet
Substitution2: "'medi' Medial Forms in Arabic lookup 3 subtable" afii62797
Substitution2: "'fina' Terminal Forms in Arabic lookup 2 subtable" afii62798
Substitution2: "'init' Initial Forms in Arabic lookup 1 subtable" afii62796
EndChar

StartChar: afii62798
Encoding: 65218 65218 215
Width: 1556
GlyphClass: 2
Flags: W
AnchorPoint: "Anchor-3" 750 -570 basechar 0
AnchorPoint: "Anchor-2" 1095 1245 basechar 0
LayerCount: 2
Fore
SplineSet
1424 305 m 2,0,-1
 1669 305 l 1,1,-1
 1677 297 l 1,2,-1
 1679 8 l 1,3,-1
 1671 0 l 1,4,-1
 1412 0 l 2,5,6
 1342 0 1342 0 1271 72 c 0,7,8
 1218 126 1218 126 1190 187 c 1,9,10
 1020 59 1020 59 801 19 c 0,11,12
 697 0 697 0 519 0 c 0,13,14
 380 0 380 0 37 269 c 0,15,16
 3 296 3 296 3 317 c 0,17,18
 3 348 3 348 61 342 c 2,19,-1
 422 307 l 1,20,21
 455 382 455 382 455 503 c 0,22,23
 455 767 455 767 347 1069 c 1,24,-1
 515 1264 l 2,25,26
 537 1289 537 1289 549 1289 c 0,27,28
 560 1289 560 1289 574 1259 c 2,29,-1
 695 994 l 2,30,31
 709 963 709 963 709 949 c 0,32,33
 709 929 709 929 684 929 c 0,34,35
 661 929 661 929 609 945 c 1,36,37
 610 760 610 760 581 599 c 2,38,-1
 545 410 l 1,39,40
 950 752 950 752 1222 752 c 0,41,42
 1314 752 1314 752 1377 701 c 0,43,44
 1445 646 1445 646 1445 556 c 0,45,46
 1445 455 1445 455 1342 330 c 1,47,48
 1396 305 1396 305 1424 305 c 2,0,-1
EndSplineSet
EndChar

StartChar: afii62796
Encoding: 65219 65219 216
Width: 1160
GlyphClass: 2
Flags: W
AnchorPoint: "Anchor-3" 375 -555 basechar 0
AnchorPoint: "Anchor-2" 780 1245 basechar 0
LayerCount: 2
Fore
SplineSet
1159 556 m 0,0,1
 1159 371 1159 371 905 185 c 0,2,3
 741 65 741 65 555 27 c 0,4,5
 423 0 423 0 158 0 c 2,6,-1
 -28 0 l 1,7,-1
 -28 305 l 1,8,-1
 136 305 l 1,9,10
 168 380 168 380 168 502 c 0,11,12
 168 767 168 767 61 1069 c 1,13,-1
 229 1264 l 2,14,15
 251 1289 251 1289 262 1289 c 0,16,17
 274 1289 274 1289 288 1259 c 2,18,-1
 409 994 l 2,19,20
 423 963 423 963 423 949 c 0,21,22
 423 929 423 929 397 929 c 0,23,24
 374 929 374 929 322 945 c 1,25,26
 323 757 323 757 295 599 c 2,27,28
 295 599 295 599 259 410 c 1,29,30
 663 752 663 752 936 752 c 0,31,32
 1028 752 1028 752 1091 701 c 0,33,34
 1159 646 1159 646 1159 556 c 0,0,1
EndSplineSet
EndChar

StartChar: afii62797
Encoding: 65220 65220 217
Width: 1266
GlyphClass: 2
Flags: W
AnchorPoint: "Anchor-3" 525 -435 basechar 0
AnchorPoint: "Anchor-2" 795 1230 basechar 0
LayerCount: 2
Fore
SplineSet
1138 305 m 2,0,-1
 1333 305 l 1,1,-1
 1339 297 l 1,2,-1
 1340 8 l 1,3,-1
 1334 0 l 1,4,-1
 1125 0 l 2,5,6
 1055 0 1055 0 985 72 c 0,7,8
 932 126 932 126 904 187 c 1,9,10
 711 0 711 0 158 0 c 2,11,-1
 -28 0 l 1,12,-1
 -28 305 l 1,13,-1
 136 305 l 1,14,15
 168 380 168 380 168 502 c 0,16,17
 168 767 168 767 61 1069 c 1,18,-1
 229 1264 l 2,19,20
 251 1289 251 1289 262 1289 c 0,21,22
 274 1289 274 1289 288 1259 c 2,23,-1
 409 994 l 2,24,25
 423 963 423 963 423 949 c 0,26,27
 423 929 423 929 397 929 c 0,28,29
 374 929 374 929 322 945 c 1,30,31
 323 757 323 757 295 599 c 2,32,-1
 259 410 l 1,33,34
 663 752 663 752 936 752 c 0,35,36
 1028 752 1028 752 1091 701 c 0,37,38
 1159 646 1159 646 1159 556 c 0,39,40
 1159 455 1159 455 1056 330 c 1,41,42
 1110 305 1110 305 1138 305 c 2,0,-1
EndSplineSet
EndChar

StartChar: afii57433
Encoding: 1593 1593 222
Width: 1225
GlyphClass: 2
Flags: W
AnchorPoint: "Anchor-3" 465 -1110 basechar 0
AnchorPoint: "Anchor-2" 780 1185 basechar 0
LayerCount: 2
Fore
SplineSet
1211 443 m 0,0,1
 1140 264 1140 264 1110 249 c 0,2,3
 1098 243 1098 243 1060 246 c 0,4,5
 825 263 825 263 701 263 c 0,6,7
 516 263 516 263 400 167 c 0,8,9
 275 65 275 65 275 -117 c 0,10,11
 275 -319 275 -319 450 -417 c 0,12,13
 588 -494 588 -494 808 -494 c 0,14,15
 988 -494 988 -494 1148 -466 c 0,16,17
 1165 -463 1165 -463 1178 -463 c 0,18,19
 1224 -463 1224 -463 1224 -492 c 0,20,21
 1224 -535 1224 -535 1151 -560 c 0,22,23
 945 -631 945 -631 666 -631 c 0,24,25
 393 -631 393 -631 227 -552 c 0,26,27
 1 -444 1 -444 1 -201 c 0,28,29
 1 -3 1 -3 140 137 c 0,30,31
 262 261 262 261 466 318 c 1,32,33
 340 382 340 382 340 480 c 0,34,35
 340 540 340 540 387 653 c 0,36,37
 537 1013 537 1013 826 1013 c 0,38,39
 924 1013 924 1013 1002.5 953 c 128,-1,40
 1081 893 1081 893 1111 799 c 0,41,42
 1123 761 1123 761 1123 740 c 0,43,44
 1123 707 1123 707 1095 707 c 0,45,46
 1072 707 1072 707 1028 728 c 0,47,48
 927 776 927 776 783 776 c 0,49,50
 693 776 693 776 614 744 c 0,51,52
 513 703 513 703 513 634 c 0,53,54
 513 499 513 499 926 499 c 0,55,56
 1045 499 1045 499 1136 508 c 0,57,58
 1176 512 1176 512 1190 512 c 0,59,60
 1225 512 1225 512 1225 491 c 0,61,62
 1225 478 1225 478 1211 443 c 0,0,1
EndSplineSet
Substitution2: "'medi' Medial Forms in Arabic lookup 3 subtable" afii62803
Substitution2: "'fina' Terminal Forms in Arabic lookup 2 subtable" afii62804
Substitution2: "'init' Initial Forms in Arabic lookup 1 subtable" afii62802
EndChar

StartChar: afii62804
Encoding: 65226 65226 223
Width: 1163
GlyphClass: 2
Flags: W
AnchorPoint: "Anchor-3" 510 -1155 basechar 0
AnchorPoint: "Anchor-2" 765 975 basechar 0
LayerCount: 2
Fore
SplineSet
1190 1 m 1,0,-1
 1102 1 l 2,1,2
 931 1 931 1 831 104 c 0,3,4
 756 182 756 182 688 367 c 1,5,6
 523 318 523 318 403 204 c 0,7,8
 266 73 266 73 266 -85 c 0,9,10
 266 -297 266 -297 439 -416 c 0,11,12
 590 -520 590 -520 812 -520 c 0,13,14
 936 -520 936 -520 1038 -510 c 0,15,16
 1109 -503 1109 -503 1109 -542 c 0,17,18
 1109 -588 1109 -588 971 -614 c 0,19,20
 854 -636 854 -636 686 -636 c 0,21,22
 409 -636 409 -636 229 -539 c 0,23,24
 0 -416 0 -416 0 -163 c 0,25,26
 0 -2 0 -2 123 148 c 0,27,28
 293 354 293 354 637 434 c 1,29,30
 589 479 589 479 490 537 c 0,31,32
 425 575 425 575 425 605 c 0,33,34
 425 649 425 649 528 710 c 0,35,36
 639 776 639 776 747 776 c 0,37,38
 844 776 844 776 922 742 c 0,39,40
 1025 697 1025 697 1025 613 c 0,41,42
 1025 530 1025 530 928 474 c 0,43,44
 913 465 913 465 812 411 c 1,45,46
 903 306 903 306 1110 306 c 2,47,-1
 1190 306 l 1,48,-1
 1190 1 l 1,0,-1
EndSplineSet
EndChar

StartChar: afii62802
Encoding: 65227 65227 224
Width: 847
GlyphClass: 2
Flags: W
AnchorPoint: "Anchor-3" 315 -555 basechar 0
AnchorPoint: "Anchor-2" 495 1095 basechar 0
LayerCount: 2
Fore
SplineSet
832 249 m 0,0,1
 740 19 740 19 694 19 c 0,2,3
 456 19 456 19 348 78 c 1,4,5
 264 1 264 1 116 1 c 2,6,-1
 -28 1 l 1,7,-1
 -28 306 l 1,8,-1
 99 306 l 1,9,10
 52 345 52 345 52 408 c 0,11,12
 52 513 52 513 149 651 c 0,13,14
 292 855 292 855 455 855 c 0,15,16
 663 855 663 855 772 653 c 0,17,18
 796 609 796 609 796 581 c 0,19,20
 796 541 796 541 751 541 c 0,21,22
 726 541 726 541 684 556 c 0,23,24
 583 592 583 592 411 592 c 0,25,26
 201 592 201 592 201 484 c 0,27,28
 201 356 201 356 510 320 c 0,29,30
 665 302 665 302 793 318 c 0,31,32
 809 320 809 320 817 320 c 0,33,34
 846 320 846 320 846 299 c 0,35,36
 846 284 846 284 832 249 c 0,0,1
EndSplineSet
EndChar

StartChar: afii62803
Encoding: 65228 65228 225
Width: 676
GlyphClass: 2
Flags: W
AnchorPoint: "Anchor-3" 225 -540 basechar 0
AnchorPoint: "Anchor-2" 345 1080 basechar 0
LayerCount: 2
Fore
SplineSet
704 1 m 1,0,-1
 631 1 l 2,1,2
 446 1 446 1 344 247 c 1,3,4
 306 137 306 137 256 85 c 0,5,6
 176 1 176 1 32 1 c 2,7,-1
 -28 1 l 1,8,-1
 -28 306 l 1,9,-1
 -6 306 l 2,10,11
 162 306 162 306 253 413 c 1,12,13
 209 456 209 456 107 523 c 0,14,15
 45 564 45 564 45 594 c 0,16,17
 45 638 45 638 126 696 c 0,18,19
 226 767 226 767 363 767 c 0,20,21
 466 767 466 767 540 731 c 0,22,23
 633 686 633 686 633 598 c 0,24,25
 633 527 633 527 549 473 c 0,26,27
 528 460 528 460 420 411 c 1,28,29
 453 368 453 368 526 336 c 0,30,31
 596 306 596 306 654 306 c 2,32,-1
 704 306 l 1,33,-1
 704 1 l 1,0,-1
EndSplineSet
EndChar

StartChar: afii57443
Encoding: 1603 1603 238
Width: 1562
GlyphClass: 2
Flags: W
AnchorPoint: "Anchor-3" 525 -480 basechar 0
AnchorPoint: "Anchor-2" 720 1305 basechar 0
LayerCount: 2
Fore
SplineSet
1536 949 m 1,0,1
 1536 933 1536 933 1502 933 c 2,2,-1
 1446 938 l 1,3,-1
 1446 359 l 2,4,5
 1446 215 1446 215 1375 114 c 0,6,7
 1297 0 1297 0 1161 0 c 2,8,-1
 46 0 l 1,9,-1
 46 305 l 1,10,-1
 1077 305 l 2,11,12
 1158 305 1158 305 1214 312 c 1,13,14
 1289 328 1289 328 1289 399 c 0,15,16
 1289 696 1289 696 1172 1075 c 1,17,18
 1365 1285 1365 1285 1377 1285 c 0,19,20
 1394 1285 1394 1285 1458 1136 c 0,21,22
 1498 1041 1498 1041 1536 949 c 1,0,1
849 922 m 1,23,-1
 851 896 l 1,24,-1
 849 847 l 2,25,26
 849 823 849 823 838 812 c 1,27,-1
 682 767 l 1,28,-1
 565 722 l 1,29,-1
 441 668 l 1,30,-1
 441 751 l 1,31,-1
 493 778 l 1,32,-1
 547 804 l 1,33,34
 527 815 527 815 493.5 854 c 128,-1,35
 460 893 460 893 457 926 c 0,36,37
 457 980 457 980 533.5 1058 c 128,-1,38
 610 1136 610 1136 678 1136 c 0,39,40
 718 1136 718 1136 757 1107.5 c 128,-1,41
 796 1079 796 1079 801 1051 c 0,42,43
 801 1033 801 1033 794 1019 c 1,44,45
 777 1007 777 1007 766 1007 c 2,46,-1
 718 1022 l 2,47,48
 692 1033 692 1033 654 1037 c 0,49,50
 620 1037 620 1037 591 1018.5 c 128,-1,51
 562 1000 562 1000 557 980 c 1,52,53
 557 952 557 952 594 913 c 1,54,55
 635 878 635 878 678 878 c 0,56,57
 703 878 703 878 717 881.5 c 128,-1,58
 731 885 731 885 768 896 c 2,59,-1
 849 922 l 1,23,-1
EndSplineSet
Substitution2: "'medi' Medial Forms in Arabic lookup 3 subtable" afii52306
Substitution2: "'fina' Terminal Forms in Arabic lookup 2 subtable" afii62816
Substitution2: "'init' Initial Forms in Arabic lookup 1 subtable" afii52305
EndChar

StartChar: afii62816
Encoding: 65242 65242 239
Width: 1622
GlyphClass: 2
Flags: W
AnchorPoint: "Anchor-3" 525 -480 basechar 0
AnchorPoint: "Anchor-2" 765 1260 basechar 0
LayerCount: 2
Fore
SplineSet
1635 0 m 1,0,-1
 1554 0 l 2,1,2
 1395 0 1395 0 1333 141 c 1,3,4
 1289 226 1289 226 1289 347 c 1,5,6
 1224 251 1224 251 1153 195 c 0,7,8
 1065 125 1065 125 925 66 c 1,9,10
 725 1 725 1 372 1 c 0,11,12
 140 1 140 1 94 4 c 1,13,-1
 94 307 l 1,14,-1
 508 307 l 2,15,16
 752 307 752 307 966 352 c 1,17,18
 1229 421 1229 421 1265 523 c 0,19,20
 1291 598 1291 598 1291 863 c 0,21,22
 1291 1007 1291 1007 1285 1164 c 1,23,-1
 1466 1306 l 2,24,25
 1485 1319 1485 1319 1500 1319 c 0,26,27
 1527 1319 1527 1319 1523 1265 c 2,28,-1
 1485 545 l 2,29,30
 1484 519 1484 519 1484 496 c 0,31,32
 1484 306 1484 306 1585 305 c 2,33,-1
 1635 305 l 1,34,-1
 1635 0 l 1,0,-1
920 882 m 1,35,-1
 921 857 l 1,36,-1
 920 810 l 2,37,38
 920 785 920 785 909 775 c 1,39,-1
 758 732 l 1,40,-1
 646 688 l 1,41,-1
 527 636 l 1,42,-1
 527 716 l 1,43,-1
 576 743 l 1,44,-1
 627 768 l 1,45,46
 608 779 608 779 576 816 c 128,-1,47
 544 853 544 853 540 886 c 1,48,49
 540 937 540 937 614 1012.5 c 128,-1,50
 688 1088 688 1088 755 1088 c 0,51,52
 793 1088 793 1088 831 1061 c 128,-1,53
 869 1034 869 1034 874 1007 c 0,54,55
 874 989 874 989 867 975 c 1,56,57
 850 964 850 964 840 964 c 2,58,-1
 793 978 l 2,59,60
 768 989 768 989 731 992 c 0,61,62
 699 992 699 992 671 974.5 c 128,-1,63
 643 957 643 957 639 937 c 1,64,65
 639 910 639 910 675 872 c 1,66,67
 713 840 713 840 755 840 c 0,68,69
 779 840 779 840 792.5 843 c 128,-1,70
 806 846 806 846 842 857 c 2,71,-1
 920 882 l 1,35,-1
EndSplineSet
EndChar

StartChar: afii57444
Encoding: 1604 1604 242
Width: 1243
GlyphClass: 2
Flags: W
AnchorPoint: "Anchor-3" 465 -1050 basechar 0
AnchorPoint: "Anchor-2" 900 1305 basechar 0
LayerCount: 2
Fore
SplineSet
1329 1018 m 2,0,1
 1337 1002 1337 1002 1337 991 c 0,2,3
 1337 970 1337 970 1301 970 c 0,4,5
 1277 970 1277 970 1232 979 c 1,6,-1
 1186 -37 l 2,7,8
 1177 -239 1177 -239 1062 -371 c 0,9,10
 891 -567 891 -567 512 -567 c 0,11,12
 296 -567 296 -567 155 -463 c 0,13,14
 -3 -346 -3 -346 -3 -138 c 0,15,16
 -3 -72 -3 -72 24 41 c 128,-1,17
 51 154 51 154 81 209 c 0,18,19
 101 246 101 246 128 246 c 0,20,21
 154 246 154 246 154 214 c 0,22,23
 154 204 154 204 150 191 c 0,24,25
 124 108 124 108 124 56 c 0,26,27
 124 -263 124 -263 555 -263 c 0,28,29
 776 -263 776 -263 935 -182 c 0,30,31
 1064 -116 1064 -116 1064 -65 c 0,32,33
 1064 433 1064 433 963 1089 c 1,34,-1
 1146 1292 l 2,35,36
 1160 1307 1160 1307 1172 1307 c 0,37,38
 1188 1307 1188 1307 1200 1283 c 2,39,-1
 1329 1018 l 2,0,1
EndSplineSet
Substitution2: "'medi' Medial Forms in Arabic lookup 3 subtable" afii62818
Substitution2: "'fina' Terminal Forms in Arabic lookup 2 subtable" afii62819
Substitution2: "'init' Initial Forms in Arabic lookup 1 subtable" afii62817
EndChar

StartChar: afii62817
Encoding: 65247 65247 243
Width: 343
GlyphClass: 2
Flags: W
AnchorPoint: "Anchor-3" 90 -465 basechar 0
AnchorPoint: "Anchor-2" 210 1410 basechar 0
LayerCount: 2
Fore
SplineSet
413 963 m 2,0,1
 418 952 418 952 418 946 c 0,2,3
 418 930 418 930 385 930 c 0,4,5
 364 930 364 930 328 936 c 1,6,-1
 328 357 l 2,7,8
 328 218 328 218 257 116 c 0,9,10
 177 1 177 1 43 1 c 2,11,-1
 -28 1 l 1,12,-1
 -28 306 l 1,13,-1
 47 306 l 2,14,15
 173 306 173 306 173 398 c 0,16,17
 173 472 173 472 144 658 c 0,18,19
 108 888 108 888 55 1072 c 1,20,-1
 228 1258 l 2,21,22
 248 1280 248 1280 261 1280 c 256,23,24
 274 1280 274 1280 288 1249 c 2,25,-1
 413 963 l 2,0,1
EndSplineSet
EndChar

StartChar: afii62818
Encoding: 65248 65248 244
Width: 686
GlyphClass: 2
Flags: W
AnchorPoint: "Anchor-3" 210 -495 basechar 0
AnchorPoint: "Anchor-2" 315 1440 basechar 0
LayerCount: 2
Fore
SplineSet
263 131 m 1,0,1
 238 77 238 77 183.5 39 c 128,-1,2
 129 1 129 1 71 1 c 2,3,-1
 -28 1 l 1,4,-1
 -28 306 l 1,5,-1
 26 306 l 2,6,7
 87 306 87 306 124.5 343 c 128,-1,8
 162 380 162 380 162 441 c 2,9,-1
 162 1125 l 1,10,-1
 346 1290 l 2,11,12
 364 1306 364 1306 377 1306 c 0,13,14
 399 1306 399 1306 397 1265 c 2,15,-1
 369 508 l 2,16,17
 362 306 362 306 495 306 c 2,18,-1
 739 306 l 1,19,-1
 747 298 l 1,20,-1
 749 9 l 1,21,-1
 741 1 l 1,22,-1
 480 1 l 2,23,24
 321 1 321 1 263 131 c 1,0,1
EndSplineSet
EndChar

StartChar: afii57445
Encoding: 1605 1605 245
Width: 836
GlyphClass: 2
Flags: W
AnchorPoint: "Anchor-3" 390 -900 basechar 0
AnchorPoint: "Anchor-2" 495 1140 basechar 0
LayerCount: 2
Fore
SplineSet
872 595 m 0,0,1
 872 513 872 513 810 379 c 0,2,3
 739 226 739 226 668 232 c 2,4,-1
 285 263 l 2,5,6
 273 264 273 264 262 264 c 0,7,8
 178 264 178 264 178 180 c 2,9,-1
 178 -339 l 2,10,11
 178 -405 178 -405 152 -500 c 0,12,13
 118 -623 118 -623 72 -623 c 0,14,15
 37 -623 37 -623 32 -506 c 2,16,-1
 2 263 l 2,17,18
 -3 390 -3 390 60 469 c 0,19,20
 128 553 128 553 254 551 c 1,21,22
 225 605 225 605 225 657 c 0,23,24
 225 710 225 710 302 804 c 0,25,26
 385 905 385 905 450 905 c 0,27,28
 524 905 524 905 689 800 c 0,29,30
 872 684 872 684 872 595 c 0,0,1
EndSplineSet
Substitution2: "'medi' Medial Forms in Arabic lookup 3 subtable" afii62821
Substitution2: "'fina' Terminal Forms in Arabic lookup 2 subtable" afii62822
Substitution2: "'init' Initial Forms in Arabic lookup 1 subtable" afii62820
EndChar

StartChar: afii62822
Encoding: 65250 65250 246
Width: 1097
GlyphClass: 2
Flags: W
AnchorPoint: "Anchor-3" 465 -915 basechar 0
AnchorPoint: "Anchor-2" 555 795 basechar 0
LayerCount: 2
Fore
SplineSet
1131 0 m 1,0,-1
 977 0 l 2,1,2
 945 0 945 0 923 19 c 1,3,4
 930 -22 930 -22 930 -69 c 0,5,6
 930 -319 930 -319 738 -319 c 0,7,8
 562 -319 562 -319 471 -129 c 0,9,10
 407 5 407 5 407 153 c 1,11,12
 283 146 283 146 243 133 c 0,13,14
 152 103 152 103 154 16 c 2,15,-1
 165 -398 l 2,16,17
 167 -456 167 -456 148 -526 c 0,18,19
 123 -619 123 -619 79 -619 c 0,20,21
 34 -619 34 -619 24 -487 c 2,22,-1
 -14 36 l 2,23,24
 -16 64 -16 64 -16 82 c 0,25,26
 -16 293 -16 293 132 389 c 0,27,28
 241 460 241 460 405 460 c 1,29,30
 405 579 405 579 430 579 c 0,31,32
 444 579 444 579 510 530 c 0,33,34
 600 463 600 463 648 433 c 0,35,36
 760 363 760 363 815 341 c 0,37,38
 903 305 903 305 998 305 c 2,39,-1
 1131 305 l 1,40,-1
 1135 297 l 1,41,-1
 1136 8 l 1,42,-1
 1131 0 l 1,0,-1
EndSplineSet
EndChar

StartChar: afii62820
Encoding: 65251 65251 247
Width: 707
GlyphClass: 2
Flags: W
AnchorPoint: "Anchor-3" 225 -465 basechar 0
AnchorPoint: "Anchor-2" 360 990 basechar 0
LayerCount: 2
Fore
SplineSet
706 236 m 0,0,1
 706 125 706 125 662 48 c 0,2,3
 608 -47 608 -47 505 -47 c 0,4,5
 321 -47 321 -47 225 190 c 1,6,7
 151 1 151 1 22 1 c 2,8,-1
 -28 1 l 1,9,-1
 -28 306 l 1,10,-1
 43 306 l 2,11,12
 115 306 115 306 141 356 c 0,13,14
 158 389 158 389 158 469 c 0,15,16
 158 572 158 572 222 646.5 c 128,-1,17
 286 721 286 721 388 721 c 0,18,19
 543 721 543 721 633 547 c 0,20,21
 706 406 706 406 706 236 c 0,0,1
EndSplineSet
EndChar

StartChar: afii57446
Encoding: 1606 1606 248
Width: 1208
GlyphClass: 2
Flags: W
AnchorPoint: "Anchor-3" 450 -765 basechar 0
AnchorPoint: "Anchor-2" 570 960 basechar 0
LayerCount: 2
Fore
SplineSet
1219 305 m 0,0,1
 1219 35 1219 35 1104 -108 c 0,2,3
 939 -314 939 -314 518 -314 c 0,4,5
 326 -314 326 -314 188 -234 c 0,6,7
 -3 -123 -3 -123 -3 113 c 0,8,9
 -3 294 -3 294 72 460 c 0,10,11
 103 528 103 528 137 528 c 0,12,13
 170 528 170 528 170 483 c 0,14,15
 170 442 170 442 151 361.5 c 128,-1,16
 132 281 132 281 132 240 c 0,17,18
 132 108 132 108 285 44 c 0,19,20
 407 -7 407 -7 584 -7 c 0,21,22
 733 -7 733 -7 892 39 c 0,23,24
 1112 103 1112 103 1112 214 c 256,25,26
 1112 325 1112 325 863 571 c 1,27,-1
 999 798 l 2,28,29
 1014 823 1014 823 1023 823 c 0,30,31
 1031 823 1031 823 1051 802 c 0,32,33
 1116 734 1116 734 1163 610 c 0,34,35
 1219 462 1219 462 1219 305 c 0,0,1
724 505 m 2,36,37
 737 493 737 493 723 479 c 2,38,-1
 598 354 l 2,39,40
 585 341 585 341 571 354 c 2,41,-1
 444 477 l 2,42,43
 429 491 429 491 447 509 c 2,44,-1
 564 628 l 2,45,46
 579 643 579 643 595 628 c 2,47,-1
 724 505 l 2,36,37
EndSplineSet
Substitution2: "'medi' Medial Forms in Arabic lookup 3 subtable" afii62824
Substitution2: "'fina' Terminal Forms in Arabic lookup 2 subtable" afii62825
Substitution2: "'init' Initial Forms in Arabic lookup 1 subtable" afii62823
EndChar

StartChar: afii62825
Encoding: 65254 65254 249
Width: 1518
GlyphClass: 2
Flags: W
AnchorPoint: "Anchor-3" 555 -1035 basechar 0
AnchorPoint: "Anchor-2" 585 630 basechar 0
LayerCount: 2
Fore
SplineSet
1351 305 m 2,0,-1
 1555 305 l 1,1,-1
 1561 297 l 1,2,-1
 1563 8 l 1,3,-1
 1557 0 l 1,4,-1
 1344 0 l 2,5,6
 1240 0 1240 0 1201 30 c 1,7,8
 1207 -19 1207 -19 1207 -65 c 0,9,10
 1207 -339 1207 -339 1021 -478 c 0,11,12
 855 -603 855 -603 573 -603 c 0,13,14
 333 -603 333 -603 180 -511 c 0,15,16
 -7 -398 -7 -398 -7 -175 c 0,17,18
 -7 45 -7 45 94 196 c 0,19,20
 120 235 120 235 149 235 c 0,21,22
 172 235 172 235 172 205 c 0,23,24
 172 188 172 188 165 167 c 0,25,26
 129 58 129 58 129 -27 c 0,27,28
 129 -300 129 -300 577 -300 c 0,29,30
 755 -300 755 -300 901 -259 c 0,31,32
 1118 -198 1118 -198 1118 -71 c 0,33,34
 1118 18 1118 18 869 284 c 1,35,-1
 1001 505 l 2,36,37
 1017 531 1017 531 1028 531 c 256,38,39
 1039 531 1039 531 1055 511 c 0,40,41
 1137 410 1137 410 1181 373 c 0,42,43
 1262 305 1262 305 1351 305 c 2,0,-1
723 229 m 2,44,45
 736 216 736 216 723 203 c 2,46,-1
 598 79 l 2,47,48
 585 66 585 66 571 79 c 2,49,-1
 444 201 l 2,50,51
 429 216 429 216 447 234 c 2,52,-1
 563 352 l 2,53,54
 579 368 579 368 595 352 c 2,55,-1
 723 229 l 2,44,45
EndSplineSet
EndChar

StartChar: afii62828
Encoding: 65258 65258 253
Width: 740
GlyphClass: 2
Flags: W
AnchorPoint: "Anchor-3" 195 -405 basechar 0
AnchorPoint: "Anchor-2" 240 1035 basechar 0
LayerCount: 2
Fore
SplineSet
768 1 m 1,0,-1
 686 1 l 2,1,2
 553 1 553 1 487 110 c 0,3,4
 458 158 458 158 428 284 c 1,5,6
 374 164 374 164 342 164 c 0,7,8
 278 164 278 164 150 214 c 0,9,10
 -6 275 -6 275 -6 343 c 0,11,12
 -6 384 -6 384 26.5 458 c 128,-1,13
 59 532 59 532 89 557 c 0,14,15
 139 599 139 599 361 717 c 1,16,-1
 345 827 l 1,17,-1
 478 1010 l 2,18,19
 498 1037 498 1037 510 1037 c 0,20,21
 527 1037 527 1037 532 998 c 2,22,-1
 597 532 l 2,23,24
 611 434 611 434 629 390 c 0,25,26
 663 308 663 308 733 308 c 2,27,-1
 768 308 l 1,28,-1
 768 1 l 1,0,-1
EndSplineSet
EndChar

StartChar: afii57448
Encoding: 1608 1608 254
Width: 594
GlyphClass: 2
Flags: W
AnchorPoint: "Anchor-3" 120 -855 basechar 0
AnchorPoint: "Anchor-2" 285 1065 basechar 0
LayerCount: 2
Fore
SplineSet
592 335 m 0,0,1
 592 88 592 88 513 -119 c 0,2,3
 453 -277 453 -277 359 -387 c 0,4,5
 284 -475 284 -475 251 -475 c 0,6,7
 132 -475 132 -475 -118 -433 c 0,8,9
 -188 -421 -188 -421 -188 -374 c 0,10,11
 -188 -349 -188 -349 -134 -330 c 0,12,13
 -32 -294 -32 -294 -1 -279 c 0,14,15
 414 -75 414 -75 475 151 c 1,16,17
 403 145 403 145 341 145 c 0,18,19
 -22 145 -22 145 -22 333 c 0,20,21
 -22 430 -22 430 46 621 c 0,22,23
 139 883 139 883 273 883 c 0,24,25
 437 883 437 883 525 679 c 0,26,27
 592 523 592 523 592 335 c 0,0,1
EndSplineSet
Substitution2: "'fina' Terminal Forms in Arabic lookup 2 subtable" afii62829
PairPos2: "'kern' Horizontal Kerning in Arabic lookup 0 subtable" afii57415 dx=0 dy=0 dh=0 dv=0 dx=0 dy=0 dh=100 dv=0
PairPos2: "'kern' Horizontal Kerning in Arabic lookup 0 subtable" uni0675 dx=0 dy=0 dh=0 dv=0 dx=0 dy=0 dh=100 dv=0
PairPos2: "'kern' Horizontal Kerning in Arabic lookup 0 subtable" uni0672 dx=0 dy=0 dh=0 dv=0 dx=0 dy=0 dh=100 dv=0
PairPos2: "'kern' Horizontal Kerning in Arabic lookup 0 subtable" afii62831 dx=0 dy=0 dh=0 dv=0 dx=0 dy=0 dh=200 dv=0
PairPos2: "'kern' Horizontal Kerning in Arabic lookup 0 subtable" afii57450 dx=0 dy=0 dh=0 dv=0 dx=0 dy=0 dh=100 dv=0
PairPos2: "'kern' Horizontal Kerning in Arabic lookup 0 subtable" afii57449 dx=0 dy=0 dh=0 dv=0 dx=0 dy=0 dh=100 dv=0
PairPos2: "'kern' Horizontal Kerning in Arabic lookup 0 subtable" afii57444 dx=0 dy=0 dh=0 dv=0 dx=0 dy=0 dh=100 dv=0
PairPos2: "'kern' Horizontal Kerning in Arabic lookup 0 subtable" afii57441 dx=0 dy=0 dh=0 dv=0 dx=0 dy=0 dh=100 dv=0
PairPos2: "'kern' Horizontal Kerning in Arabic lookup 0 subtable" afii57434 dx=0 dy=0 dh=0 dv=0 dx=0 dy=0 dh=100 dv=0
PairPos2: "'kern' Horizontal Kerning in Arabic lookup 0 subtable" afii57433 dx=0 dy=0 dh=0 dv=0 dx=0 dy=0 dh=100 dv=0
PairPos2: "'kern' Horizontal Kerning in Arabic lookup 0 subtable" afii62793 dx=0 dy=0 dh=0 dv=0 dx=0 dy=0 dh=100 dv=0
PairPos2: "'kern' Horizontal Kerning in Arabic lookup 0 subtable" afii57430 dx=0 dy=0 dh=0 dv=0 dx=0 dy=0 dh=100 dv=0
PairPos2: "'kern' Horizontal Kerning in Arabic lookup 0 subtable" afii62790 dx=0 dy=0 dh=0 dv=0 dx=0 dy=0 dh=100 dv=0
PairPos2: "'kern' Horizontal Kerning in Arabic lookup 0 subtable" afii57429 dx=0 dy=0 dh=0 dv=0 dx=0 dy=0 dh=100 dv=0
PairPos2: "'kern' Horizontal Kerning in Arabic lookup 0 subtable" afii62787 dx=0 dy=0 dh=0 dv=0 dx=0 dy=0 dh=100 dv=0
PairPos2: "'kern' Horizontal Kerning in Arabic lookup 0 subtable" afii57428 dx=0 dy=0 dh=0 dv=0 dx=0 dy=0 dh=100 dv=0
PairPos2: "'kern' Horizontal Kerning in Arabic lookup 0 subtable" afii62784 dx=0 dy=0 dh=0 dv=0 dx=0 dy=0 dh=100 dv=0
PairPos2: "'kern' Horizontal Kerning in Arabic lookup 0 subtable" afii57427 dx=0 dy=0 dh=0 dv=0 dx=0 dy=0 dh=100 dv=0
PairPos2: "'kern' Horizontal Kerning in Arabic lookup 0 subtable" afii57424 dx=0 dy=0 dh=0 dv=0 dx=0 dy=0 dh=100 dv=0
PairPos2: "'kern' Horizontal Kerning in Arabic lookup 0 subtable" afii57423 dx=0 dy=0 dh=0 dv=0 dx=0 dy=0 dh=100 dv=0
PairPos2: "'kern' Horizontal Kerning in Arabic lookup 0 subtable" afii62777 dx=0 dy=0 dh=0 dv=0 dx=0 dy=0 dh=100 dv=0
PairPos2: "'kern' Horizontal Kerning in Arabic lookup 0 subtable" afii57422 dx=0 dy=0 dh=0 dv=0 dx=0 dy=0 dh=100 dv=0
PairPos2: "'kern' Horizontal Kerning in Arabic lookup 0 subtable" afii62774 dx=0 dy=0 dh=0 dv=0 dx=0 dy=0 dh=100 dv=0
PairPos2: "'kern' Horizontal Kerning in Arabic lookup 0 subtable" afii57421 dx=0 dy=0 dh=0 dv=0 dx=0 dy=0 dh=100 dv=0
PairPos2: "'kern' Horizontal Kerning in Arabic lookup 0 subtable" afii62771 dx=0 dy=0 dh=0 dv=0 dx=0 dy=0 dh=100 dv=0
PairPos2: "'kern' Horizontal Kerning in Arabic lookup 0 subtable" afii57420 dx=0 dy=0 dh=0 dv=0 dx=0 dy=0 dh=100 dv=0
PairPos2: "'kern' Horizontal Kerning in Arabic lookup 0 subtable" afii57419 dx=0 dy=0 dh=0 dv=0 dx=0 dy=0 dh=100 dv=0
PairPos2: "'kern' Horizontal Kerning in Arabic lookup 0 subtable" afii57418 dx=0 dy=0 dh=0 dv=0 dx=0 dy=0 dh=100 dv=0
PairPos2: "'kern' Horizontal Kerning in Arabic lookup 0 subtable" afii62761 dx=0 dy=0 dh=0 dv=0 dx=0 dy=0 dh=200 dv=0
PairPos2: "'kern' Horizontal Kerning in Arabic lookup 0 subtable" afii57416 dx=0 dy=0 dh=0 dv=0 dx=0 dy=0 dh=100 dv=0
PairPos2: "'kern' Horizontal Kerning in Arabic lookup 0 subtable" afii57414 dx=0 dy=0 dh=0 dv=0 dx=0 dy=0 dh=100 dv=0
PairPos2: "'kern' Horizontal Kerning in Arabic lookup 0 subtable" afii57413 dx=0 dy=0 dh=0 dv=0 dx=0 dy=0 dh=300 dv=0
PairPos2: "'kern' Horizontal Kerning in Arabic lookup 0 subtable" afii57411 dx=0 dy=0 dh=0 dv=0 dx=0 dy=0 dh=100 dv=0
PairPos2: "'kern' Horizontal Kerning in Arabic lookup 0 subtable" afii57555 dx=0 dy=0 dh=0 dv=0 dx=0 dy=0 dh=100 dv=0
PairPos2: "'kern' Horizontal Kerning in Arabic lookup 0 subtable" afii62959 dx=0 dy=0 dh=0 dv=0 dx=0 dy=0 dh=100 dv=0
PairPos2: "'kern' Horizontal Kerning in Arabic lookup 0 subtable" afii57507 dx=0 dy=0 dh=0 dv=0 dx=0 dy=0 dh=100 dv=0
PairPos2: "'kern' Horizontal Kerning in Arabic lookup 0 subtable" afii57505 dx=0 dy=0 dh=0 dv=0 dx=0 dy=0 dh=100 dv=0
PairPos2: "'kern' Horizontal Kerning in Arabic lookup 0 subtable" afii62956 dx=0 dy=0 dh=0 dv=0 dx=0 dy=0 dh=200 dv=0
PairPos2: "'kern' Horizontal Kerning in Arabic lookup 0 subtable" afii57506 dx=0 dy=0 dh=0 dv=0 dx=0 dy=0 dh=100 dv=0
EndChar

StartChar: afii62829
Encoding: 65262 65262 255
Width: 758
GlyphClass: 2
Flags: W
AnchorPoint: "Anchor-3" 135 -1125 basechar 0
AnchorPoint: "Anchor-2" 270 990 basechar 0
LayerCount: 2
Fore
SplineSet
786 1 m 1,0,-1
 585 1 l 1,1,2
 539 -348 539 -348 346 -556 c 0,3,4
 283 -624 283 -624 256 -624 c 0,5,6
 137 -624 137 -624 -113 -582 c 0,7,8
 -183 -570 -183 -570 -183 -523 c 0,9,10
 -183 -498 -183 -498 -129 -479 c 0,11,12
 -28 -444 -28 -444 4 -428 c 0,13,14
 422 -221 422 -221 480 -8 c 1,15,16
 265 -8 265 -8 181 9 c 0,17,18
 -17 49 -17 49 -17 184 c 0,19,20
 -17 291 -17 291 51 479 c 0,21,22
 143 734 143 734 278 734 c 0,23,24
 416 734 416 734 503 582 c 0,25,26
 570 465 570 465 589 306 c 1,27,-1
 786 306 l 1,28,-1
 786 1 l 1,0,-1
EndSplineSet
PairPos2: "'kern' Horizontal Kerning in Arabic lookup 0 subtable" afii62831 dx=0 dy=0 dh=0 dv=0 dx=0 dy=0 dh=100 dv=0
PairPos2: "'kern' Horizontal Kerning in Arabic lookup 0 subtable" afii57450 dx=0 dy=0 dh=0 dv=0 dx=0 dy=0 dh=100 dv=0
PairPos2: "'kern' Horizontal Kerning in Arabic lookup 0 subtable" afii57449 dx=0 dy=0 dh=0 dv=0 dx=0 dy=0 dh=100 dv=0
PairPos2: "'kern' Horizontal Kerning in Arabic lookup 0 subtable" afii57444 dx=0 dy=0 dh=0 dv=0 dx=0 dy=0 dh=100 dv=0
PairPos2: "'kern' Horizontal Kerning in Arabic lookup 0 subtable" afii57434 dx=0 dy=0 dh=0 dv=0 dx=0 dy=0 dh=200 dv=0
PairPos2: "'kern' Horizontal Kerning in Arabic lookup 0 subtable" afii57433 dx=0 dy=0 dh=0 dv=0 dx=0 dy=0 dh=200 dv=0
PairPos2: "'kern' Horizontal Kerning in Arabic lookup 0 subtable" afii57422 dx=0 dy=0 dh=0 dv=0 dx=0 dy=0 dh=200 dv=0
PairPos2: "'kern' Horizontal Kerning in Arabic lookup 0 subtable" afii57421 dx=0 dy=0 dh=0 dv=0 dx=0 dy=0 dh=200 dv=0
PairPos2: "'kern' Horizontal Kerning in Arabic lookup 0 subtable" afii57420 dx=0 dy=0 dh=0 dv=0 dx=0 dy=0 dh=200 dv=0
PairPos2: "'kern' Horizontal Kerning in Arabic lookup 0 subtable" afii62761 dx=0 dy=0 dh=0 dv=0 dx=0 dy=0 dh=100 dv=0
PairPos2: "'kern' Horizontal Kerning in Arabic lookup 0 subtable" afii57414 dx=0 dy=0 dh=0 dv=0 dx=0 dy=0 dh=100 dv=0
PairPos2: "'kern' Horizontal Kerning in Arabic lookup 0 subtable" afii57555 dx=0 dy=0 dh=0 dv=0 dx=0 dy=0 dh=100 dv=0
PairPos2: "'kern' Horizontal Kerning in Arabic lookup 0 subtable" afii57507 dx=0 dy=0 dh=0 dv=0 dx=0 dy=0 dh=200 dv=0
PairPos2: "'kern' Horizontal Kerning in Arabic lookup 0 subtable" afii62956 dx=0 dy=0 dh=0 dv=0 dx=0 dy=0 dh=100 dv=0
EndChar

StartChar: afii62840
Encoding: 65275 65275 268
Width: 785
GlyphClass: 3
Flags: W
AnchorPoint: "Anchor-1" 450 -450 baselig 0
AnchorPoint: "Anchor-0" 675 1485 baselig 0
AnchorPoint: "Anchor-1" 0 -435 baselig 1
AnchorPoint: "Anchor-0" -120 1335 baselig 1
LayerCount: 2
Fore
SplineSet
855 1080 m 2,0,1
 871 1060 871 1060 871 1049 c 0,2,3
 871 1028 871 1028 776 1023 c 1,4,5
 778 991 778 991 778 963 c 0,6,7
 778 646 778 646 556 444 c 1,8,9
 606 373 606 373 606 260 c 0,10,11
 606 81 606 81 428 14 c 0,12,13
 314 -29 314 -29 98 -29 c 0,14,15
 18 -29 18 -29 18 17 c 0,16,17
 18 30 18 30 22 43 c 0,18,19
 34 82 34 82 104 286 c 1,20,21
 158 298 158 298 258 348 c 0,22,23
 365 401 365 401 408 442 c 1,24,25
 222 712 222 712 37 876 c 1,26,27
 -3 798 -3 798 -23 798 c 0,28,29
 -51 795 -51 795 -183 1017 c 1,30,31
 -152 1115 -152 1115 -111 1202 c 0,32,33
 -77 1273 -77 1273 -56 1273 c 0,34,35
 -41 1273 -41 1273 -13 1246 c 0,36,37
 354 896 354 896 510 557 c 1,38,39
 594 667 594 667 585 857 c 0,40,41
 579 985 579 985 525 1112 c 1,42,-1
 625 1264 l 2,43,44
 649 1301 649 1301 666 1301 c 0,45,46
 682 1301 682 1301 706 1270 c 2,47,-1
 855 1080 l 2,0,1
499 274 m 0,48,49
 499 304 499 304 456 363 c 1,50,51
 402 322 402 322 204 218 c 1,52,53
 232 215 232 215 268 215 c 0,54,55
 499 215 499 215 499 274 c 0,48,49
EndSplineSet
Ligature2: "'rlig' Required Ligatures in Arabic lookup 6 subtable" afii62817 afii62760
Substitution2: "'fina' Terminal Forms in Arabic lookup 2 subtable" afii62841
PairPos2: "'kern' Horizontal Kerning in Arabic lookup 0 subtable" afii57450 dx=0 dy=0 dh=0 dv=0 dx=0 dy=0 dh=100 dv=0
PairPos2: "'kern' Horizontal Kerning in Arabic lookup 0 subtable" afii57449 dx=0 dy=0 dh=0 dv=0 dx=0 dy=0 dh=100 dv=0
PairPos2: "'kern' Horizontal Kerning in Arabic lookup 0 subtable" afii57447 dx=0 dy=0 dh=0 dv=0 dx=0 dy=0 dh=100 dv=0
PairPos2: "'kern' Horizontal Kerning in Arabic lookup 0 subtable" afii62823 dx=0 dy=0 dh=0 dv=0 dx=0 dy=0 dh=150 dv=0
PairPos2: "'kern' Horizontal Kerning in Arabic lookup 0 subtable" afii57446 dx=0 dy=0 dh=0 dv=0 dx=0 dy=0 dh=100 dv=0
PairPos2: "'kern' Horizontal Kerning in Arabic lookup 0 subtable" afii62817 dx=0 dy=0 dh=0 dv=0 dx=0 dy=0 dh=200 dv=0
PairPos2: "'kern' Horizontal Kerning in Arabic lookup 0 subtable" afii57444 dx=0 dy=0 dh=0 dv=0 dx=0 dy=0 dh=300 dv=0
PairPos2: "'kern' Horizontal Kerning in Arabic lookup 0 subtable" afii57410 dx=0 dy=0 dh=0 dv=0 dx=0 dy=0 dh=200 dv=0
PairPos2: "'kern' Horizontal Kerning in Arabic lookup 0 subtable" afii57443 dx=0 dy=0 dh=0 dv=0 dx=0 dy=0 dh=200 dv=0
PairPos2: "'kern' Horizontal Kerning in Arabic lookup 0 subtable" afii62811 dx=0 dy=0 dh=0 dv=0 dx=0 dy=0 dh=100 dv=0
PairPos2: "'kern' Horizontal Kerning in Arabic lookup 0 subtable" afii57442 dx=0 dy=0 dh=0 dv=0 dx=0 dy=0 dh=100 dv=0
PairPos2: "'kern' Horizontal Kerning in Arabic lookup 0 subtable" afii62808 dx=0 dy=0 dh=0 dv=0 dx=0 dy=0 dh=100 dv=0
PairPos2: "'kern' Horizontal Kerning in Arabic lookup 0 subtable" afii62768 dx=0 dy=0 dh=0 dv=0 dx=0 dy=0 dh=150 dv=0
PairPos2: "'kern' Horizontal Kerning in Arabic lookup 0 subtable" afii62765 dx=0 dy=0 dh=0 dv=0 dx=0 dy=0 dh=150 dv=0
PairPos2: "'kern' Horizontal Kerning in Arabic lookup 0 subtable" afii57417 dx=0 dy=0 dh=0 dv=0 dx=0 dy=0 dh=100 dv=0
PairPos2: "'kern' Horizontal Kerning in Arabic lookup 0 subtable" afii62757 dx=0 dy=0 dh=0 dv=0 dx=0 dy=0 dh=150 dv=0
PairPos2: "'kern' Horizontal Kerning in Arabic lookup 0 subtable" afii57414 dx=0 dy=0 dh=0 dv=0 dx=0 dy=0 dh=100 dv=0
PairPos2: "'kern' Horizontal Kerning in Arabic lookup 0 subtable" afii57555 dx=0 dy=0 dh=0 dv=0 dx=0 dy=0 dh=100 dv=0
PairPos2: "'kern' Horizontal Kerning in Arabic lookup 0 subtable" afii62965 dx=0 dy=0 dh=0 dv=0 dx=0 dy=0 dh=200 dv=0
PairPos2: "'kern' Horizontal Kerning in Arabic lookup 0 subtable" afii57509 dx=0 dy=0 dh=0 dv=0 dx=0 dy=0 dh=200 dv=0
PairPos2: "'kern' Horizontal Kerning in Arabic lookup 0 subtable" afii52305 dx=0 dy=0 dh=0 dv=0 dx=0 dy=0 dh=200 dv=0
PairPos2: "'kern' Horizontal Kerning in Arabic lookup 0 subtable" afii57567 dx=0 dy=0 dh=0 dv=0 dx=0 dy=0 dh=200 dv=0
EndChar

StartChar: afii62841
Encoding: 65276 65276 269
Width: 950
GlyphClass: 3
Flags: W
AnchorPoint: "Anchor-1" 630 -540 baselig 0
AnchorPoint: "Anchor-0" 675 1425 baselig 0
AnchorPoint: "Anchor-1" -60 -495 baselig 1
AnchorPoint: "Anchor-0" 45 1335 baselig 1
LayerCount: 2
Fore
SplineSet
1013 305 m 1,0,-1
 1013 0 l 1,1,-1
 843 0 l 2,2,3
 639 0 639 0 637 421 c 0,4,5
 637 476 637 476 638 550 c 2,6,-1
 640 679 l 2,7,8
 640 689 640 689 638 730 c 1,9,10
 575 532 575 532 497 346 c 0,11,12
 393 98 393 98 329 39 c 0,13,14
 278 -8 278 -8 109 -24 c 0,15,16
 4 -34 4 -34 -60 -34 c 0,17,18
 -192 -34 -192 -34 -192 1 c 0,19,20
 -192 29 -192 29 -119 62 c 0,21,22
 -66 86 -66 86 104 176 c 0,23,24
 317 289 317 289 325 354 c 0,25,26
 330 393 330 393 288 478 c 0,27,28
 219 618 219 618 67 737 c 0,29,30
 -21 806 -21 806 -223 922 c 0,31,32
 -245 935 -245 935 -242 965 c 0,33,34
 -231 1080 -231 1080 -218 1202 c 0,35,36
 -214 1237 -214 1237 -201 1237 c 0,37,38
 -192 1237 -192 1237 -168 1220 c 0,39,40
 -48 1136 -48 1136 138 1089 c 0,41,42
 195 1075 195 1075 195 1055 c 0,43,44
 195 1030 195 1030 96 986 c 1,45,46
 217 889 217 889 301.5 731 c 128,-1,47
 386 573 386 573 402 418 c 1,48,49
 585 686 585 686 649 1253 c 0,50,51
 656 1319 656 1319 696 1319 c 0,52,53
 732 1319 732 1319 734 1257 c 2,54,-1
 759 604 l 2,55,56
 765 436 765 436 783 385 c 0,57,58
 810 305 810 305 899 305 c 2,59,-1
 1013 305 l 1,0,-1
EndSplineSet
Ligature2: "'rlig' Required Ligatures in Arabic lookup 6 subtable" afii62818 afii62760
PairPos2: "'kern' Horizontal Kerning in Arabic lookup 0 subtable" afii62831 dx=0 dy=0 dh=0 dv=0 dx=0 dy=0 dh=200 dv=0
PairPos2: "'kern' Horizontal Kerning in Arabic lookup 0 subtable" afii57450 dx=0 dy=0 dh=0 dv=0 dx=0 dy=0 dh=250 dv=0
PairPos2: "'kern' Horizontal Kerning in Arabic lookup 0 subtable" afii57449 dx=0 dy=0 dh=0 dv=0 dx=0 dy=0 dh=250 dv=0
PairPos2: "'kern' Horizontal Kerning in Arabic lookup 0 subtable" afii57448 dx=0 dy=0 dh=0 dv=0 dx=0 dy=0 dh=200 dv=0
PairPos2: "'kern' Horizontal Kerning in Arabic lookup 0 subtable" afii57447 dx=0 dy=0 dh=0 dv=0 dx=0 dy=0 dh=100 dv=0
PairPos2: "'kern' Horizontal Kerning in Arabic lookup 0 subtable" afii62823 dx=0 dy=0 dh=0 dv=0 dx=0 dy=0 dh=150 dv=0
PairPos2: "'kern' Horizontal Kerning in Arabic lookup 0 subtable" afii57446 dx=0 dy=0 dh=0 dv=0 dx=0 dy=0 dh=200 dv=0
PairPos2: "'kern' Horizontal Kerning in Arabic lookup 0 subtable" afii62817 dx=0 dy=0 dh=0 dv=0 dx=0 dy=0 dh=250 dv=0
PairPos2: "'kern' Horizontal Kerning in Arabic lookup 0 subtable" afii57444 dx=0 dy=0 dh=0 dv=0 dx=0 dy=0 dh=350 dv=0
PairPos2: "'kern' Horizontal Kerning in Arabic lookup 0 subtable" afii57410 dx=0 dy=0 dh=0 dv=0 dx=0 dy=0 dh=300 dv=0
PairPos2: "'kern' Horizontal Kerning in Arabic lookup 0 subtable" afii57443 dx=0 dy=0 dh=0 dv=0 dx=0 dy=0 dh=250 dv=0
PairPos2: "'kern' Horizontal Kerning in Arabic lookup 0 subtable" afii62811 dx=0 dy=0 dh=0 dv=0 dx=0 dy=0 dh=100 dv=0
PairPos2: "'kern' Horizontal Kerning in Arabic lookup 0 subtable" afii57442 dx=0 dy=0 dh=0 dv=0 dx=0 dy=0 dh=200 dv=0
PairPos2: "'kern' Horizontal Kerning in Arabic lookup 0 subtable" afii62808 dx=0 dy=0 dh=0 dv=0 dx=0 dy=0 dh=100 dv=0
PairPos2: "'kern' Horizontal Kerning in Arabic lookup 0 subtable" afii57441 dx=0 dy=0 dh=0 dv=0 dx=0 dy=0 dh=100 dv=0
PairPos2: "'kern' Horizontal Kerning in Arabic lookup 0 subtable" afii62805 dx=0 dy=0 dh=0 dv=0 dx=0 dy=0 dh=100 dv=0
PairPos2: "'kern' Horizontal Kerning in Arabic lookup 0 subtable" afii57434 dx=0 dy=0 dh=0 dv=0 dx=0 dy=0 dh=150 dv=0
PairPos2: "'kern' Horizontal Kerning in Arabic lookup 0 subtable" afii62802 dx=0 dy=0 dh=0 dv=0 dx=0 dy=0 dh=100 dv=0
PairPos2: "'kern' Horizontal Kerning in Arabic lookup 0 subtable" afii57433 dx=0 dy=0 dh=0 dv=0 dx=0 dy=0 dh=150 dv=0
PairPos2: "'kern' Horizontal Kerning in Arabic lookup 0 subtable" afii62793 dx=0 dy=0 dh=0 dv=0 dx=0 dy=0 dh=100 dv=0
PairPos2: "'kern' Horizontal Kerning in Arabic lookup 0 subtable" afii57430 dx=0 dy=0 dh=0 dv=0 dx=0 dy=0 dh=100 dv=0
PairPos2: "'kern' Horizontal Kerning in Arabic lookup 0 subtable" afii62790 dx=0 dy=0 dh=0 dv=0 dx=0 dy=0 dh=100 dv=0
PairPos2: "'kern' Horizontal Kerning in Arabic lookup 0 subtable" afii57429 dx=0 dy=0 dh=0 dv=0 dx=0 dy=0 dh=100 dv=0
PairPos2: "'kern' Horizontal Kerning in Arabic lookup 0 subtable" afii62787 dx=0 dy=0 dh=0 dv=0 dx=0 dy=0 dh=100 dv=0
PairPos2: "'kern' Horizontal Kerning in Arabic lookup 0 subtable" afii57428 dx=0 dy=0 dh=0 dv=0 dx=0 dy=0 dh=100 dv=0
PairPos2: "'kern' Horizontal Kerning in Arabic lookup 0 subtable" afii62784 dx=0 dy=0 dh=0 dv=0 dx=0 dy=0 dh=100 dv=0
PairPos2: "'kern' Horizontal Kerning in Arabic lookup 0 subtable" afii57427 dx=0 dy=0 dh=0 dv=0 dx=0 dy=0 dh=100 dv=0
PairPos2: "'kern' Horizontal Kerning in Arabic lookup 0 subtable" afii57426 dx=0 dy=0 dh=0 dv=0 dx=0 dy=0 dh=200 dv=0
PairPos2: "'kern' Horizontal Kerning in Arabic lookup 0 subtable" afii57425 dx=0 dy=0 dh=0 dv=0 dx=0 dy=0 dh=200 dv=0
PairPos2: "'kern' Horizontal Kerning in Arabic lookup 0 subtable" afii57424 dx=0 dy=0 dh=0 dv=0 dx=0 dy=0 dh=100 dv=0
PairPos2: "'kern' Horizontal Kerning in Arabic lookup 0 subtable" afii57423 dx=0 dy=0 dh=0 dv=0 dx=0 dy=0 dh=100 dv=0
PairPos2: "'kern' Horizontal Kerning in Arabic lookup 0 subtable" afii57422 dx=0 dy=0 dh=0 dv=0 dx=0 dy=0 dh=100 dv=0
PairPos2: "'kern' Horizontal Kerning in Arabic lookup 0 subtable" afii57421 dx=0 dy=0 dh=0 dv=0 dx=0 dy=0 dh=100 dv=0
PairPos2: "'kern' Horizontal Kerning in Arabic lookup 0 subtable" afii57420 dx=0 dy=0 dh=0 dv=0 dx=0 dy=0 dh=100 dv=0
PairPos2: "'kern' Horizontal Kerning in Arabic lookup 0 subtable" afii62768 dx=0 dy=0 dh=0 dv=0 dx=0 dy=0 dh=150 dv=0
PairPos2: "'kern' Horizontal Kerning in Arabic lookup 0 subtable" afii57419 dx=0 dy=0 dh=0 dv=0 dx=0 dy=0 dh=100 dv=0
PairPos2: "'kern' Horizontal Kerning in Arabic lookup 0 subtable" afii62765 dx=0 dy=0 dh=0 dv=0 dx=0 dy=0 dh=150 dv=0
PairPos2: "'kern' Horizontal Kerning in Arabic lookup 0 subtable" afii57418 dx=0 dy=0 dh=0 dv=0 dx=0 dy=0 dh=100 dv=0
PairPos2: "'kern' Horizontal Kerning in Arabic lookup 0 subtable" afii57417 dx=0 dy=0 dh=0 dv=0 dx=0 dy=0 dh=100 dv=0
PairPos2: "'kern' Horizontal Kerning in Arabic lookup 0 subtable" afii62761 dx=0 dy=0 dh=0 dv=0 dx=0 dy=0 dh=200 dv=0
PairPos2: "'kern' Horizontal Kerning in Arabic lookup 0 subtable" afii57416 dx=0 dy=0 dh=0 dv=0 dx=0 dy=0 dh=100 dv=0
PairPos2: "'kern' Horizontal Kerning in Arabic lookup 0 subtable" afii62757 dx=0 dy=0 dh=0 dv=0 dx=0 dy=0 dh=150 dv=0
PairPos2: "'kern' Horizontal Kerning in Arabic lookup 0 subtable" afii57414 dx=0 dy=0 dh=0 dv=0 dx=0 dy=0 dh=250 dv=0
PairPos2: "'kern' Horizontal Kerning in Arabic lookup 0 subtable" afii57555 dx=0 dy=0 dh=0 dv=0 dx=0 dy=0 dh=250 dv=0
PairPos2: "'kern' Horizontal Kerning in Arabic lookup 0 subtable" afii62965 dx=0 dy=0 dh=0 dv=0 dx=0 dy=0 dh=300 dv=0
PairPos2: "'kern' Horizontal Kerning in Arabic lookup 0 subtable" afii57509 dx=0 dy=0 dh=0 dv=0 dx=0 dy=0 dh=300 dv=0
PairPos2: "'kern' Horizontal Kerning in Arabic lookup 0 subtable" afii52305 dx=0 dy=0 dh=0 dv=0 dx=0 dy=0 dh=300 dv=0
PairPos2: "'kern' Horizontal Kerning in Arabic lookup 0 subtable" afii57567 dx=0 dy=0 dh=0 dv=0 dx=0 dy=0 dh=300 dv=0
PairPos2: "'kern' Horizontal Kerning in Arabic lookup 0 subtable" afii57507 dx=0 dy=0 dh=0 dv=0 dx=0 dy=0 dh=100 dv=0
PairPos2: "'kern' Horizontal Kerning in Arabic lookup 0 subtable" afii57505 dx=0 dy=0 dh=0 dv=0 dx=0 dy=0 dh=100 dv=0
PairPos2: "'kern' Horizontal Kerning in Arabic lookup 0 subtable" afii62956 dx=0 dy=0 dh=0 dv=0 dx=0 dy=0 dh=200 dv=0
PairPos2: "'kern' Horizontal Kerning in Arabic lookup 0 subtable" afii57506 dx=0 dy=0 dh=0 dv=0 dx=0 dy=0 dh=100 dv=0
EndChar

StartChar: afii59759
Encoding: 3663 3663 276
Width: 1233
GlyphClass: 2
Flags: W
LayerCount: 2
Fore
SplineSet
616 983 m 0,0,1
 823 983 823 983 969.5 836.5 c 128,-1,2
 1116 690 1116 690 1116 483 c 0,3,4
 1116 277 1116 277 969.5 130.5 c 128,-1,5
 823 -16 823 -16 616 -16 c 0,6,7
 410 -16 410 -16 263.5 130.5 c 128,-1,8
 117 277 117 277 117 483 c 0,9,10
 117 690 117 690 263.5 836.5 c 128,-1,11
 410 983 410 983 616 983 c 0,0,1
616 147 m 0,12,13
 758 147 758 147 849 242 c 128,-1,14
 940 337 940 337 940 483 c 256,15,16
 940 629 940 629 849 724 c 128,-1,17
 758 819 758 819 616 819 c 0,18,19
 475 819 475 819 384 724 c 128,-1,20
 293 629 293 629 293 483 c 256,21,22
 293 337 293 337 384 242 c 128,-1,23
 475 147 475 147 616 147 c 0,12,13
616 598 m 0,24,25
 664 598 664 598 697.5 565 c 128,-1,26
 731 532 731 532 731 485 c 256,27,28
 731 438 731 438 697.5 404.5 c 128,-1,29
 664 371 664 371 616 371 c 0,30,31
 569 371 569 371 535.5 404.5 c 128,-1,32
 502 438 502 438 502 485 c 256,33,34
 502 532 502 532 535.5 565 c 128,-1,35
 569 598 569 598 616 598 c 0,24,25
EndSplineSet
EndChar

StartChar: afii59760
Encoding: 3664 3664 277
Width: 1233
GlyphClass: 2
Flags: W
LayerCount: 2
Fore
SplineSet
616 924 m 0,0,1
 834 924 834 924 975 794.5 c 128,-1,2
 1116 665 1116 665 1116 453 c 0,3,4
 1116 242 1116 242 975 113 c 128,-1,5
 834 -16 834 -16 616 -16 c 0,6,7
 399 -16 399 -16 258 113 c 128,-1,8
 117 242 117 242 117 453 c 0,9,10
 117 665 117 665 258 794.5 c 128,-1,11
 399 924 399 924 616 924 c 0,0,1
616 150 m 0,12,13
 765 150 765 150 852.5 231 c 128,-1,14
 940 312 940 312 940 453 c 256,15,16
 940 594 940 594 852 677 c 128,-1,17
 764 760 764 760 616 760 c 0,18,19
 469 760 469 760 381 677 c 128,-1,20
 293 594 293 594 293 453 c 0,21,22
 293 310 293 310 381.5 230 c 128,-1,23
 470 150 470 150 616 150 c 0,12,13
EndSplineSet
EndChar

StartChar: glyph279
Encoding: 65559 -1 279
Width: 0
GlyphClass: 2
Flags: W
LayerCount: 2
Fore
SplineSet
36 1831 m 1,0,-1
 36 863 l 1,1,-1
 -36 863 l 1,2,-1
 -36 1831 l 1,3,-1
 36 1831 l 1,0,-1
36 543 m 1,4,-1
 36 -423 l 1,5,-1
 -36 -423 l 1,6,-1
 -36 543 l 1,7,-1
 36 543 l 1,4,-1
EndSplineSet
EndChar

StartChar: glyph280
Encoding: 65560 -1 280
Width: 0
GlyphClass: 2
Flags: W
LayerCount: 2
Fore
SplineSet
-234 -423 m 1,0,-1
 -234 -352 l 1,1,-1
 -36 -352 l 1,2,-1
 -36 1760 l 1,3,-1
 -234 1760 l 1,4,-1
 -234 1831 l 1,5,-1
 234 1831 l 1,6,-1
 234 1760 l 1,7,-1
 36 1760 l 1,8,-1
 36 -352 l 1,9,-1
 234 -352 l 1,10,-1
 234 -423 l 1,11,-1
 -234 -423 l 1,0,-1
EndSplineSet
EndChar

StartChar: glyph281
Encoding: 65561 -1 281
Width: 0
GlyphClass: 2
Flags: W
LayerCount: 2
Fore
SplineSet
224 1646 m 1,0,-1
 36 1504 l 1,1,-1
 36 -423 l 1,2,-1
 -36 -423 l 1,3,-1
 -36 1831 l 1,4,-1
 224 1646 l 1,0,-1
EndSplineSet
EndChar

StartChar: glyph282
Encoding: 65562 -1 282
Width: 0
GlyphClass: 2
Flags: W
LayerCount: 2
Fore
SplineSet
36 1831 m 1,0,-1
 36 -423 l 1,1,-1
 -36 -423 l 1,2,-1
 -36 1504 l 1,3,-1
 -224 1646 l 1,4,-1
 36 1831 l 1,0,-1
EndSplineSet
EndChar

StartChar: glyph283
Encoding: 65563 -1 283
Width: 0
GlyphClass: 2
Flags: W
LayerCount: 2
Fore
SplineSet
36 1831 m 1,0,-1
 36 -352 l 1,1,-1
 234 -352 l 1,2,-1
 234 -423 l 1,3,-1
 -36 -423 l 1,4,-1
 -36 1831 l 1,5,-1
 36 1831 l 1,0,-1
EndSplineSet
EndChar

StartChar: glyph284
Encoding: 65564 -1 284
Width: 0
GlyphClass: 2
Flags: W
LayerCount: 2
Fore
SplineSet
224 1646 m 1,0,-1
 36 1504 l 1,1,-1
 36 -423 l 1,2,-1
 -36 -423 l 1,3,-1
 -36 1504 l 1,4,-1
 -224 1641 l 1,5,-1
 0 1831 l 1,6,-1
 224 1646 l 1,0,-1
EndSplineSet
EndChar

StartChar: uni0670
Encoding: 1648 1648 297
Width: 0
GlyphClass: 4
Flags: W
AnchorPoint: "Anchor-2" 0 0 mark 0
AnchorPoint: "Anchor-0" 0 0 mark 0
LayerCount: 2
Fore
SplineSet
20 60 m 1,0,-1
 -31 -17 l 1,1,2
 -37 -17 -37 -17 -41 4 c 0,3,4
 -56 91 -56 91 -88 321 c 1,5,-1
 -1 381 l 2,6,7
 6 385 6 385 11 385 c 0,8,9
 17 385 17 385 18 378 c 0,10,11
 18 283 18 283 20 60 c 1,0,-1
EndSplineSet
EndChar

StartChar: glyph298
Encoding: 65565 -1 298
Width: 458
GlyphClass: 2
Flags: W
LayerCount: 2
Fore
SplineSet
235 1433 m 2,0,1
 266 1457 266 1457 294 1461.5 c 128,-1,2
 322 1466 322 1466 343 1455 c 128,-1,3
 364 1444 364 1444 377 1419 c 128,-1,4
 390 1394 390 1394 390 1357 c 2,5,-1
 389 1277 l 1,6,-1
 69 1277 l 1,7,-1
 69 1335 l 1,8,-1
 123 1335 l 1,9,-1
 235 1433 l 2,0,1
203 1335 m 1,10,-1
 331 1335 l 1,11,-1
 331 1365 l 2,12,13
 329 1394 329 1394 311 1402 c 128,-1,14
 293 1410 293 1410 263 1388 c 2,15,-1
 203 1335 l 1,10,-1
EndSplineSet
EndChar

StartChar: glyph299
Encoding: 65566 -1 299
Width: 1357
GlyphClass: 2
Flags: W
LayerCount: 2
Fore
SplineSet
1353 372 m 0,0,1
 1353 5 1353 5 1191 -166 c 0,2,3
 1024 -343 1024 -343 660 -343 c 0,4,5
 442 -343 442 -343 294 -261 c 0,6,7
 110 -159 110 -159 110 42 c 0,8,9
 110 288 110 288 195 448 c 0,10,11
 216 488 216 488 247 488 c 0,12,13
 279 488 279 488 279 450 c 0,14,15
 279 438 279 438 273 421 c 0,16,17
 247 349 247 349 247 274 c 0,18,19
 247 102 247 102 413 22 c 0,20,21
 538 -38 538 -38 731 -38 c 0,22,23
 921 -38 921 -38 1055 18 c 0,24,25
 1239 95 1239 95 1239 259 c 1,26,27
 1023 259 1023 259 942 275 c 0,28,29
 746 314 746 314 746 448 c 0,30,31
 746 546 746 546 818 735 c 0,32,33
 915 990 915 990 1054 990 c 0,34,35
 1164 990 1164 990 1248 854 c 0,36,37
 1353 685 1353 685 1353 372 c 0,0,1
EndSplineSet
EndChar

StartChar: uni06DD
Encoding: 1757 1757 388
Width: 2300
GlyphClass: 2
Flags: W
LayerCount: 2
Fore
SplineSet
2250 715 m 256,0,1
 2250 469 2250 469 2146 249 c 0,2,3
 2046 35 2046 35 1867 -119 c 1,4,5
 1870 -133 1870 -133 1870 -148 c 0,6,7
 1870 -203 1870 -203 1831 -241.5 c 128,-1,8
 1792 -280 1792 -280 1737 -280 c 0,9,10
 1697 -280 1697 -280 1664 -258 c 1,11,12
 1424 -385 1424 -385 1149 -385 c 0,13,14
 876 -385 876 -385 636 -258 c 1,15,16
 603 -280 603 -280 563 -280 c 0,17,18
 508 -280 508 -280 469 -241.5 c 128,-1,19
 430 -203 430 -203 430 -148 c 0,20,21
 430 -133 430 -133 433 -119 c 1,22,23
 254 35 254 35 154 249 c 0,24,25
 50 469 50 469 50 715 c 256,26,27
 50 961 50 961 154 1181 c 0,28,29
 254 1394 254 1394 433 1548 c 1,30,31
 430 1562 430 1562 430 1577 c 0,32,33
 430 1632 430 1632 469 1670.5 c 128,-1,34
 508 1709 508 1709 563 1709 c 0,35,36
 603 1709 603 1709 636 1687 c 1,37,38
 876 1814 876 1814 1151 1814 c 0,39,40
 1424 1814 1424 1814 1664 1687 c 1,41,42
 1697 1709 1697 1709 1737 1709 c 0,43,44
 1792 1709 1792 1709 1831 1670.5 c 128,-1,45
 1870 1632 1870 1632 1870 1577 c 0,46,47
 1870 1562 1870 1562 1867 1548 c 1,48,49
 2046 1394 2046 1394 2146 1181 c 0,50,51
 2250 961 2250 961 2250 715 c 256,0,1
1816 1576 m 0,52,53
 1816 1609 1816 1609 1793 1632 c 128,-1,54
 1770 1655 1770 1655 1738 1655 c 256,55,56
 1706 1655 1706 1655 1682.5 1631.5 c 128,-1,57
 1659 1608 1659 1608 1659 1576 c 256,58,59
 1659 1544 1659 1544 1682 1521 c 128,-1,60
 1705 1498 1705 1498 1738 1498 c 0,61,62
 1770 1498 1770 1498 1793 1521 c 128,-1,63
 1816 1544 1816 1544 1816 1576 c 0,52,53
1602 1595 m 1,64,65
 1390 1704 1390 1704 1151 1704 c 0,66,67
 910 1704 910 1704 698 1595 c 1,68,-1
 1602 1595 l 1,64,65
641 1576 m 256,69,70
 641 1608 641 1608 617.5 1631.5 c 128,-1,71
 594 1655 594 1655 562 1655 c 256,72,73
 530 1655 530 1655 507 1632 c 128,-1,74
 484 1609 484 1609 484 1576 c 0,75,76
 484 1544 484 1544 507 1521 c 128,-1,77
 530 1498 530 1498 562 1498 c 0,78,79
 595 1498 595 1498 618 1521 c 128,-1,80
 641 1544 641 1544 641 1576 c 256,69,70
2140 714 m 0,81,82
 2140 933 2140 933 2048 1131 c 0,83,84
 1960 1321 1960 1321 1801 1460 c 1,85,86
 1772 1444 1772 1444 1737 1444 c 0,87,88
 1681 1444 1681 1444 1642 1485 c 1,89,-1
 658 1485 l 1,90,91
 619 1444 619 1444 563 1444 c 0,92,93
 528 1444 528 1444 499 1460 c 1,94,95
 340 1321 340 1321 252 1131 c 0,96,97
 160 933 160 933 160 714 c 0,98,99
 160 265 160 265 499 -31 c 1,100,101
 528 -15 528 -15 563 -15 c 0,102,103
 619 -15 619 -15 658 -56 c 1,104,-1
 1642 -56 l 1,105,106
 1681 -15 1681 -15 1737 -15 c 0,107,108
 1772 -15 1772 -15 1801 -31 c 1,109,110
 2140 265 2140 265 2140 714 c 0,81,82
1816 -147 m 0,111,112
 1816 -115 1816 -115 1793 -92 c 128,-1,113
 1770 -69 1770 -69 1738 -69 c 0,114,115
 1705 -69 1705 -69 1682 -92 c 128,-1,116
 1659 -115 1659 -115 1659 -147 c 256,117,118
 1659 -179 1659 -179 1682.5 -202.5 c 128,-1,119
 1706 -226 1706 -226 1738 -226 c 256,120,121
 1770 -226 1770 -226 1793 -203 c 128,-1,122
 1816 -180 1816 -180 1816 -147 c 0,111,112
1602 -166 m 1,123,-1
 698 -166 l 1,124,125
 910 -275 910 -275 1151 -275 c 0,126,127
 1390 -275 1390 -275 1602 -166 c 1,123,-1
641 -147 m 256,128,129
 641 -115 641 -115 618 -92 c 128,-1,130
 595 -69 595 -69 562 -69 c 0,131,132
 530 -69 530 -69 507 -92 c 128,-1,133
 484 -115 484 -115 484 -147 c 0,134,135
 484 -180 484 -180 507 -203 c 128,-1,136
 530 -226 530 -226 562 -226 c 256,137,138
 594 -226 594 -226 617.5 -202.5 c 128,-1,139
 641 -179 641 -179 641 -147 c 256,128,129
EndSplineSet
EndChar

StartChar: uni06DE
Encoding: 1758 1758 389
Width: 2221
GlyphClass: 2
Flags: W
LayerCount: 2
Fore
SplineSet
2171 750 m 1,0,-1
 1861 439 l 1,1,-1
 1861 0 l 1,2,-1
 1421 0 l 1,3,-1
 1111 -311 l 1,4,-1
 800 0 l 1,5,-1
 361 0 l 1,6,-1
 361 439 l 1,7,-1
 50 750 l 1,8,-1
 361 1061 l 1,9,-1
 361 1500 l 1,10,-1
 800 1500 l 1,11,-1
 1111 1811 l 1,12,-1
 1421 1500 l 1,13,-1
 1861 1500 l 1,14,-1
 1861 1061 l 1,15,-1
 2171 750 l 1,0,-1
436 364 m 1,16,-1
 436 75 l 1,17,-1
 725 75 l 1,18,-1
 436 364 l 1,16,-1
725 1425 m 1,19,-1
 436 1425 l 1,20,-1
 436 1136 l 1,21,-1
 725 1425 l 1,19,-1
1786 1136 m 1,22,-1
 1786 1425 l 1,23,-1
 1496 1425 l 1,24,-1
 1786 1136 l 1,22,-1
1786 75 m 1,25,-1
 1786 364 l 1,26,-1
 1496 75 l 1,27,-1
 1786 75 l 1,25,-1
906 0 m 1,28,-1
 1111 -205 l 1,29,-1
 1315 0 l 1,30,-1
 906 0 l 1,28,-1
361 955 m 1,31,-1
 156 750 l 1,32,-1
 361 545 l 1,33,-1
 361 955 l 1,31,-1
1315 1500 m 1,34,-1
 1111 1705 l 1,35,-1
 906 1500 l 1,36,-1
 1315 1500 l 1,34,-1
1786 1030 m 1,37,-1
 1390 1425 l 1,38,-1
 831 1425 l 1,39,-1
 436 1030 l 1,40,-1
 436 470 l 1,41,-1
 831 75 l 1,42,-1
 1390 75 l 1,43,-1
 1786 470 l 1,44,-1
 1786 1030 l 1,37,-1
2065 750 m 1,45,-1
 1861 955 l 1,46,-1
 1861 545 l 1,47,-1
 2065 750 l 1,45,-1
1328 750 m 256,48,49
 1328 660 1328 660 1264.5 596 c 128,-1,50
 1201 532 1201 532 1111 532 c 256,51,52
 1021 532 1021 532 957 596 c 128,-1,53
 893 660 893 660 893 750 c 256,54,55
 893 840 893 840 957 903.5 c 128,-1,56
 1021 967 1021 967 1111 967 c 256,57,58
 1201 967 1201 967 1264.5 903.5 c 128,-1,59
 1328 840 1328 840 1328 750 c 256,48,49
1253 750 m 256,60,61
 1253 809 1253 809 1211 850.5 c 128,-1,62
 1169 892 1169 892 1110 892 c 256,63,64
 1051 892 1051 892 1009 850.5 c 128,-1,65
 967 809 967 809 967 750 c 256,66,67
 967 691 967 691 1009 649 c 128,-1,68
 1051 607 1051 607 1110 607 c 256,69,70
 1169 607 1169 607 1211 649 c 128,-1,71
 1253 691 1253 691 1253 750 c 256,60,61
EndSplineSet
EndChar

StartChar: uni06DF
Encoding: 1759 1759 390
Width: 0
GlyphClass: 2
Flags: W
LayerCount: 2
Fore
SplineSet
75 1429 m 256,0,1
 75 1398 75 1398 53 1376 c 128,-1,2
 31 1354 31 1354 0 1354 c 256,3,4
 -31 1354 -31 1354 -53 1376 c 128,-1,5
 -75 1398 -75 1398 -75 1429 c 256,6,7
 -75 1460 -75 1460 -53 1482 c 128,-1,8
 -31 1504 -31 1504 0 1504 c 256,9,10
 31 1504 31 1504 53 1482 c 128,-1,11
 75 1460 75 1460 75 1429 c 256,0,1
EndSplineSet
EndChar

StartChar: uni06E9
Encoding: 1769 1769 391
Width: 1229
GlyphClass: 2
Flags: W
LayerCount: 2
Fore
SplineSet
1179 0 m 1,0,-1
 50 0 l 1,1,-1
 278 261 l 1,2,-1
 278 849 l 1,3,-1
 50 1108 l 1,4,-1
 614 1676 l 1,5,-1
 1179 1108 l 1,6,-1
 951 849 l 1,7,-1
 951 261 l 1,8,-1
 1179 0 l 1,0,-1
1101 1108 m 1,9,-1
 614 1598 l 1,10,-1
 128 1108 l 1,11,-1
 338 871 l 1,12,-1
 338 239 l 1,13,-1
 178 56 l 1,14,-1
 1051 56 l 1,15,-1
 891 239 l 1,16,-1
 891 871 l 1,17,-1
 1101 1108 l 1,9,-1
995 1108 m 1,18,-1
 845 937 l 1,19,-1
 845 131 l 1,20,-1
 384 131 l 1,21,-1
 384 937 l 1,22,-1
 234 1108 l 1,23,-1
 614 1489 l 1,24,-1
 995 1108 l 1,18,-1
922 1108 m 1,25,-1
 614 1416 l 1,26,-1
 307 1108 l 1,27,-1
 433 968 l 1,28,-1
 433 186 l 1,29,-1
 796 186 l 1,30,-1
 796 968 l 1,31,-1
 922 1108 l 1,25,-1
833 1108 m 1,32,-1
 745 1011 l 1,33,-1
 745 267 l 1,34,-1
 484 267 l 1,35,-1
 484 1011 l 1,36,-1
 396 1108 l 1,37,-1
 614 1331 l 1,38,-1
 833 1108 l 1,32,-1
780 1108 m 1,39,-1
 614 1278 l 1,40,-1
 449 1108 l 1,41,-1
 523 1027 l 1,42,-1
 523 309 l 1,43,-1
 705 309 l 1,44,-1
 705 1027 l 1,45,-1
 780 1108 l 1,39,-1
EndSplineSet
EndChar

StartChar: uni06EB
Encoding: 1771 1771 393
Width: 0
GlyphClass: 2
Flags: W
LayerCount: 2
Fore
SplineSet
168 1522 m 1,0,-1
 -1 1354 l 1,1,-1
 -168 1521 l 1,2,-1
 1 1689 l 1,3,-1
 168 1522 l 1,0,-1
104 1522 m 1,4,-1
 0 1626 l 1,5,-1
 -104 1521 l 1,6,-1
 0 1417 l 1,7,-1
 104 1522 l 1,4,-1
EndSplineSet
EndChar

StartChar: comma
Encoding: 44 44 402
Width: 442
Flags: W
LayerCount: 2
Fore
SplineSet
88 -310 m 1,0,-1
 88 -271 l 1,1,2
 187 -228 187 -228 232.5 -160 c 128,-1,3
 278 -92 278 -92 278 -20 c 0,4,5
 278 -6 278 -6 272 2 c 0,6,7
 267 10 267 10 261 10 c 0,8,9
 256 10 256 10 245 3 c 0,10,11
 220 -11 220 -11 183 -11 c 0,12,13
 131 -11 131 -11 94 28.5 c 128,-1,14
 57 68 57 68 57 122 c 0,15,16
 57 179 57 179 100 222.5 c 128,-1,17
 143 266 143 266 205 266 c 0,18,19
 278 266 278 266 331 208 c 128,-1,20
 384 150 384 150 384 50 c 0,21,22
 384 -74 384 -74 309.5 -170 c 128,-1,23
 235 -266 235 -266 88 -310 c 1,0,-1
EndSplineSet
EndChar

StartChar: afii57407
Encoding: 1567 1567 403
Width: 845
GlyphClass: 2
Flags: W
LayerCount: 2
Fore
SplineSet
465 297 m 1,0,1
 465 345 465 345 461 375.5 c 128,-1,2
 457 406 457 406 444 429 c 128,-1,3
 431 452 431 452 406.5 471 c 128,-1,4
 382 490 382 490 341 516 c 0,5,6
 282 553 282 553 241.5 585.5 c 128,-1,7
 201 618 201 618 176.5 652 c 128,-1,8
 152 686 152 686 141.5 723 c 128,-1,9
 131 760 131 760 131 805 c 0,10,11
 131 871 131 871 156 924 c 128,-1,12
 181 977 181 977 226.5 1015 c 128,-1,13
 272 1053 272 1053 336 1073.5 c 128,-1,14
 400 1094 400 1094 478 1094 c 0,15,16
 550 1094 550 1094 610.5 1075.5 c 128,-1,17
 671 1057 671 1057 714.5 1024 c 128,-1,18
 758 991 758 991 782 945 c 128,-1,19
 806 899 806 899 806 844 c 0,20,21
 806 815 806 815 797 791 c 128,-1,22
 788 767 788 767 772 749.5 c 128,-1,23
 756 732 756 732 734.5 722 c 128,-1,24
 713 712 713 712 687 712 c 0,25,26
 637 712 637 712 607.5 742.5 c 128,-1,27
 578 773 578 773 578 823 c 0,28,29
 578 849 578 849 586 867.5 c 128,-1,30
 594 886 594 886 616 912 c 0,31,32
 632 929 632 929 637 939 c 128,-1,33
 642 949 642 949 642 962 c 0,34,35
 642 994 642 994 613 1012.5 c 128,-1,36
 584 1031 584 1031 536 1031 c 0,37,38
 466 1031 466 1031 428 972 c 128,-1,39
 390 913 390 913 390 805 c 0,40,41
 390 771 390 771 393.5 741.5 c 128,-1,42
 397 712 397 712 405.5 682 c 128,-1,43
 414 652 414 652 428.5 619 c 128,-1,44
 443 586 443 586 465 546 c 0,45,46
 480 516 480 516 490.5 492.5 c 128,-1,47
 501 469 501 469 507.5 449.5 c 128,-1,48
 514 430 514 430 517 412.5 c 128,-1,49
 520 395 520 395 520 377 c 0,50,51
 520 370 520 370 520 364 c 128,-1,52
 520 358 520 358 519.5 349.5 c 128,-1,53
 519 341 519 341 518.5 329 c 128,-1,54
 518 317 518 317 517 297 c 1,55,-1
 465 297 l 1,0,1
592 117 m 256,56,57
 592 70 592 70 560.5 38 c 128,-1,58
 529 6 529 6 481 6 c 0,59,60
 434 6 434 6 402.5 38 c 128,-1,61
 371 70 371 70 371 117 c 256,62,63
 371 164 371 164 403 196.5 c 128,-1,64
 435 229 435 229 481 229 c 0,65,66
 528 229 528 229 560 196.5 c 128,-1,67
 592 164 592 164 592 117 c 256,56,57
EndSplineSet
EndChar

StartChar: afii57392
Encoding: 1776 1776 404
Width: 476
Flags: W
LayerCount: 2
Fore
SplineSet
469 530 m 1,0,-1
 236 300 l 1,1,-1
 3 532 l 1,2,-1
 233 763 l 1,3,-1
 469 530 l 1,0,-1
EndSplineSet
EndChar

StartChar: afii57393
Encoding: 1777 1777 405
Width: 531
Flags: W
LayerCount: 2
Fore
SplineSet
454 412 m 0,0,1
 454 321 454 321 430 179 c 0,2,3
 398 -9 398 -9 351 -9 c 0,4,5
 312 -9 312 -9 312 197 c 0,6,7
 312 698 312 698 97 1064 c 1,8,-1
 243 1327 l 2,9,10
 253 1345 253 1345 266 1345 c 0,11,12
 282 1345 282 1345 312 1281 c 0,13,14
 361 1176 361 1176 397 1007 c 0,15,16
 454 742 454 742 454 412 c 0,0,1
EndSplineSet
EndChar

StartChar: afii57394
Encoding: 1778 1778 406
Width: 773
Flags: W
LayerCount: 2
Fore
SplineSet
772 1284 m 0,0,1
 714 839 714 839 417 839 c 0,2,3
 396 839 396 839 375 842 c 1,4,5
 397 578 397 578 397 442 c 0,6,7
 397 322 397 322 365 168 c 0,8,9
 328 -9 328 -9 286 -9 c 0,10,11
 269 -9 269 -9 261 158 c 0,12,13
 239 598 239 598 102 886 c 0,14,15
 80 932 80 932 9 1044 c 1,16,-1
 146 1322 l 2,17,18
 158 1346 158 1346 170 1346 c 0,19,20
 181 1346 181 1346 194 1327 c 0,21,22
 266 1221 266 1221 274 1213 c 0,23,24
 340 1143 340 1143 432 1143 c 0,25,26
 548 1143 548 1143 630 1215 c 0,27,28
 662 1243 662 1243 710 1316 c 0,29,30
 727 1342 727 1342 749 1342 c 0,31,32
 774 1342 774 1342 774 1302 c 0,33,34
 774 1297 774 1297 772 1284 c 0,0,1
EndSplineSet
EndChar

StartChar: afii57395
Encoding: 1779 1779 407
Width: 924
Flags: W
LayerCount: 2
Fore
SplineSet
933 1294 m 0,0,1
 933 1144 933 1144 869 1017 c 0,2,3
 796 873 796 873 689 873 c 0,4,5
 599 873 599 873 555 940 c 1,6,7
 474 844 474 844 355 852 c 1,8,9
 376 741 376 741 376 448 c 0,10,11
 376 343 376 343 356 203 c 0,12,13
 327 2 327 2 278 2 c 0,14,15
 254 2 254 2 252 69 c 2,16,-1
 246 268 l 2,17,18
 241 415 241 415 205 588 c 0,19,20
 177 725 177 725 109 872 c 0,21,22
 50 1000 50 1000 2 1060 c 1,23,-1
 123 1311 l 2,24,25
 140 1347 140 1347 157 1347 c 0,26,27
 171 1347 171 1347 187 1315 c 0,28,29
 261 1170 261 1170 363 1170 c 0,30,31
 442 1170 442 1170 485 1216 c 0,32,33
 510 1243 510 1243 532 1302 c 0,34,35
 549 1349 549 1349 563 1349 c 0,36,37
 584 1349 584 1349 596 1302 c 0,38,39
 612 1236 612 1236 624 1216 c 0,40,41
 651 1170 651 1170 709 1170 c 0,42,43
 768 1170 768 1170 810 1216 c 0,44,45
 831 1239 831 1239 863 1302 c 0,46,47
 887 1349 887 1349 899 1349 c 0,48,49
 933 1349 933 1349 933 1294 c 0,0,1
EndSplineSet
EndChar

StartChar: afii62843
Encoding: 1780 1780 408
Width: 806
Flags: W
LayerCount: 2
Fore
SplineSet
809 1108 m 0,0,1
 809 1008 809 1008 719 913 c 0,2,3
 610 797 610 797 439 797 c 0,4,5
 403 797 403 797 364 803 c 1,6,7
 384 677 384 677 384 419 c 0,8,9
 384 335 384 335 358 188 c 0,10,11
 325 0 325 0 280 0 c 0,12,13
 253 0 253 0 247 155 c 0,14,15
 239 389 239 389 218 505 c 0,16,17
 160 834 160 834 -4 1047 c 1,18,-1
 131 1317 l 2,19,20
 150 1355 150 1355 163 1355 c 0,21,22
 174 1355 174 1355 190 1321 c 0,23,24
 270 1149 270 1149 307 1115 c 1,25,26
 342 1217 342 1217 411 1288 c 0,27,28
 494 1374 494 1374 591 1374 c 0,29,30
 659 1374 659 1374 723 1312 c 0,31,32
 779 1258 779 1258 779 1225 c 0,33,34
 779 1189 779 1189 744 1189 c 0,35,36
 726 1189 726 1189 671 1208.5 c 128,-1,37
 616 1228 616 1228 585 1228 c 0,38,39
 531 1228 531 1228 481 1196 c 0,40,41
 425 1160 425 1160 425 1109 c 0,42,43
 425 1019 425 1019 541 1019 c 0,44,45
 632 1019 632 1019 692 1058 c 0,46,47
 718 1075 718 1075 755 1109 c 0,48,49
 781 1133 781 1133 788 1133 c 0,50,51
 809 1133 809 1133 809 1108 c 0,0,1
EndSplineSet
EndChar

StartChar: afii62844
Encoding: 1781 1781 409
Width: 837
Flags: W
LayerCount: 2
Fore
SplineSet
835 448 m 0,0,1
 835 287 835 287 760 150 c 0,2,3
 677 -2 677 -2 559 -2 c 0,4,5
 457 -2 457 -2 396 82 c 1,6,7
 316 10 316 10 209 10 c 0,8,9
 108 10 108 10 52 108 c 0,10,11
 6 189 6 189 6 297 c 0,12,13
 6 451 6 451 110 708 c 0,14,15
 196 920 196 920 285 1055 c 1,16,-1
 232 1115 l 1,17,-1
 364 1356 l 2,18,19
 385 1394 385 1394 393 1394 c 256,20,21
 401 1394 401 1394 416 1378 c 0,22,23
 835 942 835 942 835 448 c 0,0,1
674 380 m 0,24,25
 674 515 674 515 553 720 c 0,26,27
 456 884 456 884 349 995 c 1,28,29
 276 874 276 874 218 731 c 0,30,31
 146 554 146 554 146 452 c 0,32,33
 146 272 146 272 255 272 c 0,34,35
 315 272 315 272 347 307 c 0,36,37
 365 326 365 326 380 371 c 0,38,39
 392 406 392 406 403 406 c 0,40,41
 417 406 417 406 432 369 c 0,42,43
 452 320 452 320 471 300 c 0,44,45
 506 264 506 264 573 264 c 0,46,47
 618 264 618 264 647 300 c 0,48,49
 674 333 674 333 674 380 c 0,24,25
EndSplineSet
EndChar

StartChar: afii62845
Encoding: 1782 1782 410
Width: 834
Flags: W
LayerCount: 2
Fore
SplineSet
833 971 m 0,0,1
 829 936 829 936 793 813 c 0,2,3
 755 682 755 682 742 673 c 1,4,5
 717 664 717 664 652 640 c 0,6,7
 555 602 555 602 431 487 c 0,8,9
 328 390 328 390 250 284 c 1,10,11
 169 195 169 195 85 59 c 0,12,13
 42 -10 42 -10 13 -10 c 0,14,15
 -15 -10 -15 -10 -15 51 c 0,16,17
 -15 184 -15 184 119 404 c 0,18,19
 188 517 188 517 286 635 c 1,20,21
 166 668 166 668 115 713 c 0,22,23
 52 769 52 769 52 874 c 0,24,25
 52 1005 52 1005 174 1148 c 0,26,27
 350 1355 350 1355 479 1355 c 0,28,29
 555 1355 555 1355 629 1305 c 0,30,31
 711 1249 711 1249 711 1177 c 0,32,33
 711 1116 711 1116 667 1116 c 0,34,35
 643 1116 643 1116 569 1137 c 128,-1,36
 495 1158 495 1158 456 1158 c 0,37,38
 351 1158 351 1158 280 1085 c 0,39,40
 221 1025 221 1025 221 967 c 0,41,42
 221 850 221 850 449 850 c 0,43,44
 499 850 499 850 645 931.5 c 128,-1,45
 791 1013 791 1013 808 1013 c 0,46,47
 835 1013 835 1013 835 987 c 0,48,49
 835 979 835 979 833 971 c 0,0,1
EndSplineSet
EndChar

StartChar: afii57399
Encoding: 1783 1783 411
Width: 908
Flags: W
LayerCount: 2
Fore
SplineSet
916 1056 m 1,0,1
 819 951 819 951 757 861 c 0,2,3
 651 708 651 708 588 518 c 0,4,5
 542 380 542 380 499 145 c 0,6,7
 473 6 473 6 450 6 c 0,8,9
 422 6 422 6 398 148 c 0,10,11
 360 372 360 372 307 537 c 0,12,13
 217 817 217 817 -4 1052 c 1,14,-1
 62 1337 l 2,15,16
 70 1372 70 1372 86 1372 c 0,17,18
 99 1372 99 1372 117 1352 c 0,19,20
 235 1221 235 1221 328 1030 c 0,21,22
 418 845 418 845 455 665 c 1,23,24
 516 1030 516 1030 776 1340 c 0,25,26
 799 1367 799 1367 809 1367 c 0,27,28
 820 1367 820 1367 832 1328 c 2,29,-1
 916 1056 l 1,0,1
EndSplineSet
EndChar

StartChar: afii57400
Encoding: 1784 1784 412
Width: 914
Flags: W
LayerCount: 2
Fore
SplineSet
-5 335 m 1,0,1
 97 446 97 446 155 529 c 0,2,3
 328 778 328 778 413 1246 c 0,4,5
 438 1385 438 1385 462 1385 c 0,6,7
 489 1385 489 1385 514 1242 c 0,8,9
 555 1007 555 1007 604 854 c 0,10,11
 694 575 694 575 916 339 c 1,12,-1
 850 54 l 2,13,14
 842 19 842 19 826 19 c 0,15,16
 813 19 813 19 795 39 c 0,17,18
 676 171 676 171 584 361 c 0,19,20
 494 546 494 546 457 726 c 1,21,22
 396 361 396 361 136 51 c 0,23,24
 113 24 113 24 103 24 c 0,25,26
 91 24 91 24 79 63 c 2,27,-1
 -5 335 l 1,0,1
EndSplineSet
EndChar

StartChar: afii57401
Encoding: 1785 1785 413
Width: 754
Flags: W
LayerCount: 2
Fore
SplineSet
748 311 m 1,0,-1
 725 -11 l 1,1,2
 494 25 494 25 422 297 c 0,3,4
 388 426 388 426 391 677 c 1,5,6
 301 668 301 668 248 668 c 0,7,8
 2 668 2 668 2 849 c 0,9,10
 2 957 2 957 70 1128 c 0,11,12
 163 1362 163 1362 303 1362 c 0,13,14
 559 1362 559 1362 559 845 c 0,15,16
 559 577 559 577 599 473 c 0,17,18
 633 385 633 385 748 311 c 1,0,-1
EndSplineSet
EndChar

StartChar: afii57392.001
Encoding: 1632 1632 414
Width: 1023
Flags: W
LayerCount: 2
Fore
SplineSet
744 626 m 1,0,-1
 499 385 l 1,1,-1
 258 628 l 1,2,-1
 498 870 l 1,3,-1
 744 626 l 1,0,-1
EndSplineSet
EndChar

StartChar: afii57393.001
Encoding: 1633 1633 415
Width: 357
Flags: W
LayerCount: 2
Fore
SplineSet
352 418 m 0,0,1
 352 319 352 319 329 183 c 0,2,3
 302 -2 302 -2 250 -2 c 0,4,5
 212 -2 212 -2 212 202 c 0,6,7
 212 684 212 684 2 1064 c 1,8,9
 41 1143 41 1143 83 1217 c 0,10,11
 151 1342 151 1342 166 1342 c 0,12,13
 194 1342 194 1342 234 1229 c 0,14,15
 352 881 352 881 352 418 c 0,0,1
EndSplineSet
EndChar

StartChar: afii57394.001
Encoding: 1634 1634 416
Width: 749
Flags: W
LayerCount: 2
Fore
SplineSet
741 1281 m 0,0,1
 741 1259 741 1259 723 1178 c 0,2,3
 690 1036 690 1036 620 949 c 0,4,5
 528 839 528 839 398 850 c 1,6,-1
 356 855 l 1,7,8
 380 596 380 596 380 459 c 0,9,10
 380 365 380 365 353 218 c 0,11,12
 319 21 319 21 270 21 c 0,13,14
 253 21 253 21 249 112 c 0,15,16
 244 220 244 220 224 433 c 0,17,18
 224 452 224 452 192 580 c 0,19,20
 131 837 131 837 1 1047 c 1,21,22
 39 1128 39 1128 76 1209 c 0,23,24
 143 1340 143 1340 159 1340 c 0,25,26
 172 1340 172 1340 201 1294 c 0,27,28
 244 1228 244 1228 277 1198 c 0,29,30
 335 1148 335 1148 414 1148 c 0,31,32
 507 1148 507 1148 578 1198 c 0,33,34
 620 1226 620 1226 664 1287 c 0,35,36
 703 1338 703 1338 720 1338 c 0,37,38
 741 1338 741 1338 741 1281 c 0,0,1
EndSplineSet
EndChar

StartChar: afii57395.001
Encoding: 1635 1635 417
Width: 924
Flags: W
LayerCount: 2
Fore
SplineSet
922 1279 m 0,0,1
 922 1147 922 1147 865 1021 c 0,2,3
 797 862 797 862 675 862 c 0,4,5
 592 862 592 862 546 931 c 1,6,7
 472 844 472 844 346 844 c 1,8,9
 365 742 365 742 365 422 c 0,10,11
 365 319 365 319 346 179 c 0,12,13
 318 -7 318 -7 268 -7 c 0,14,15
 247 -7 247 -7 240 118 c 0,16,17
 235 188 235 188 235 258 c 0,18,19
 220 746 220 746 -5 1048 c 1,20,21
 32 1126 32 1126 66 1205 c 1,22,23
 130 1336 130 1336 147 1336 c 0,24,25
 159 1336 159 1336 189 1287 c 0,26,27
 222 1233 222 1233 249 1200 c 1,28,29
 293 1157 293 1157 353 1157 c 0,30,31
 432 1157 432 1157 480 1209 c 0,32,33
 493 1228 493 1228 555 1338 c 1,34,35
 569 1338 569 1338 581 1289 c 0,36,37
 601 1228 601 1228 613 1200 c 1,38,39
 648 1157 648 1157 697 1157 c 0,40,41
 762 1157 762 1157 812 1222 c 1,42,43
 850 1279 850 1279 886 1338 c 1,44,45
 922 1338 922 1338 922 1279 c 0,0,1
EndSplineSet
EndChar

StartChar: afii57396
Encoding: 1636 1636 418
Width: 718
Flags: W
LayerCount: 2
Fore
SplineSet
703 236 m 1,0,1
 643 114 643 114 530 40 c 1,2,3
 436 -16 436 -16 337 -16 c 0,4,5
 215 -16 215 -16 128 30 c 0,6,7
 31 77 31 77 31 164 c 0,8,9
 31 234 31 234 134.5 384.5 c 128,-1,10
 238 535 238 535 238 547 c 0,11,12
 238 579 238 579 182 599 c 0,13,14
 78 640 78 640 76 640 c 0,15,16
 22 673 22 673 22 726 c 0,17,18
 22 846 22 846 136 1029 c 0,19,20
 266 1240 266 1240 445 1336 c 0,21,22
 477 1351 477 1351 477 1255 c 0,23,24
 477 1124 477 1124 454 1057 c 1,25,26
 381 1017 381 1017 305 981 c 1,27,28
 206 922 206 922 206 888 c 0,29,30
 206 853 206 853 279 830 c 0,31,32
 401 787 401 787 418 778 c 0,33,34
 490 741 490 741 490 673 c 0,35,36
 490 623 490 623 372 481 c 128,-1,37
 254 339 254 339 254 322 c 0,38,39
 254 276 254 276 309 262 c 0,40,41
 335 255 335 255 401 255 c 0,42,43
 565 255 565 255 669 306 c 0,44,45
 679 311 679 311 690 311 c 0,46,47
 722 311 722 311 722 280 c 0,48,49
 722 262 722 262 703 236 c 1,0,1
EndSplineSet
EndChar

StartChar: afii57397
Encoding: 1637 1637 419
Width: 749
Flags: W
LayerCount: 2
Fore
SplineSet
743 612 m 0,0,1
 743 378 743 378 619 247 c 0,2,3
 503 123 503 123 324 123 c 0,4,5
 147 123 147 123 76 210 c 128,-1,6
 5 297 5 297 5 498 c 0,7,8
 5 717 5 717 131 948 c 0,9,10
 261 1183 261 1183 398 1183 c 0,11,12
 520 1183 520 1183 617 1060 c 0,13,14
 743 901 743 901 743 612 c 0,0,1
604 599 m 0,15,16
 604 732 604 732 525 805 c 0,17,18
 455 870 455 870 360 870 c 0,19,20
 298 870 298 870 221 776 c 0,21,22
 135 673 135 673 135 553 c 0,23,24
 135 404 135 404 335 404 c 0,25,26
 437 404 437 404 516 454 c 0,27,28
 604 508 604 508 604 599 c 0,15,16
EndSplineSet
EndChar

StartChar: afii57398
Encoding: 1638 1638 420
Width: 847
Flags: W
LayerCount: 2
Fore
SplineSet
831 299 m 1,0,-1
 806 -14 l 1,1,2
 651 28 651 28 576 140 c 0,3,4
 485 273 485 273 456 559 c 0,5,6
 446 677 446 677 463 925 c 1,7,8
 425 918 425 918 262 918 c 0,9,10
 157 918 157 918 82 983 c 1,11,12
 -3 1047 -3 1047 -3 1156 c 0,13,14
 -3 1342 -3 1342 41 1342 c 0,15,16
 54 1342 54 1342 80 1309 c 0,17,18
 109 1268 109 1268 142 1247 c 0,19,20
 201 1217 201 1217 286 1217 c 0,21,22
 395 1217 395 1217 494.5 1230.5 c 128,-1,23
 594 1244 594 1244 592 1244 c 1,24,25
 645 1244 645 1244 645 1145 c 0,26,27
 645 1113 645 1113 631 967 c 1,28,29
 624 828 624 828 627 726 c 0,30,31
 631 522 631 522 696 418 c 0,32,33
 734 352 734 352 831 299 c 1,0,-1
EndSplineSet
EndChar

StartChar: afii57399.001
Encoding: 1639 1639 421
Width: 921
Flags: W
LayerCount: 2
Fore
SplineSet
923 1043 m 1,0,1
 768 860 768 860 698 744 c 0,2,3
 613 599 613 599 564 396 c 0,4,5
 543 317 543 317 494 70 c 0,6,7
 479 -7 479 -7 459 -7 c 0,8,9
 433 -7 433 -7 411 105 c 0,10,11
 397 175 397 175 387 239 c 0,12,13
 300 693 300 693 107 927 c 1,14,-1
 3 1038 l 1,15,16
 26 1129 26 1129 44 1222 c 0,17,18
 73 1360 73 1360 98 1360 c 0,19,20
 107 1360 107 1360 125 1342 c 0,21,22
 216 1255 216 1255 334 1017 c 0,23,24
 431 820 431 820 462 652 c 1,25,26
 496 850 496 850 586 1032 c 0,27,28
 682 1231 682 1231 816 1354 c 1,29,30
 831 1353 831 1353 875 1213 c 0,31,32
 901 1126 901 1126 923 1043 c 1,0,1
EndSplineSet
EndChar

StartChar: afii57400.001
Encoding: 1640 1640 422
Width: 898
Flags: W
LayerCount: 2
Fore
SplineSet
898 308 m 1,0,1
 879 218 879 218 859 123 c 0,2,3
 826 -7 826 -7 811 -7 c 0,4,5
 800 -7 800 -7 780 11 c 0,6,7
 686 100 686 100 571 336 c 0,8,9
 480 520 480 520 443 693 c 1,10,11
 417 529 417 529 324.5 340 c 128,-1,12
 232 151 232 151 124 26 c 0,13,14
 109 11 109 11 93 0 c 1,15,16
 70 14 70 14 30 144 c 0,17,18
 8 227 8 227 -14 306 c 1,19,20
 137 472 137 472 214 612 c 0,21,22
 290 746 290 746 346 967 c 0,23,24
 371 1080 371 1080 395 1194 c 0,25,26
 424 1349 424 1349 446 1349 c 0,27,28
 474 1349 474 1349 494 1238 c 0,29,30
 506 1170 506 1170 518 1106 c 0,31,32
 592 728 592 728 749 492 c 0,33,34
 775 457 775 457 898 308 c 1,0,1
EndSplineSet
EndChar

StartChar: afii57401.001
Encoding: 1641 1641 423
Width: 728
Flags: W
LayerCount: 2
Fore
SplineSet
731 313 m 1,0,-1
 708 2 l 1,1,2
 499 39 499 39 429 265 c 1,3,4
 384 396 384 396 384 673 c 1,5,6
 312 661 312 661 228 661 c 0,7,8
 8 661 8 661 8 837 c 0,9,10
 8 888 8 888 38 995 c 0,11,12
 124 1340 124 1340 300 1340 c 0,13,14
 455 1340 455 1340 506 1163 c 1,15,16
 541 1058 541 1058 554 798 c 1,17,18
 558 549 558 549 587 473 c 0,19,20
 622 391 622 391 731 313 c 1,0,-1
EndSplineSet
EndChar

StartChar: guillemotleft
Encoding: 171 171 424
Width: 836
Flags: W
LayerCount: 2
Fore
SplineSet
442 616 m 1,0,1
 387 507 387 507 387 393 c 0,2,3
 387 255 387 255 518 82 c 1,4,-1
 518 83 l 1,5,6
 538 60 538 60 547.5 44 c 128,-1,7
 557 28 557 28 560 20 c 0,8,9
 560 -5 560 -5 534 -5 c 0,10,11
 528 -5 528 -5 513 1 c 0,12,13
 377 71 377 71 294 168 c 1,14,-1
 294 167 l 1,15,16
 202 276 202 276 202 396 c 0,17,18
 203 448 203 448 222.5 500 c 128,-1,19
 242 552 242 552 280 603 c 0,20,21
 307 640 307 640 344.5 676.5 c 128,-1,22
 382 713 382 713 426 745 c 0,23,24
 499 799 499 799 528 799 c 0,25,26
 563 799 563 799 563 775 c 0,27,28
 563 765 563 765 555 757 c 0,29,30
 528 730 528 730 509 708 c 128,-1,31
 490 686 490 686 477 668.5 c 128,-1,32
 464 651 464 651 455.5 638 c 128,-1,33
 447 625 447 625 441 615 c 2,34,-1
 442 616 l 1,0,1
721 616 m 1,35,36
 666 507 666 507 666 393 c 0,37,38
 666 255 666 255 797 82 c 1,39,-1
 797 83 l 1,40,41
 817 60 817 60 826.5 44 c 128,-1,42
 836 28 836 28 839 20 c 0,43,44
 839 -5 839 -5 813 -5 c 0,45,46
 806 -5 806 -5 793 1 c 0,47,48
 725 36 725 36 670 77 c 128,-1,49
 615 118 615 118 573 168 c 1,50,-1
 573 167 l 1,51,52
 481 276 481 276 481 396 c 0,53,54
 482 448 482 448 501.5 500 c 128,-1,55
 521 552 521 552 559 603 c 0,56,57
 586 640 586 640 623.5 676.5 c 128,-1,58
 661 713 661 713 705 745 c 0,59,60
 778 799 778 799 807 799 c 0,61,62
 842 799 842 799 842 775 c 0,63,64
 842 765 842 765 834 757 c 0,65,66
 807 730 807 730 788 708 c 128,-1,67
 769 686 769 686 756 668.5 c 128,-1,68
 743 651 743 651 734.5 638 c 128,-1,69
 726 625 726 625 720 615 c 2,70,-1
 721 616 l 1,35,36
EndSplineSet
EndChar

StartChar: guillemotright
Encoding: 187 187 425
Width: 836
Flags: W
LayerCount: 2
Fore
SplineSet
573 622 m 1,0,1
 561 641 561 641 537.5 674.5 c 128,-1,2
 514 708 514 708 460 762 c 0,3,4
 452 770 452 770 452 780 c 0,5,6
 452 804 452 804 487 804 c 0,7,8
 514 804 514 804 588 751 c 0,9,10
 631 719 631 719 668 683 c 128,-1,11
 705 647 705 647 732 610 c 0,12,13
 769 559 769 559 788.5 508 c 128,-1,14
 808 457 808 457 809 406 c 0,15,16
 809 287 809 287 718 179 c 1,17,-1
 718 180 l 1,18,19
 636 83 636 83 501 15 c 0,20,21
 487 9 487 9 481 9 c 0,22,23
 455 9 455 9 455 34 c 0,24,25
 458 42 458 42 467.5 57.5 c 128,-1,26
 477 73 477 73 497 96 c 1,27,-1
 497 95 l 1,28,29
 626 266 626 266 626 403 c 0,30,31
 626 515 626 515 572 623 c 1,32,-1
 573 622 l 1,0,1
297 622 m 1,33,34
 285 641 285 641 261.5 674.5 c 128,-1,35
 238 708 238 708 184 762 c 0,36,37
 176 770 176 770 176 780 c 0,38,39
 176 804 176 804 211 804 c 0,40,41
 238 804 238 804 312 751 c 0,42,43
 355 719 355 719 392 683 c 128,-1,44
 429 647 429 647 456 610 c 0,45,46
 493 559 493 559 512.5 508 c 128,-1,47
 532 457 532 457 533 406 c 0,48,49
 533 287 533 287 442 179 c 1,50,-1
 442 180 l 1,51,52
 360 83 360 83 225 15 c 0,53,54
 211 9 211 9 205 9 c 0,55,56
 179 9 179 9 179 34 c 0,57,58
 182 42 182 42 191.5 57.5 c 128,-1,59
 201 73 201 73 221 96 c 1,60,-1
 221 95 l 1,61,62
 350 266 350 266 350 403 c 0,63,64
 350 515 350 515 296 623 c 1,65,-1
 297 622 l 1,33,34
EndSplineSet
EndChar

StartChar: quoteleft
Encoding: 8216 8216 426
Width: 425
Flags: W
LayerCount: 2
Fore
SplineSet
121 993 m 0,0,1
 122 1058 122 1058 166 1121.5 c 128,-1,2
 210 1185 210 1185 265 1211 c 1,3,-1
 296 1153 l 1,4,5
 280 1144 280 1144 258 1120 c 128,-1,6
 236 1096 236 1096 226 1058 c 1,7,8
 292 1030 292 1030 289 975 c 0,9,10
 289 959 289 959 282.5 944.5 c 128,-1,11
 276 930 276 930 265 919 c 128,-1,12
 254 908 254 908 239 901.5 c 128,-1,13
 224 895 224 895 208 895 c 0,14,15
 188 895 188 895 171.5 903.5 c 128,-1,16
 155 912 155 912 144 925.5 c 128,-1,17
 133 939 133 939 127 957 c 128,-1,18
 121 975 121 975 121 993 c 0,0,1
EndSplineSet
EndChar

StartChar: quoteright
Encoding: 8217 8217 427
Width: 372
Flags: W
LayerCount: 2
Fore
SplineSet
311 1113 m 0,0,1
 310 1048 310 1048 266 984.5 c 128,-1,2
 222 921 222 921 167 895 c 1,3,-1
 136 953 l 1,4,5
 152 962 152 962 174 986 c 128,-1,6
 196 1010 196 1010 206 1048 c 1,7,8
 140 1076 140 1076 143 1131 c 0,9,10
 143 1147 143 1147 149.5 1161.5 c 128,-1,11
 156 1176 156 1176 167 1187 c 128,-1,12
 178 1198 178 1198 192.5 1204.5 c 128,-1,13
 207 1211 207 1211 224 1211 c 0,14,15
 244 1211 244 1211 260 1202.5 c 128,-1,16
 276 1194 276 1194 287.5 1180.5 c 128,-1,17
 299 1167 299 1167 305 1149 c 128,-1,18
 311 1131 311 1131 311 1113 c 0,0,1
EndSplineSet
EndChar

StartChar: afii57451
Encoding: 1611 1611 428
Width: 0
GlyphClass: 4
Flags: W
AnchorPoint: "Anchor-2" 0 0 mark 0
AnchorPoint: "Anchor-0" 0 0 mark 0
LayerCount: 2
Fore
SplineSet
168 161 m 1,0,-1
 -200 -10 l 1,1,-1
 -177 89 l 1,2,-1
 191 259 l 1,3,-1
 168 161 l 1,0,-1
178 322 m 1,4,-1
 -190 151 l 1,5,-1
 -167 250 l 1,6,-1
 201 420 l 1,7,-1
 178 322 l 1,4,-1
EndSplineSet
EndChar

StartChar: afii57454
Encoding: 1614 1614 429
Width: 0
GlyphClass: 4
Flags: W
AnchorPoint: "Anchor-2" 0 0 mark 0
AnchorPoint: "Anchor-0" 0 0 mark 0
LayerCount: 2
Fore
SplineSet
181 172 m 1,0,-1
 -187 1 l 1,1,-1
 -164 100 l 1,2,-1
 204 270 l 1,3,-1
 181 172 l 1,0,-1
EndSplineSet
EndChar

StartChar: afii57455
Encoding: 1615 1615 430
Width: 0
GlyphClass: 4
Flags: W
AnchorPoint: "Anchor-2" 0 0 mark 0
AnchorPoint: "Anchor-0" 0 0 mark 0
LayerCount: 2
Fore
SplineSet
166 174 m 1,0,1
 136 119 136 119 109 101 c 1,2,-1
 41 125 l 1,3,4
 -54 2 -54 2 -233 2 c 0,5,6
 -286 2 -286 2 -301 35 c 1,7,8
 -276 37 -276 37 -239.5 46.5 c 128,-1,9
 -203 56 -203 56 -153 76 c 0,10,11
 -102 96 -102 96 -67 114.5 c 128,-1,12
 -32 133 -32 133 -12 150 c 1,13,14
 -131 205 -131 205 -131 275 c 0,15,16
 -131 329 -131 329 -65 389 c 0,17,18
 4 449 4 449 60 449 c 0,19,20
 138 449 138 449 138 340 c 0,21,22
 138 295 138 295 127.5 260 c 128,-1,23
 117 225 117 225 97 199 c 1,24,25
 138 174 138 174 166 174 c 1,0,1
72 295 m 0,26,27
 72 365 72 365 27 365 c 0,28,29
 15 365 15 365 2.5 361.5 c 128,-1,30
 -10 358 -10 358 -22 350 c 0,31,32
 -53 335 -53 335 -53 312 c 0,33,34
 -53 266 -53 266 56 219 c 1,35,36
 72 243 72 243 72 295 c 0,26,27
EndSplineSet
EndChar

StartChar: afii57452
Encoding: 1612 1612 431
Width: 0
GlyphClass: 4
Flags: W
AnchorPoint: "Anchor-2" 0 0 mark 0
AnchorPoint: "Anchor-0" 0 0 mark 0
LayerCount: 2
Fore
SplineSet
215 148 m 1,0,-1
 149 160 l 1,1,2
 107 91 107 91 28 52.5 c 128,-1,3
 -51 14 -51 14 -166 4 c 1,4,5
 -152 36 -152 36 -145 70 c 128,-1,6
 -138 104 -138 104 -138 141 c 0,7,8
 -138 201 -138 201 -199 201 c 0,9,10
 -219 201 -219 201 -243 193 c 128,-1,11
 -267 185 -267 185 -293 168 c 1,12,13
 -284 297 -284 297 -160 297 c 0,14,15
 -84 297 -84 297 -84 205 c 0,16,17
 -84 167 -84 167 -89 139 c 128,-1,18
 -94 111 -94 111 -105 94 c 1,19,20
 -76 88 -76 88 -11 111 c 0,21,22
 66 138 66 138 100 178 c 1,23,24
 -19 218 -19 218 -19 293 c 0,25,26
 -19 351 -19 351 37 410 c 0,27,28
 94 471 94 471 151 471 c 0,29,30
 167 471 167 471 180.5 461.5 c 128,-1,31
 194 452 194 452 204 436.5 c 128,-1,32
 214 421 214 421 219.5 401.5 c 128,-1,33
 225 382 225 382 225 361 c 0,34,35
 225 301 225 301 200 238 c 1,36,37
 211 233 211 233 226.5 230.5 c 128,-1,38
 242 228 242 228 262 228 c 1,39,-1
 215 148 l 1,0,-1
174 309 m 0,40,41
 174 387 174 387 123 387 c 0,42,43
 108 387 108 387 95 382 c 128,-1,44
 82 377 82 377 71.5 369.5 c 128,-1,45
 61 362 61 362 55 352.5 c 128,-1,46
 49 343 49 343 49 334 c 0,47,48
 49 293 49 293 157 252 c 1,49,50
 174 281 174 281 174 309 c 0,40,41
EndSplineSet
EndChar

StartChar: afii57456
Encoding: 1616 1616 432
Width: 0
GlyphClass: 4
Flags: W
AnchorPoint: "Anchor-3" 0 0 mark 0
AnchorPoint: "Anchor-1" 0 0 mark 0
LayerCount: 2
Fore
SplineSet
181 172 m 1,0,-1
 -187 1 l 1,1,-1
 -164 100 l 1,2,-1
 204 270 l 1,3,-1
 181 172 l 1,0,-1
EndSplineSet
EndChar

StartChar: afii57457
Encoding: 1617 1617 433
Width: 0
GlyphClass: 4
Flags: W
AnchorPoint: "Anchor-2" 0 0 mark 0
AnchorPoint: "Anchor-0" 0 0 mark 0
LayerCount: 2
Fore
SplineSet
202 192 m 0,0,1
 194 135 194 135 163 93 c 0,2,3
 126 43 126 43 74 43 c 0,4,5
 26 43 26 43 -21 91 c 1,6,7
 -64 -7 -64 -7 -148 -7 c 0,8,9
 -196 -7 -196 -7 -225 31 c 0,10,11
 -252 65 -252 65 -252 114 c 0,12,13
 -252 235 -252 235 -198 235 c 0,14,15
 -188 235 -188 235 -169 175.5 c 128,-1,16
 -150 116 -150 116 -135 116 c 0,17,18
 -87 116 -87 116 -56 190.5 c 128,-1,19
 -25 265 -25 265 -18 265 c 0,20,21
 -5 265 -5 265 15.5 213 c 128,-1,22
 36 161 36 161 79 161 c 0,23,24
 130 161 130 161 130 229 c 0,25,26
 130 255 130 255 122 289 c 1,27,-1
 189 324 l 1,28,29
 213 276 213 276 202 192 c 0,0,1
EndSplineSet
EndChar

StartChar: afii57458
Encoding: 1618 1618 434
Width: 0
GlyphClass: 4
Flags: W
AnchorPoint: "Anchor-2" 0 0 mark 0
AnchorPoint: "Anchor-0" 0 0 mark 0
LayerCount: 2
Fore
SplineSet
157 187 m 0,0,1
 157 149 157 149 142.5 116.5 c 128,-1,2
 128 84 128 84 103 59.5 c 128,-1,3
 78 35 78 35 45.5 21 c 128,-1,4
 13 7 13 7 -23 7 c 0,5,6
 -142 7 -142 7 -142 128 c 0,7,8
 -142 176 -142 176 -128.5 216 c 128,-1,9
 -115 256 -115 256 -89 288 c 1,10,11
 -46 357 -46 357 14 357 c 0,12,13
 42 357 42 357 68 344 c 128,-1,14
 94 331 94 331 114 308.5 c 128,-1,15
 134 286 134 286 145.5 254.5 c 128,-1,16
 157 223 157 223 157 187 c 0,0,1
106 151 m 1,17,18
 106 198 106 198 67 230 c 0,19,20
 33 261 33 261 -7 261 c 0,21,22
 -24 261 -24 261 -39 253 c 128,-1,23
 -54 245 -54 245 -66 228 c 0,24,25
 -87 201 -87 201 -87 171 c 0,26,27
 -87 104 -87 104 -1 104 c 0,28,29
 71 104 71 104 106 151 c 1,17,18
EndSplineSet
EndChar

StartChar: exclam
Encoding: 33 33 437
Width: 423
GlyphClass: 2
Flags: W
LayerCount: 2
Fore
SplineSet
360 967 m 0,0,1
 360 897 360 897 332 753 c 0,2,3
 299 586 299 586 293 505 c 2,4,-1
 275 277 l 1,5,-1
 201 277 l 1,6,7
 198 302 198 302 180 503 c 0,8,9
 173 585 173 585 139 756 c 0,10,11
 110 904 110 904 110 969 c 0,12,13
 110 1207 110 1207 234 1207 c 0,14,15
 360 1207 360 1207 360 967 c 0,0,1
340 103 m 0,16,17
 340 60 340 60 310.5 31 c 128,-1,18
 281 2 281 2 238 2 c 256,19,20
 195 2 195 2 166.5 31 c 128,-1,21
 138 60 138 60 138 103 c 0,22,23
 138 145 138 145 167 174 c 128,-1,24
 196 203 196 203 238 203 c 0,25,26
 279 203 279 203 309.5 173.5 c 128,-1,27
 340 144 340 144 340 103 c 0,16,17
EndSplineSet
EndChar

StartChar: afii64060
Encoding: 64830 64830 438
Width: 680
GlyphClass: 2
Flags: W
LayerCount: 2
Fore
SplineSet
515 1056 m 0,0,1
 305 737 305 737 305 477 c 0,2,3
 305 263 305 263 411 56 c 0,4,5
 428 22 428 22 470.5 -44.5 c 128,-1,6
 513 -111 513 -111 583 -212 c 0,7,8
 589 -221 589 -221 589 -231 c 0,9,10
 589 -256 589 -256 557 -256 c 0,11,12
 481 -256 481 -256 389 -159 c 0,13,14
 275 -41 275 -41 205 99 c 0,15,16
 110 286 110 286 110 472 c 0,17,18
 110 684 110 684 224 882 c 0,19,20
 328 1063 328 1063 552 1192 c 0,21,22
 561 1199 561 1199 568 1199 c 0,23,24
 588 1199 588 1199 588 1171 c 1,25,26
 578 1152 578 1152 515 1056 c 0,0,1
EndSplineSet
EndChar

StartChar: afii64061
Encoding: 64831 64831 439
Width: 654
GlyphClass: 2
Flags: W
LayerCount: 2
Fore
SplineSet
184 1056 m 0,0,1
 121 1152 121 1152 111 1171 c 1,2,3
 111 1199 111 1199 131 1199 c 0,4,5
 138 1199 138 1199 147 1192 c 0,6,7
 371 1063 371 1063 475 882 c 0,8,9
 589 684 589 684 589 472 c 0,10,11
 589 286 589 286 494 99 c 0,12,13
 424 -41 424 -41 310 -159 c 0,14,15
 218 -256 218 -256 142 -256 c 0,16,17
 110 -256 110 -256 110 -231 c 0,18,19
 110 -221 110 -221 116 -212 c 0,20,21
 186 -111 186 -111 228.5 -44.5 c 128,-1,22
 271 22 271 22 288 56 c 0,23,24
 394 263 394 263 394 477 c 0,25,26
 394 737 394 737 184 1056 c 0,0,1
EndSplineSet
EndChar

StartChar: afii62821
Encoding: 65252 65252 440
Width: 977
GlyphClass: 2
Flags: W
AnchorPoint: "Anchor-3" 450 -555 basechar 0
AnchorPoint: "Anchor-2" 435 975 basechar 0
LayerCount: 2
Fore
SplineSet
1005 1 m 1,0,-1
 931 1 l 2,1,2
 856 1 856 1 804 47 c 0,3,4
 773 75 773 75 729 142 c 1,5,6
 651 -35 651 -35 532 -35 c 0,7,8
 386 -35 386 -35 247 182 c 1,9,10
 219 115 219 115 170 65 c 0,11,12
 107 1 107 1 37 1 c 2,13,-1
 -28 1 l 1,14,-1
 -28 306 l 1,15,-1
 40 306 l 2,16,17
 131 306 131 306 159 362 c 0,18,19
 173 390 173 390 173 459 c 0,20,21
 173 574 173 574 232 656 c 0,22,23
 306 759 306 759 447 759 c 0,24,25
 557 759 557 759 646 641 c 1,26,-1
 777 424 l 2,27,28
 849 306 849 306 922 306 c 2,29,-1
 1005 306 l 1,30,-1
 1005 1 l 1,0,-1
EndSplineSet
EndChar

StartChar: uni25CC
Encoding: 9676 9676 441
Width: 911
Flags: W
AnchorPoint: "Anchor-3" 390 -360 basechar 0
AnchorPoint: "Anchor-2" 465 945 basechar 0
LayerCount: 2
Fore
SplineSet
771 629 m 256,0,1
 771 592 771 592 734 592 c 0,2,3
 695 592 695 592 695 629 c 256,4,5
 695 666 695 666 734 666 c 0,6,7
 771 666 771 666 771 629 c 256,0,1
658 703 m 0,8,9
 658 666 658 666 621 666 c 0,10,11
 582 666 582 666 582 703 c 0,12,13
 582 742 582 742 621 742 c 0,14,15
 658 742 658 742 658 703 c 0,8,9
847 516 m 0,16,17
 847 477 847 477 808 477 c 0,18,19
 771 477 771 477 771 516 c 0,20,21
 771 553 771 553 810 553 c 0,22,23
 847 553 847 553 847 516 c 0,16,17
873 384 m 256,24,25
 873 347 873 347 836 347 c 0,26,27
 797 347 797 347 797 384 c 256,28,29
 797 421 797 421 836 421 c 0,30,31
 873 421 873 421 873 384 c 256,24,25
525 731 m 0,32,33
 525 692 525 692 488 692 c 256,34,35
 451 692 451 692 451 731 c 0,36,37
 451 768 451 768 488 768 c 256,38,39
 525 768 525 768 525 731 c 0,32,33
847 251 m 0,40,41
 847 214 847 214 808 214 c 0,42,43
 771 214 771 214 771 251 c 0,44,45
 771 290 771 290 808 290 c 0,46,47
 847 290 847 290 847 251 c 0,40,41
394 703 m 0,48,49
 394 666 394 666 356 666 c 0,50,51
 319 666 319 666 319 703 c 0,52,53
 319 742 319 742 356 742 c 0,54,55
 394 742 394 742 394 703 c 0,48,49
282 629 m 256,56,57
 282 592 282 592 243 592 c 0,58,59
 206 592 206 592 206 627 c 0,60,61
 206 666 206 666 243 666 c 0,62,63
 282 666 282 666 282 629 c 256,56,57
771 138 m 0,64,65
 771 101 771 101 734 101 c 256,66,67
 697 101 697 101 697 138 c 0,68,69
 697 177 697 177 734 177 c 256,70,71
 771 177 771 177 771 138 c 0,64,65
658 64 m 0,72,73
 658 27 658 27 621 27 c 256,74,75
 584 27 584 27 584 64 c 0,76,77
 584 103 584 103 621 103 c 256,78,79
 658 103 658 103 658 64 c 0,72,73
206 516 m 0,80,81
 206 477 206 477 171 477 c 0,82,83
 132 477 132 477 132 516 c 0,84,85
 132 553 132 553 169 553 c 256,86,87
 206 553 206 553 206 516 c 0,80,81
180 384 m 256,88,89
 180 347 180 347 143 347 c 0,90,91
 104 347 104 347 104 384 c 256,92,93
 104 421 104 421 143 421 c 0,94,95
 180 421 180 421 180 384 c 256,88,89
525 38 m 0,96,97
 525 -1 525 -1 488 -1 c 256,98,99
 451 -1 451 -1 451 38 c 0,100,101
 451 75 451 75 488 75 c 256,102,103
 525 75 525 75 525 38 c 0,96,97
394 66 m 0,104,105
 394 27 394 27 356 27 c 0,106,107
 319 27 319 27 319 64 c 0,108,109
 319 103 319 103 356 103 c 0,110,111
 394 103 394 103 394 66 c 0,104,105
206 251 m 0,112,113
 206 214 206 214 169 214 c 256,114,115
 132 214 132 214 132 251 c 0,116,117
 132 290 132 290 169 290 c 256,118,119
 206 290 206 290 206 251 c 0,112,113
282 138 m 0,120,121
 282 101 282 101 245 101 c 0,122,123
 206 101 206 101 206 138 c 0,124,125
 206 177 206 177 243 177 c 0,126,127
 282 177 282 177 282 138 c 0,120,121
EndSplineSet
EndChar

StartChar: afii62819
Encoding: 65246 65246 442
Width: 1490
GlyphClass: 2
Flags: W
AnchorPoint: "Anchor-3" 540 -1080 basechar 0
AnchorPoint: "Anchor-2" 825 1275 basechar 0
LayerCount: 2
Fore
SplineSet
1143 80 m 1,0,1
 1143 -112 1143 -112 1128 -189 c 0,2,3
 1047 -603 1047 -603 484 -603 c 0,4,5
 270 -603 270 -603 144 -501 c 0,6,7
 7 -391 7 -391 7 -181 c 0,8,9
 7 -109 7 -109 34 15 c 0,10,11
 78 218 78 218 135 218 c 0,12,13
 161 218 161 218 161 186 c 0,14,15
 161 176 161 176 157 163 c 0,16,17
 132 83 132 83 132 15 c 0,18,19
 132 -164 132 -164 242 -240 c 0,20,21
 334 -303 334 -303 522 -303 c 0,22,23
 743 -303 743 -303 897 -229 c 0,24,25
 1029 -166 1029 -166 1025 -107 c 2,26,-1
 941 1081 l 1,27,-1
 1159 1265 l 2,28,29
 1184 1286 1184 1286 1198 1286 c 0,30,31
 1223 1286 1223 1286 1221 1219 c 2,32,-1
 1197 475 l 2,33,34
 1192 310 1192 310 1334 306 c 1,35,-1
 1558 306 l 1,36,-1
 1566 298 l 1,37,-1
 1568 9 l 1,38,-1
 1560 1 l 1,39,-1
 1281 1 l 2,40,41
 1196 1 1196 1 1143 80 c 1,0,1
EndSplineSet
EndChar

StartChar: braceright
Encoding: 125 125 445
Width: 672
GlyphClass: 2
Flags: W
LayerCount: 2
Fore
SplineSet
273 224 m 2,0,1
 273 277 273 277 282 314 c 128,-1,2
 291 351 291 351 314 376.5 c 128,-1,3
 337 402 337 402 376 418 c 128,-1,4
 415 434 415 434 474 447 c 1,5,6
 414 460 414 460 375 476 c 128,-1,7
 336 492 336 492 313.5 517 c 128,-1,8
 291 542 291 542 282 578.5 c 128,-1,9
 273 615 273 615 273 669 c 2,10,-1
 273 960 l 2,11,12
 273 1008 273 1008 264 1043 c 128,-1,13
 255 1078 255 1078 233.5 1103 c 128,-1,14
 212 1128 212 1128 177 1143.5 c 128,-1,15
 142 1159 142 1159 92 1170 c 1,16,-1
 92 1191 l 1,17,18
 150 1190 150 1190 192.5 1187.5 c 128,-1,19
 235 1185 235 1185 267 1179 c 128,-1,20
 299 1173 299 1173 322.5 1163.5 c 128,-1,21
 346 1154 346 1154 367 1141 c 0,22,23
 453 1088 453 1088 453 951 c 2,24,-1
 453 645 l 2,25,26
 453 600 453 600 460.5 568.5 c 128,-1,27
 468 537 468 537 489 514.5 c 128,-1,28
 510 492 510 492 545 476.5 c 128,-1,29
 580 461 580 461 635 447 c 1,30,31
 580 433 580 433 545 418 c 128,-1,32
 510 403 510 403 489 380.5 c 128,-1,33
 468 358 468 358 460.5 326 c 128,-1,34
 453 294 453 294 453 249 c 2,35,-1
 453 -57 l 2,36,37
 453 -196 453 -196 367 -249 c 0,38,39
 346 -263 346 -263 322 -272 c 128,-1,40
 298 -281 298 -281 266 -286.5 c 128,-1,41
 234 -292 234 -292 191.5 -295 c 128,-1,42
 149 -298 149 -298 92 -298 c 1,43,-1
 92 -278 l 1,44,45
 143 -268 143 -268 178 -251.5 c 128,-1,46
 213 -235 213 -235 234 -210 c 128,-1,47
 255 -185 255 -185 264 -150.5 c 128,-1,48
 273 -116 273 -116 273 -67 c 2,49,-1
 273 224 l 2,0,1
EndSplineSet
EndChar

StartChar: uni0656
Encoding: 1622 1622 452
Width: 0
GlyphClass: 4
Flags: W
AnchorPoint: "Anchor-3" 0 0 mark 0
AnchorPoint: "Anchor-1" 0 0 mark 0
LayerCount: 2
Fore
SplineSet
20 60 m 1,0,-1
 -31 -17 l 1,1,2
 -37 -17 -37 -17 -41 4 c 0,3,4
 -56 91 -56 91 -88 321 c 1,5,-1
 -1 381 l 2,6,7
 6 385 6 385 11 385 c 0,8,9
 17 385 17 385 18 378 c 0,10,11
 18 283 18 283 20 60 c 1,0,-1
EndSplineSet
EndChar

StartChar: E005
Encoding: 65578 -1 470
Width: 476
GlyphClass: 3
Flags: W
LayerCount: 2
Fore
SplineSet
-43 0 m 1,0,-1
 -43 207 l 1,1,-1
 581 207 l 1,2,-1
 581 0 l 1,3,-1
 -43 0 l 1,0,-1
EndSplineSet
EndChar

StartChar: afii57470
Encoding: 1726 1726 480
Width: 1026
Flags: W
AnchorPoint: "Anchor-3" 360 -570 basechar 0
AnchorPoint: "Anchor-2" 360 1200 basechar 0
LayerCount: 2
Fore
SplineSet
1023 265 m 0,0,1
 1023 193 1023 193 971 107 c 0,2,3
 903 -6 903 -6 793 -6 c 0,4,5
 666 -6 666 -6 443 138 c 1,6,7
 377 83 377 83 264.5 41.5 c 128,-1,8
 152 0 152 0 67 0 c 2,9,-1
 -19 0 l 1,10,-1
 -19 306 l 1,11,-1
 140 306 l 1,12,13
 42 357 42 357 42 447 c 0,14,15
 42 501 42 501 107 573 c 0,16,17
 162 634 162 634 222 665 c 1,18,-1
 132 700 l 1,19,-1
 238 961 l 2,20,21
 253 997 253 997 277 997 c 0,22,23
 292 997 292 997 317 983 c 0,24,25
 551 850 551 850 727 703 c 0,26,27
 1023 456 1023 456 1023 265 c 0,0,1
EndSplineSet
Substitution2: "'medi' Medial Forms in Arabic lookup 3 subtable" afii62827
Substitution2: "'fina' Terminal Forms in Arabic lookup 2 subtable" afii62827
Substitution2: "'init' Initial Forms in Arabic lookup 1 subtable" afii57470
EndChar

StartChar: at
Encoding: 64 64 489
Width: 1587
Flags: W
LayerCount: 2
Fore
SplineSet
1034 863 m 1,0,-1
 1154 863 l 1,1,-1
 1042 419 l 2,2,3
 1041 414 1041 414 1040 405.5 c 128,-1,4
 1039 397 1039 397 1039 389 c 0,5,6
 1039 308 1039 308 1103 308 c 0,7,8
 1146 308 1146 308 1185.5 337 c 128,-1,9
 1225 366 1225 366 1255.5 414.5 c 128,-1,10
 1286 463 1286 463 1304 526 c 128,-1,11
 1322 589 1322 589 1322 657 c 0,12,13
 1322 749 1322 749 1282.5 831.5 c 128,-1,14
 1243 914 1243 914 1175.5 976.5 c 128,-1,15
 1108 1039 1108 1039 1018.5 1075.5 c 128,-1,16
 929 1112 929 1112 829 1112 c 0,17,18
 723 1112 723 1112 633.5 1070.5 c 128,-1,19
 544 1029 544 1029 479 955 c 128,-1,20
 414 881 414 881 377.5 778.5 c 128,-1,21
 341 676 341 676 341 555 c 0,22,23
 341 443 341 443 378.5 350 c 128,-1,24
 416 257 416 257 484 189.5 c 128,-1,25
 552 122 552 122 646 84 c 128,-1,26
 740 46 740 46 852 46 c 0,27,28
 894 46 894 46 933 50.5 c 128,-1,29
 972 55 972 55 1012 64.5 c 128,-1,30
 1052 74 1052 74 1095.5 90.5 c 128,-1,31
 1139 107 1139 107 1191 130 c 1,32,-1
 1213 70 l 1,33,34
 1151 40 1151 40 1101.5 20.5 c 128,-1,35
 1052 1 1052 1 1007 -11 c 128,-1,36
 962 -23 962 -23 920 -27.5 c 128,-1,37
 878 -32 878 -32 830 -32 c 0,38,39
 694 -32 694 -32 576.5 14 c 128,-1,40
 459 60 459 60 371.5 140 c 128,-1,41
 284 220 284 220 234 329 c 128,-1,42
 184 438 184 438 184 563 c 0,43,44
 184 692 184 692 234 804 c 128,-1,45
 284 916 284 916 371.5 999.5 c 128,-1,46
 459 1083 459 1083 576 1131 c 128,-1,47
 693 1179 693 1179 827 1179 c 0,48,49
 949 1179 949 1179 1054 1139.5 c 128,-1,50
 1159 1100 1159 1100 1236.5 1030.5 c 128,-1,51
 1314 961 1314 961 1358 867.5 c 128,-1,52
 1402 774 1402 774 1402 665 c 0,53,54
 1402 580 1402 580 1376 503.5 c 128,-1,55
 1350 427 1350 427 1306 369.5 c 128,-1,56
 1262 312 1262 312 1203.5 278 c 128,-1,57
 1145 244 1145 244 1080 244 c 256,58,59
 1015 244 1015 244 971.5 279 c 128,-1,60
 928 314 928 314 919 371 c 1,61,62
 874 313 874 313 817 279.5 c 128,-1,63
 760 246 760 246 705 246 c 0,64,65
 670 246 670 246 641 260.5 c 128,-1,66
 612 275 612 275 590 301.5 c 128,-1,67
 568 328 568 328 556 364 c 128,-1,68
 544 400 544 400 544 441 c 0,69,70
 544 489 544 489 553.5 537 c 128,-1,71
 563 585 563 585 582 631 c 128,-1,72
 601 677 601 677 627.5 719 c 128,-1,73
 654 761 654 761 687 797 c 0,74,75
 728 839 728 839 781 862.5 c 128,-1,76
 834 886 834 886 891 886 c 0,77,78
 914 886 914 886 931.5 882 c 128,-1,79
 949 878 949 878 962.5 867.5 c 128,-1,80
 976 857 976 857 989 839.5 c 128,-1,81
 1002 822 1002 822 1015 795 c 1,82,-1
 1034 863 l 1,0,-1
913 804 m 0,83,84
 880 807 880 807 840.5 783 c 128,-1,85
 801 759 801 759 764 716 c 0,86,87
 720 667 720 667 697.5 604.5 c 128,-1,88
 675 542 675 542 675 472 c 0,89,90
 675 405 675 405 702 365 c 128,-1,91
 729 325 729 325 776 325 c 0,92,93
 814 325 814 325 851 355.5 c 128,-1,94
 888 386 888 386 916 441 c 0,95,96
 930 467 930 467 942 499 c 128,-1,97
 954 531 954 531 963 564.5 c 128,-1,98
 972 598 972 598 977.5 630.5 c 128,-1,99
 983 663 983 663 985 692 c 0,100,101
 987 742 987 742 969 772 c 128,-1,102
 951 802 951 802 913 804 c 0,83,84
EndSplineSet
EndChar

StartChar: A
Encoding: 65 65 490
Width: 1232
Flags: W
LayerCount: 2
Fore
SplineSet
1175 0 m 1,0,-1
 623 0 l 1,1,-1
 623 42 l 1,2,3
 641 45 641 45 656 46 c 128,-1,4
 671 47 671 47 677 47 c 0,5,6
 722 50 722 50 740.5 63.5 c 128,-1,7
 759 77 759 77 759 104 c 0,8,9
 759 118 759 118 755 137.5 c 128,-1,10
 751 157 751 157 741.5 184.5 c 128,-1,11
 732 212 732 212 717 249 c 128,-1,12
 702 286 702 286 680 336 c 1,13,-1
 297 336 l 1,14,-1
 271 269 l 2,15,16
 258 235 258 235 248.5 209 c 128,-1,17
 239 183 239 183 233 164.5 c 128,-1,18
 227 146 227 146 224 134 c 128,-1,19
 221 122 221 122 221 113 c 0,20,21
 221 79 221 79 253 63 c 128,-1,22
 285 47 285 47 362 42 c 1,23,-1
 362 0 l 1,24,-1
 15 0 l 1,25,-1
 15 42 l 1,26,27
 45 48 45 48 66 58 c 128,-1,28
 87 68 87 68 104.5 89 c 128,-1,29
 122 110 122 110 140 146 c 128,-1,30
 158 182 158 182 182 242 c 2,31,-1
 562 1177 l 1,32,-1
 609 1177 l 1,33,-1
 990 280 l 2,34,35
 1021 205 1021 205 1043.5 158 c 128,-1,36
 1066 111 1066 111 1085.5 85.5 c 128,-1,37
 1105 60 1105 60 1124.5 51 c 128,-1,38
 1144 42 1144 42 1169 42 c 2,39,-1
 1175 42 l 1,40,-1
 1175 0 l 1,0,-1
655 403 m 1,41,-1
 483 817 l 1,42,-1
 322 403 l 1,43,-1
 655 403 l 1,41,-1
EndSplineSet
EndChar

StartChar: B
Encoding: 66 66 491
Width: 1138
Flags: W
LayerCount: 2
Fore
SplineSet
555 1152 m 2,0,1
 768 1152 768 1152 883 1082 c 128,-1,2
 998 1012 998 1012 998 880 c 0,3,4
 998 831 998 831 983 793.5 c 128,-1,5
 968 756 968 756 936 725 c 128,-1,6
 904 694 904 694 852.5 669.5 c 128,-1,7
 801 645 801 645 726 623 c 1,8,9
 771 613 771 613 805.5 603 c 128,-1,10
 840 593 840 593 867.5 581 c 128,-1,11
 895 569 895 569 918 554 c 128,-1,12
 941 539 941 539 963 520 c 0,13,14
 1009 480 1009 480 1032.5 429 c 128,-1,15
 1056 378 1056 378 1056 320 c 0,16,17
 1056 248 1056 248 1022 189 c 128,-1,18
 988 130 988 130 924.5 88 c 128,-1,19
 861 46 861 46 772.5 23 c 128,-1,20
 684 0 684 0 576 0 c 2,21,-1
 27 0 l 1,22,-1
 27 42 l 1,23,24
 74 48 74 48 103 55.5 c 128,-1,25
 132 63 132 63 149 76 c 128,-1,26
 166 89 166 89 171.5 110 c 128,-1,27
 177 131 177 131 177 164 c 2,28,-1
 177 990 l 2,29,30
 177 1022 177 1022 170.5 1044 c 128,-1,31
 164 1066 164 1066 146.5 1080 c 128,-1,32
 129 1094 129 1094 100.5 1100.5 c 128,-1,33
 72 1107 72 1107 27 1110 c 1,34,-1
 27 1152 l 1,35,-1
 555 1152 l 2,0,1
451 158 m 2,36,37
 451 102 451 102 474.5 78.5 c 128,-1,38
 498 55 498 55 555 55 c 0,39,40
 762 55 762 55 762 306 c 0,41,42
 762 585 762 585 502 585 c 2,43,-1
 451 585 l 1,44,-1
 451 158 l 2,36,37
451 636 m 1,45,46
 529 638 529 638 580.5 649.5 c 128,-1,47
 632 661 632 661 662 687 c 128,-1,48
 692 713 692 713 704 757 c 128,-1,49
 716 801 716 801 716 868 c 0,50,51
 716 990 716 990 674.5 1046 c 128,-1,52
 633 1102 633 1102 542 1102 c 0,53,54
 492 1102 492 1102 471.5 1083.5 c 128,-1,55
 451 1065 451 1065 451 1019 c 2,56,-1
 451 636 l 1,45,46
EndSplineSet
EndChar

StartChar: C
Encoding: 67 67 492
Width: 1232
Flags: W
LayerCount: 2
Fore
SplineSet
1172 217 m 1,0,1
 1144 184 1144 184 1121.5 161 c 128,-1,2
 1099 138 1099 138 1079 120 c 128,-1,3
 1059 102 1059 102 1041 87.5 c 128,-1,4
 1023 73 1023 73 1003 60 c 0,5,6
 932 13 932 13 855.5 -9.5 c 128,-1,7
 779 -32 779 -32 687 -32 c 0,8,9
 555 -32 555 -32 444 12.5 c 128,-1,10
 333 57 333 57 252.5 136.5 c 128,-1,11
 172 216 172 216 127.5 326 c 128,-1,12
 83 436 83 436 83 568 c 0,13,14
 83 699 83 699 128 810.5 c 128,-1,15
 173 922 173 922 252.5 1004 c 128,-1,16
 332 1086 332 1086 441 1132.5 c 128,-1,17
 550 1179 550 1179 677 1179 c 0,18,19
 739 1179 739 1179 802 1165 c 128,-1,20
 865 1151 865 1151 941 1119 c 0,21,22
 970 1106 970 1106 989 1101 c 128,-1,23
 1008 1096 1008 1096 1020 1096 c 0,24,25
 1045 1096 1045 1096 1061 1112 c 128,-1,26
 1077 1128 1077 1128 1096 1174 c 1,27,-1
 1141 1174 l 1,28,-1
 1141 774 l 1,29,-1
 1099 774 l 1,30,31
 1076 822 1076 822 1056.5 858.5 c 128,-1,32
 1037 895 1037 895 1017.5 924.5 c 128,-1,33
 998 954 998 954 976 978 c 128,-1,34
 954 1002 954 1002 926 1027 c 0,35,36
 870 1076 870 1076 815 1099.5 c 128,-1,37
 760 1123 760 1123 700 1123 c 0,38,39
 545 1123 545 1123 465.5 985.5 c 128,-1,40
 386 848 386 848 386 581 c 0,41,42
 386 453 386 453 403.5 359.5 c 128,-1,43
 421 266 421 266 459 198 c 0,44,45
 477 165 477 165 505.5 137.5 c 128,-1,46
 534 110 534 110 569.5 90.5 c 128,-1,47
 605 71 605 71 645.5 60 c 128,-1,48
 686 49 686 49 728 49 c 0,49,50
 764 49 764 49 804.5 57 c 128,-1,51
 845 65 845 65 882 80 c 0,52,53
 913 92 913 92 940 107 c 128,-1,54
 967 122 967 122 994.5 142.5 c 128,-1,55
 1022 163 1022 163 1052.5 191 c 128,-1,56
 1083 219 1083 219 1121 259 c 1,57,-1
 1172 217 l 1,0,1
EndSplineSet
EndChar

StartChar: D
Encoding: 68 68 493
Width: 1232
Flags: W
LayerCount: 2
Fore
SplineSet
166 997 m 2,0,1
 166 1026 166 1026 159 1045.5 c 128,-1,2
 152 1065 152 1065 136 1078.5 c 128,-1,3
 120 1092 120 1092 93 1099 c 128,-1,4
 66 1106 66 1106 24 1110 c 1,5,-1
 24 1152 l 1,6,-1
 544 1152 l 2,7,8
 692 1152 692 1152 809 1113.5 c 128,-1,9
 926 1075 926 1075 1008 1002 c 128,-1,10
 1090 929 1090 929 1133.5 824.5 c 128,-1,11
 1177 720 1177 720 1177 589 c 0,12,13
 1177 457 1177 457 1133 348 c 128,-1,14
 1089 239 1089 239 1008 162 c 128,-1,15
 927 85 927 85 814.5 42.5 c 128,-1,16
 702 0 702 0 563 0 c 2,17,-1
 24 0 l 1,18,-1
 24 42 l 1,19,20
 98 45 98 45 132 72 c 128,-1,21
 166 99 166 99 166 155 c 2,22,-1
 166 997 l 2,0,1
441 158 m 2,23,24
 441 129 441 129 446 110 c 128,-1,25
 451 91 451 91 462 80 c 128,-1,26
 473 69 473 69 492.5 64.5 c 128,-1,27
 512 60 512 60 541 60 c 0,28,29
 706 60 706 60 791 177 c 0,30,31
 811 206 811 206 828 247 c 128,-1,32
 845 288 845 288 856.5 338 c 128,-1,33
 868 388 868 388 874 445.5 c 128,-1,34
 880 503 880 503 880 563 c 0,35,36
 880 671 880 671 862.5 762 c 128,-1,37
 845 853 845 853 810 921 c 0,38,39
 766 1010 766 1010 700.5 1053 c 128,-1,40
 635 1096 635 1096 542 1096 c 0,41,42
 441 1096 441 1096 441 1036 c 2,43,-1
 441 158 l 2,23,24
EndSplineSet
EndChar

StartChar: E
Encoding: 69 69 494
Width: 1138
Flags: W
LayerCount: 2
Fore
SplineSet
1011 810 m 1,0,-1
 969 810 l 1,1,2
 953 896 953 896 927 950.5 c 128,-1,3
 901 1005 901 1005 855 1037.5 c 128,-1,4
 809 1070 809 1070 738.5 1083 c 128,-1,5
 668 1096 668 1096 564 1096 c 0,6,7
 531 1096 531 1096 509.5 1092.5 c 128,-1,8
 488 1089 488 1089 476 1080 c 128,-1,9
 464 1071 464 1071 459 1055.5 c 128,-1,10
 454 1040 454 1040 454 1015 c 2,11,-1
 454 619 l 1,12,13
 522 618 522 618 570.5 630.5 c 128,-1,14
 619 643 619 643 651.5 673 c 128,-1,15
 684 703 684 703 702 752 c 128,-1,16
 720 801 720 801 730 874 c 1,17,-1
 774 874 l 1,18,-1
 774 297 l 1,19,-1
 730 297 l 1,20,21
 722 371 722 371 704 421.5 c 128,-1,22
 686 472 686 472 653.5 503 c 128,-1,23
 621 534 621 534 572 548 c 128,-1,24
 523 562 523 562 454 562 c 1,25,-1
 454 148 l 2,26,27
 454 121 454 121 460.5 102.5 c 128,-1,28
 467 84 467 84 483.5 73 c 128,-1,29
 500 62 500 62 527.5 57.5 c 128,-1,30
 555 53 555 53 596 53 c 0,31,32
 693 53 693 53 765.5 74.5 c 128,-1,33
 838 96 838 96 897 143 c 0,34,35
 920 162 920 162 938.5 181 c 128,-1,36
 957 200 957 200 974.5 224.5 c 128,-1,37
 992 249 992 249 1009 280.5 c 128,-1,38
 1026 312 1026 312 1046 355 c 1,39,-1
 1094 355 l 1,40,-1
 1025 0 l 1,41,-1
 27 0 l 1,42,-1
 27 42 l 1,43,44
 74 48 74 48 103.5 55 c 128,-1,45
 133 62 133 62 149.5 75 c 128,-1,46
 166 88 166 88 171.5 109 c 128,-1,47
 177 130 177 130 177 164 c 2,48,-1
 177 990 l 2,49,50
 177 1022 177 1022 170.5 1044 c 128,-1,51
 164 1066 164 1066 146.5 1080 c 128,-1,52
 129 1094 129 1094 100.5 1100.5 c 128,-1,53
 72 1107 72 1107 27 1110 c 1,54,-1
 27 1152 l 1,55,-1
 1011 1152 l 1,56,-1
 1011 810 l 1,0,-1
EndSplineSet
EndChar

StartChar: F
Encoding: 70 70 495
Width: 1042
Flags: W
LayerCount: 2
Fore
SplineSet
995 810 m 1,0,-1
 954 810 l 1,1,2
 945 851 945 851 936.5 880.5 c 128,-1,3
 928 910 928 910 918.5 932.5 c 128,-1,4
 909 955 909 955 898.5 972.5 c 128,-1,5
 888 990 888 990 874 1006 c 0,6,7
 833 1052 833 1052 757 1074 c 128,-1,8
 681 1096 681 1096 563 1096 c 0,9,10
 530 1096 530 1096 509 1092 c 128,-1,11
 488 1088 488 1088 476 1079 c 128,-1,12
 464 1070 464 1070 459 1054.5 c 128,-1,13
 454 1039 454 1039 454 1015 c 2,14,-1
 454 619 l 1,15,16
 517 619 517 619 562 631.5 c 128,-1,17
 607 644 607 644 636.5 673.5 c 128,-1,18
 666 703 666 703 684.5 752 c 128,-1,19
 703 801 703 801 714 874 c 1,20,-1
 758 874 l 1,21,-1
 758 297 l 1,22,-1
 714 297 l 1,23,24
 706 371 706 371 688.5 421 c 128,-1,25
 671 471 671 471 641 502 c 128,-1,26
 611 533 611 533 565 546.5 c 128,-1,27
 519 560 519 560 454 562 c 1,28,-1
 454 164 l 2,29,30
 454 128 454 128 461 105.5 c 128,-1,31
 468 83 468 83 489 70 c 128,-1,32
 510 57 510 57 546 51 c 128,-1,33
 582 45 582 45 641 42 c 1,34,-1
 641 0 l 1,35,-1
 27 0 l 1,36,-1
 27 42 l 1,37,38
 74 48 74 48 103.5 55 c 128,-1,39
 133 62 133 62 149.5 75 c 128,-1,40
 166 88 166 88 171.5 109 c 128,-1,41
 177 130 177 130 177 164 c 2,42,-1
 177 990 l 2,43,44
 177 1023 177 1023 170.5 1045 c 128,-1,45
 164 1067 164 1067 146.5 1081 c 128,-1,46
 129 1095 129 1095 100.5 1101 c 128,-1,47
 72 1107 72 1107 27 1110 c 1,48,-1
 27 1152 l 1,49,-1
 995 1152 l 1,50,-1
 995 810 l 1,0,-1
EndSplineSet
EndChar

StartChar: G
Encoding: 71 71 496
Width: 1327
Flags: W
LayerCount: 2
Fore
SplineSet
1288 447 m 1,0,1
 1240 442 1240 442 1211 434 c 128,-1,2
 1182 426 1182 426 1166.5 409.5 c 128,-1,3
 1151 393 1151 393 1146 364.5 c 128,-1,4
 1141 336 1141 336 1141 290 c 2,5,-1
 1141 73 l 1,6,7
 1100 49 1100 49 1046.5 29.5 c 128,-1,8
 993 10 993 10 931 -4 c 128,-1,9
 869 -18 869 -18 802.5 -25 c 128,-1,10
 736 -32 736 -32 670 -32 c 0,11,12
 536 -32 536 -32 424.5 12 c 128,-1,13
 313 56 313 56 233 135 c 128,-1,14
 153 214 153 214 108.5 323.5 c 128,-1,15
 64 433 64 433 64 564 c 0,16,17
 64 697 64 697 109 809 c 128,-1,18
 154 921 154 921 233.5 1003.5 c 128,-1,19
 313 1086 313 1086 421 1132.5 c 128,-1,20
 529 1179 529 1179 657 1179 c 0,21,22
 718 1179 718 1179 781.5 1165 c 128,-1,23
 845 1151 845 1151 921 1119 c 0,24,25
 950 1106 950 1106 969.5 1101 c 128,-1,26
 989 1096 989 1096 1000 1096 c 0,27,28
 1024 1096 1024 1096 1040.5 1112 c 128,-1,29
 1057 1128 1057 1128 1074 1174 c 1,30,-1
 1121 1174 l 1,31,-1
 1121 774 l 1,32,-1
 1078 774 l 1,33,34
 1055 822 1055 822 1036 859 c 128,-1,35
 1017 896 1017 896 997.5 925.5 c 128,-1,36
 978 955 978 955 955.5 979 c 128,-1,37
 933 1003 933 1003 906 1027 c 0,38,39
 849 1076 849 1076 793.5 1099.5 c 128,-1,40
 738 1123 738 1123 679 1123 c 0,41,42
 523 1123 523 1123 444 984.5 c 128,-1,43
 365 846 365 846 365 576 c 0,44,45
 365 270 365 270 475 130 c 0,46,47
 518 74 518 74 574 49 c 128,-1,48
 630 24 630 24 711 24 c 0,49,50
 798 24 798 24 836.5 53.5 c 128,-1,51
 875 83 875 83 875 148 c 2,52,-1
 875 327 l 2,53,54
 875 362 875 362 868.5 384 c 128,-1,55
 862 406 862 406 843.5 418.5 c 128,-1,56
 825 431 825 431 791.5 437.5 c 128,-1,57
 758 444 758 444 703 447 c 1,58,-1
 703 490 l 1,59,-1
 1288 490 l 1,60,-1
 1288 447 l 1,0,1
EndSplineSet
EndChar

StartChar: H
Encoding: 72 72 497
Width: 1327
Flags: W
LayerCount: 2
Fore
SplineSet
458 557 m 1,0,-1
 458 164 l 2,1,2
 458 132 458 132 464 111.5 c 128,-1,3
 470 91 470 91 487.5 77.5 c 128,-1,4
 505 64 505 64 534 56 c 128,-1,5
 563 48 563 48 611 42 c 1,6,-1
 611 0 l 1,7,-1
 36 0 l 1,8,-1
 36 42 l 1,9,10
 80 48 80 48 108.5 56 c 128,-1,11
 137 64 137 64 153 77.5 c 128,-1,12
 169 91 169 91 174.5 111.5 c 128,-1,13
 180 132 180 132 180 164 c 2,14,-1
 180 990 l 2,15,16
 180 1021 180 1021 174 1042.5 c 128,-1,17
 168 1064 168 1064 151 1078 c 128,-1,18
 134 1092 134 1092 106 1099 c 128,-1,19
 78 1106 78 1106 36 1110 c 1,20,-1
 36 1152 l 1,21,-1
 611 1152 l 1,22,-1
 611 1110 l 1,23,24
 565 1107 565 1107 536 1100 c 128,-1,25
 507 1093 507 1093 489 1078.5 c 128,-1,26
 471 1064 471 1064 464.5 1042.5 c 128,-1,27
 458 1021 458 1021 458 990 c 2,28,-1
 458 636 l 1,29,-1
 868 636 l 1,30,-1
 868 990 l 2,31,32
 868 1021 868 1021 861 1042.5 c 128,-1,33
 854 1064 854 1064 836 1078.5 c 128,-1,34
 818 1093 818 1093 788.5 1100 c 128,-1,35
 759 1107 759 1107 714 1110 c 1,36,-1
 714 1152 l 1,37,-1
 1295 1152 l 1,38,-1
 1295 1110 l 1,39,40
 1251 1107 1251 1107 1222.5 1100 c 128,-1,41
 1194 1093 1194 1093 1176.5 1078.5 c 128,-1,42
 1159 1064 1159 1064 1152 1042.5 c 128,-1,43
 1145 1021 1145 1021 1145 990 c 2,44,-1
 1145 164 l 2,45,46
 1145 132 1145 132 1151 111.5 c 128,-1,47
 1157 91 1157 91 1174 77.5 c 128,-1,48
 1191 64 1191 64 1220 56 c 128,-1,49
 1249 48 1249 48 1295 42 c 1,50,-1
 1295 0 l 1,51,-1
 714 0 l 1,52,-1
 714 42 l 1,53,54
 761 48 761 48 791 56 c 128,-1,55
 821 64 821 64 838.5 77.5 c 128,-1,56
 856 91 856 91 862 111.5 c 128,-1,57
 868 132 868 132 868 164 c 2,58,-1
 868 557 l 1,59,-1
 458 557 l 1,0,-1
EndSplineSet
EndChar

StartChar: I
Encoding: 73 73 498
Width: 663
Flags: W
LayerCount: 2
Fore
SplineSet
192 990 m 2,0,1
 192 1022 192 1022 184.5 1043.5 c 128,-1,2
 177 1065 177 1065 159 1079.5 c 128,-1,3
 141 1094 141 1094 110.5 1100.5 c 128,-1,4
 80 1107 80 1107 34 1110 c 1,5,-1
 34 1152 l 1,6,-1
 631 1152 l 1,7,-1
 631 1110 l 1,8,9
 584 1108 584 1108 552.5 1102 c 128,-1,10
 521 1096 521 1096 502.5 1081.5 c 128,-1,11
 484 1067 484 1067 476.5 1045 c 128,-1,12
 469 1023 469 1023 469 990 c 2,13,-1
 469 164 l 2,14,15
 469 130 469 130 476 108 c 128,-1,16
 483 86 483 86 501.5 72.5 c 128,-1,17
 520 59 520 59 551 52 c 128,-1,18
 582 45 582 45 631 42 c 1,19,-1
 631 0 l 1,20,-1
 34 0 l 1,21,-1
 34 42 l 1,22,23
 82 47 82 47 113 54.5 c 128,-1,24
 144 62 144 62 161.5 75.5 c 128,-1,25
 179 89 179 89 185.5 110 c 128,-1,26
 192 131 192 131 192 164 c 2,27,-1
 192 990 l 2,0,1
EndSplineSet
EndChar

StartChar: J
Encoding: 74 74 499
Width: 853
Flags: W
LayerCount: 2
Fore
SplineSet
665 210 m 2,0,1
 665 25 665 25 572.5 -69.5 c 128,-1,2
 480 -164 480 -164 300 -164 c 0,3,4
 249 -164 249 -164 201 -153 c 128,-1,5
 153 -142 153 -142 120 -125 c 0,6,7
 94 -111 94 -111 73.5 -89.5 c 128,-1,8
 53 -68 53 -68 37.5 -43.5 c 128,-1,9
 22 -19 22 -19 13.5 8 c 128,-1,10
 5 35 5 35 5 62 c 0,11,12
 5 86 5 86 14.5 108 c 128,-1,13
 24 130 24 130 41 147 c 128,-1,14
 58 164 58 164 79.5 174 c 128,-1,15
 101 184 101 184 124 184 c 0,16,17
 149 184 149 184 172 174 c 128,-1,18
 195 164 195 164 211.5 146 c 128,-1,19
 228 128 228 128 238.5 105 c 128,-1,20
 249 82 249 82 249 57 c 0,21,22
 249 37 249 37 244 24 c 128,-1,23
 239 11 239 11 223 -9 c 0,24,25
 212 -25 212 -25 207.5 -33.5 c 128,-1,26
 203 -42 203 -42 203 -53 c 0,27,28
 203 -77 203 -77 224.5 -92.5 c 128,-1,29
 246 -108 246 -108 280 -108 c 0,30,31
 338 -108 338 -108 363.5 -73 c 128,-1,32
 389 -38 389 -38 389 41 c 2,33,-1
 389 990 l 2,34,35
 389 1024 389 1024 381.5 1046.5 c 128,-1,36
 374 1069 374 1069 354.5 1082.5 c 128,-1,37
 335 1096 335 1096 302 1102 c 128,-1,38
 269 1108 269 1108 217 1110 c 1,39,-1
 217 1152 l 1,40,-1
 817 1152 l 1,41,-1
 817 1110 l 1,42,43
 769 1107 769 1107 739.5 1099.5 c 128,-1,44
 710 1092 710 1092 693.5 1074.5 c 128,-1,45
 677 1057 677 1057 671 1028.5 c 128,-1,46
 665 1000 665 1000 665 954 c 2,47,-1
 665 210 l 2,0,1
EndSplineSet
EndChar

StartChar: K
Encoding: 75 75 500
Width: 1327
Flags: W
LayerCount: 2
Fore
SplineSet
1312 0 m 1,0,-1
 739 0 l 1,1,-1
 739 42 l 1,2,3
 757 44 757 44 772 44 c 128,-1,4
 787 44 787 44 793 44 c 0,5,6
 836 46 836 46 855 54 c 128,-1,7
 874 62 874 62 874 78 c 0,8,9
 874 92 874 92 865.5 107 c 128,-1,10
 857 122 857 122 832 153 c 2,11,-1
 522 541 l 1,12,-1
 475 498 l 1,13,-1
 475 164 l 2,14,15
 475 132 475 132 481.5 111.5 c 128,-1,16
 488 91 488 91 504.5 77.5 c 128,-1,17
 521 64 521 64 550.5 56 c 128,-1,18
 580 48 580 48 626 42 c 1,19,-1
 626 0 l 1,20,-1
 51 0 l 1,21,-1
 51 42 l 1,22,23
 97 48 97 48 126.5 55.5 c 128,-1,24
 156 63 156 63 172 76 c 128,-1,25
 188 89 188 89 194 110 c 128,-1,26
 200 131 200 131 200 164 c 2,27,-1
 200 990 l 2,28,29
 200 1023 200 1023 193.5 1045 c 128,-1,30
 187 1067 187 1067 170 1081 c 128,-1,31
 153 1095 153 1095 124 1101 c 128,-1,32
 95 1107 95 1107 51 1110 c 1,33,-1
 51 1152 l 1,34,-1
 628 1152 l 1,35,-1
 628 1110 l 1,36,37
 581 1107 581 1107 551 1099.5 c 128,-1,38
 521 1092 521 1092 504 1074 c 128,-1,39
 487 1056 487 1056 481 1027.5 c 128,-1,40
 475 999 475 999 475 954 c 2,41,-1
 475 589 l 1,42,-1
 847 960 l 2,43,44
 866 980 866 980 878 993 c 128,-1,45
 890 1006 890 1006 897 1016.5 c 128,-1,46
 904 1027 904 1027 905.5 1035.5 c 128,-1,47
 907 1044 907 1044 907 1054 c 0,48,49
 907 1080 907 1080 889 1091.5 c 128,-1,50
 871 1103 871 1103 824 1105 c 0,51,52
 817 1107 817 1107 800.5 1107.5 c 128,-1,53
 784 1108 784 1108 762 1110 c 1,54,-1
 762 1152 l 1,55,-1
 1255 1152 l 1,56,-1
 1255 1110 l 1,57,58
 1214 1106 1214 1106 1180 1099.5 c 128,-1,59
 1146 1093 1146 1093 1112 1077.5 c 128,-1,60
 1078 1062 1078 1062 1040.5 1035.5 c 128,-1,61
 1003 1009 1003 1009 955.5 967.5 c 128,-1,62
 908 926 908 926 848 866 c 128,-1,63
 788 806 788 806 708 723 c 1,64,-1
 1229 78 l 2,65,66
 1246 59 1246 59 1263 51.5 c 128,-1,67
 1280 44 1280 44 1312 42 c 1,68,-1
 1312 0 l 1,0,-1
EndSplineSet
EndChar

StartChar: L
Encoding: 76 76 501
Width: 1138
Flags: W
LayerCount: 2
Fore
SplineSet
1019 0 m 1,0,-1
 32 0 l 1,1,-1
 32 42 l 1,2,3
 79 48 79 48 107.5 55.5 c 128,-1,4
 136 63 136 63 152.5 76 c 128,-1,5
 169 89 169 89 174 110 c 128,-1,6
 179 131 179 131 179 164 c 2,7,-1
 179 990 l 2,8,9
 179 1022 179 1022 172.5 1044 c 128,-1,10
 166 1066 166 1066 149 1080 c 128,-1,11
 132 1094 132 1094 103.5 1100.5 c 128,-1,12
 75 1107 75 1107 32 1110 c 1,13,-1
 32 1152 l 1,14,-1
 628 1152 l 1,15,-1
 628 1110 l 1,16,17
 572 1107 572 1107 538.5 1100.5 c 128,-1,18
 505 1094 505 1094 486 1077 c 128,-1,19
 467 1060 467 1060 461.5 1031 c 128,-1,20
 456 1002 456 1002 456 954 c 2,21,-1
 456 148 l 2,22,23
 456 121 456 121 462.5 102.5 c 128,-1,24
 469 84 469 84 485 73 c 128,-1,25
 501 62 501 62 527 57.5 c 128,-1,26
 553 53 553 53 592 53 c 0,27,28
 691 53 691 53 763.5 76 c 128,-1,29
 836 99 836 99 889 147 c 0,30,31
 911 168 911 168 929.5 189.5 c 128,-1,32
 948 211 948 211 965.5 238 c 128,-1,33
 983 265 983 265 1000.5 301 c 128,-1,34
 1018 337 1018 337 1039 387 c 1,35,-1
 1089 387 l 1,36,-1
 1019 0 l 1,0,-1
EndSplineSet
EndChar

StartChar: M
Encoding: 77 77 502
Width: 1610
Flags: W
LayerCount: 2
Fore
SplineSet
726 0 m 1,0,-1
 680 0 l 1,1,-1
 251 1013 l 1,2,-1
 251 212 l 2,3,4
 251 165 251 165 258.5 134 c 128,-1,5
 266 103 266 103 285 84 c 128,-1,6
 304 65 304 65 337 55.5 c 128,-1,7
 370 46 370 46 423 42 c 1,8,-1
 423 0 l 1,9,-1
 24 0 l 1,10,-1
 24 42 l 1,11,12
 74 48 74 48 104.5 55.5 c 128,-1,13
 135 63 135 63 152 77.5 c 128,-1,14
 169 92 169 92 174 116.5 c 128,-1,15
 179 141 179 141 179 179 c 2,16,-1
 179 990 l 2,17,18
 179 1023 179 1023 173 1044.5 c 128,-1,19
 167 1066 167 1066 150 1079.5 c 128,-1,20
 133 1093 133 1093 103.5 1099.5 c 128,-1,21
 74 1106 74 1106 27 1110 c 1,22,-1
 27 1152 l 1,23,-1
 459 1152 l 1,24,-1
 801 348 l 1,25,-1
 1141 1152 l 1,26,-1
 1571 1152 l 1,27,-1
 1571 1110 l 1,28,29
 1524 1107 1524 1107 1495 1099.5 c 128,-1,30
 1466 1092 1466 1092 1449.5 1074.5 c 128,-1,31
 1433 1057 1433 1057 1427 1028.5 c 128,-1,32
 1421 1000 1421 1000 1421 954 c 2,33,-1
 1421 200 l 2,34,35
 1421 154 1421 154 1426 126.5 c 128,-1,36
 1431 99 1431 99 1446 82.5 c 128,-1,37
 1461 66 1461 66 1491 57.5 c 128,-1,38
 1521 49 1521 49 1571 42 c 1,39,-1
 1571 0 l 1,40,-1
 1004 0 l 1,41,-1
 1004 42 l 1,42,43
 1053 47 1053 47 1082.5 54 c 128,-1,44
 1112 61 1112 61 1129 75 c 128,-1,45
 1146 89 1146 89 1151.5 111.5 c 128,-1,46
 1157 134 1157 134 1157 171 c 2,47,-1
 1157 1039 l 1,48,-1
 726 0 l 1,0,-1
EndSplineSet
EndChar

StartChar: N
Encoding: 78 78 503
Width: 1232
Flags: W
LayerCount: 2
Fore
SplineSet
988 421 m 1,0,-1
 988 941 l 2,1,2
 988 987 988 987 981 1017.5 c 128,-1,3
 974 1048 974 1048 956 1067 c 128,-1,4
 938 1086 938 1086 907 1095.5 c 128,-1,5
 876 1105 876 1105 829 1110 c 1,6,-1
 829 1152 l 1,7,-1
 1197 1152 l 1,8,-1
 1197 1110 l 1,9,10
 1155 1104 1155 1104 1129 1095.5 c 128,-1,11
 1103 1087 1103 1087 1088.5 1072 c 128,-1,12
 1074 1057 1074 1057 1068.5 1033.5 c 128,-1,13
 1063 1010 1063 1010 1063 974 c 2,14,-1
 1063 -30 l 1,15,-1
 1015 -30 l 1,16,-1
 253 897 l 1,17,-1
 253 212 l 2,18,19
 253 167 253 167 260 137 c 128,-1,20
 267 107 267 107 285 88 c 128,-1,21
 303 69 303 69 334.5 58.5 c 128,-1,22
 366 48 366 48 415 42 c 1,23,-1
 415 0 l 1,24,-1
 27 0 l 1,25,-1
 27 42 l 1,26,27
 74 48 74 48 103 56.5 c 128,-1,28
 132 65 132 65 149 80 c 128,-1,29
 166 95 166 95 171.5 118.5 c 128,-1,30
 177 142 177 142 177 179 c 2,31,-1
 177 988 l 1,32,33
 147 1024 147 1024 125.5 1048 c 128,-1,34
 104 1072 104 1072 87.5 1086 c 128,-1,35
 71 1100 71 1100 58 1105 c 128,-1,36
 45 1110 45 1110 32 1110 c 1,37,-1
 32 1152 l 1,38,-1
 392 1152 l 1,39,-1
 988 421 l 1,0,-1
EndSplineSet
EndChar

StartChar: O
Encoding: 79 79 504
Width: 1327
Flags: W
LayerCount: 2
Fore
SplineSet
670 1179 m 0,0,1
 799 1179 799 1179 908.5 1133.5 c 128,-1,2
 1018 1088 1018 1088 1098 1007 c 128,-1,3
 1178 926 1178 926 1223 815 c 128,-1,4
 1268 704 1268 704 1268 573 c 0,5,6
 1268 441 1268 441 1223.5 330 c 128,-1,7
 1179 219 1179 219 1098.5 138.5 c 128,-1,8
 1018 58 1018 58 907 13 c 128,-1,9
 796 -32 796 -32 663 -32 c 0,10,11
 531 -32 531 -32 420.5 12.5 c 128,-1,12
 310 57 310 57 229.5 137.5 c 128,-1,13
 149 218 149 218 104.5 328.5 c 128,-1,14
 60 439 60 439 60 571 c 0,15,16
 60 705 60 705 105 816 c 128,-1,17
 150 927 150 927 231.5 1008 c 128,-1,18
 313 1089 313 1089 424.5 1134 c 128,-1,19
 536 1179 536 1179 670 1179 c 0,0,1
669 1123 m 0,20,21
 519 1123 519 1123 440.5 977.5 c 128,-1,22
 362 832 362 832 362 557 c 0,23,24
 362 298 362 298 439 161 c 128,-1,25
 516 24 516 24 663 24 c 0,26,27
 811 24 811 24 888 161 c 128,-1,28
 965 298 965 298 965 562 c 0,29,30
 965 695 965 695 945 799.5 c 128,-1,31
 925 904 925 904 887.5 976 c 128,-1,32
 850 1048 850 1048 795 1085.5 c 128,-1,33
 740 1123 740 1123 669 1123 c 0,20,21
EndSplineSet
EndChar

StartChar: P
Encoding: 80 80 505
Width: 1042
Flags: W
LayerCount: 2
Fore
SplineSet
447 200 m 2,0,1
 447 153 447 153 451.5 125 c 128,-1,2
 456 97 456 97 471.5 81 c 128,-1,3
 487 65 487 65 517 57 c 128,-1,4
 547 49 547 49 597 42 c 1,5,-1
 597 0 l 1,6,-1
 27 0 l 1,7,-1
 27 42 l 1,8,9
 41 45 41 45 53 47 c 128,-1,10
 65 49 65 49 69 49 c 0,11,12
 98 53 98 53 117.5 62.5 c 128,-1,13
 137 72 137 72 149 89 c 128,-1,14
 161 106 161 106 166 133 c 128,-1,15
 171 160 171 160 171 200 c 2,16,-1
 171 954 l 2,17,18
 171 999 171 999 165.5 1027 c 128,-1,19
 160 1055 160 1055 144 1073 c 128,-1,20
 128 1091 128 1091 100.5 1098.5 c 128,-1,21
 73 1106 73 1106 27 1110 c 1,22,-1
 27 1152 l 1,23,-1
 576 1152 l 2,24,25
 683 1152 683 1152 766.5 1131.5 c 128,-1,26
 850 1111 850 1111 907 1071.5 c 128,-1,27
 964 1032 964 1032 994 974.5 c 128,-1,28
 1024 917 1024 917 1024 843 c 0,29,30
 1024 744 1024 744 969 669.5 c 128,-1,31
 914 595 914 595 810 555 c 0,32,33
 782 543 782 543 754.5 536 c 128,-1,34
 727 529 727 529 687.5 525 c 128,-1,35
 648 521 648 521 590.5 519.5 c 128,-1,36
 533 518 533 518 447 517 c 1,37,-1
 447 200 l 2,0,1
447 576 m 1,38,39
 492 576 492 576 526.5 578.5 c 128,-1,40
 561 581 561 581 586.5 587 c 128,-1,41
 612 593 612 593 631 602 c 128,-1,42
 650 611 650 611 665 623 c 0,43,44
 699 653 699 653 714.5 703 c 128,-1,45
 730 753 730 753 730 834 c 0,46,47
 730 904 730 904 719.5 953 c 128,-1,48
 709 1002 709 1002 685 1033 c 128,-1,49
 661 1064 661 1064 623 1079 c 128,-1,50
 585 1094 585 1094 532 1094 c 0,51,52
 447 1094 447 1094 447 1034 c 2,53,-1
 447 576 l 1,38,39
EndSplineSet
EndChar

